<svg width="31" height="36" viewBox="0 0 31 36" fill="none" xmlns="http://www.w3.org/2000/svg">
<mask id="mask0_19_36" style="mask-type:luminance" maskUnits="userSpaceOnUse" x="0" y="0" width="31" height="36">
<path d="M10.7942 11.044C14.4522 9.6 18.8992 9.3 25.8672 5.933L25.6672 20.545C25.7007 22.3179 25.29 24.0709 24.4726 25.6445C23.6551 27.218 22.457 28.562 20.9872 29.554C18.3602 30.947 9.79221 32.731 9.85121 24.6C9.89121 18.436 19.1512 15.2 19.1512 15.2C19.1512 15.2 6.54521 14.411 5.87321 26C2.98621 20.906 4.15921 13.66 10.7942 11.044ZM30.0452 0L30.0152 0.02C23.0992 3.217 15.8152 4.5 9.29021 6.925C-5.90079 12.567 -1.39279 35.507 15.0632 35.758C24.5342 35.788 30.6172 27.53 29.9952 19.432C30.0352 19.873 30.0552 20.314 30.0552 20.775V0H30.0452Z" fill="white"/>
</mask>
<g mask="url(#mask0_19_36)">
<path d="M30.6162 0H-5.90283V35.788H30.6162V0Z" fill="white"/>
</g>
</svg>
