<svg xmlns="http://www.w3.org/2000/svg" xmlns:xlink="http://www.w3.org/1999/xlink" width="430.465"
  height="430.465" viewBox="0 0 489.484 489.484">
  <defs>
    <clipPath id="clip-path">
      <circle id="Ellipse_179" data-name="Ellipse 179" cx="173.059" cy="173.059" r="173.059"
        transform="translate(13159 4999.993) rotate(-45)" fill="#fff" />
    </clipPath>
  </defs>
  <g id="Mask_Group_23" data-name="Mask Group 23" transform="translate(-13159 -4755.251)"
    clip-path="url(#clip-path)">
    <g id="Group_811" data-name="Group 811" transform="translate(13235.32 4806.532)">
      <path id="Path_988" data-name="Path 988"
        d="M456.515,189.295c-1.17-.967-1.71-6.106-1.218-11.826.154-1.706.19-5.061.148-7.436a53.24,53.24,0,0,1,.116-6.273,117.837,117.837,0,0,1,2.217-12.771,61.4,61.4,0,0,0,1.17-7.488c.373-3.423.759-6.72.881-7.33a31.219,31.219,0,0,0,.138-4.4c-.1-4.309.469-7.317,1.549-8.314a2.029,2.029,0,0,1,1.314-.585c.675.177,1.44,1.687,1.363,2.7-.283,3.663-.916,9.242-1.273,11.662a102.5,102.5,0,0,0-.726,14.609,31.991,31.991,0,0,1-.132,4.74c-.174,1.835-.321,3.888-.4,4.586-.215,2.841-.357,7.77-.334,11.087a22.8,22.8,0,0,1-.472,5.627c-.309,1.16-.775,3.747-1.08,5.784-.588,4.011-1,5.341-1.713,5.733C457.351,189.764,457.1,189.761,456.515,189.295Z"
        transform="translate(-262.459 192.757)" fill="#fff" fill-rule="evenodd" />
      <path id="Path_989" data-name="Path 989"
        d="M446.179,235.775a3.589,3.589,0,0,1-1.147-1.032c-.893-1.276-2.021-17.37-1.584-22.739a33.364,33.364,0,0,1,.611-3.512c.386-1.61.389-2.985.019-8.3a83.946,83.946,0,0,1-.26-8.831c.235-2.687,1.118-4.6,2.352-5.052a1.889,1.889,0,0,0,.913-.819,34.323,34.323,0,0,0,.231-4.943c.016-2.41.119-4.865.212-5.437a21.722,21.722,0,0,0-1.356-9.117c-1.2-2.873-1.379-4.232-1.279-9.564.035-2.227-.167-7.153-.492-10.9-.89-10.3-1.388-22.106-1.083-24.459a36.653,36.653,0,0,0,.231-4.409,14.345,14.345,0,0,1,1.2-6.707,13.765,13.765,0,0,0,.829-3.535c.238-3.22.4-4.242.771-4.907a1.072,1.072,0,0,1,1.944.315,11.834,11.834,0,0,1,.212,5.865c-.495,1.745-.427,2.082.852,5.977.887,2.626,1.276,5.588.88,6.54-.534,1.408-.292,9.49.7,22.09,1.154,14.9,1.118,17.691-.286,21.695a12.441,12.441,0,0,0-.89,4.107c.624,6.164,1.1,15.284.913,16.961a20.383,20.383,0,0,0-.071,3.609,12.815,12.815,0,0,1-.029,2.822c-.08.7.035,4.287.286,7.954.379,5.405.379,7.1.048,8.914-.955,4.93-1.022,10.541-.238,17.591.321,2.908.546,5.765.514,6.331a6.023,6.023,0,0,1-1.118,2.346C448.94,236.1,447.545,236.533,446.179,235.775Z"
        transform="translate(-288.777 144.361)" fill="#fff" fill-rule="evenodd" />
      <path id="Path_990" data-name="Path 990"
        d="M451.681,152.375c-.3-.154-.839-2.224-2.237-8.612a4.251,4.251,0,0,1,.071-2.449c.611-1.571,2.548-4.7,2.918-4.74,1.581-.145,2.269,3.223,1.578,7.716-.257,1.626-.611,4.107-.768,5.5C452.954,152.266,452.588,152.9,451.681,152.375Z"
        transform="translate(-275.325 223.091)" fill="#fff" fill-rule="evenodd" />
      <path id="Path_991" data-name="Path 991"
        d="M461.754,149.488a14.81,14.81,0,0,1-.2-3.236,40.4,40.4,0,0,0-.167-4.894,8.893,8.893,0,0,1,.6-4.734l.845-2.536.639.681c.569.627.685,1.112.861,3.818a47.343,47.343,0,0,1-.418,9.782c-.2.993-.45,1.3-1.06,1.433C462.3,149.928,461.95,149.841,461.754,149.488Z"
        transform="translate(-248.789 217.598)" fill="#fff" fill-rule="evenodd" />
      <path id="Path_992" data-name="Path 992"
        d="M470.756,238.866a3.289,3.289,0,0,1-1.366-1.006c-.575-.688-.72-1.424-1.173-6.07-.514-5.2-.5-6.768.029-10.177a42.043,42.043,0,0,0,.238-5.193c-.09-8.41-.019-12.019.254-13.8a21.862,21.862,0,0,0-.222-5.926c-.273-2.192-.53-6.2-.543-8.86s-.029-5.633-.039-6.54a3.537,3.537,0,0,1,.874-2.854c1.375-1.716,1.825-4.711,1.35-9.008a16.46,16.46,0,0,1-.138-4.056c.173-.427.019-.974-.566-2.005-.691-1.144-.935-2.211-1.466-5.878a40.285,40.285,0,0,1-.52-6.392c.071-1.041.157-5.341.218-9.573.032-4.232.116-9.123.167-10.913.083-1.8-.064-6.225-.276-9.834-.659-10.759-.669-19.3-.019-21.631a10,10,0,0,1,1.331-2.683,13.911,13.911,0,0,0,1.526-3.458c.524-2.06,1.025-2.619,1.8-2.108.575.373,1.925,9.146,1.78,11.511-.286,4.759-.148,10.255.514,19.886.145,2.143.228,5.453.157,7.34-.039,1.915-.151,6.279-.174,9.724-.225,14.333-.623,19.23-1.944,23.1-.45,1.334-.578,2.131-.36,2.42.485.7.71,2.738.81,7.581.048,3.532.157,4.522.508,4.859.7.675,1.128,3.381,1.186,7.571.048,2.153.212,6.144.357,8.882s.164,7.684,0,10.958a72.883,72.883,0,0,0,0,8.455,42.865,42.865,0,0,1-.431,11.63,13.819,13.819,0,0,0-.472,3.088,47.513,47.513,0,0,1-.733,9.194c-.309.881-1.43,2.066-1.88,1.96A6.593,6.593,0,0,1,470.756,238.866Z"
        transform="translate(-235.98 121.603)" fill="#fff" fill-rule="evenodd" />
      <path id="Path_993" data-name="Path 993"
        d="M434.827,171.576a1.9,1.9,0,0,1-.987-.987c-.164-.357-.53-3.95-.874-7.886-.347-3.969-.775-8.963-.98-11.1-.308-3.628-.289-4.007.431-6a21.854,21.854,0,0,0,1.5-8.15,29.743,29.743,0,0,1,.321-4.734c.222-1.4.485-3.246.575-4.133.219-1.967.424-2.394,1.2-2.481.588-.064.636.087.842,3.914a63.191,63.191,0,0,1-.1,7.555,23.236,23.236,0,0,0-.17,3.84c.4.488,1.533,5.9,2.111,10,.5,3.67.566,4.82.26,6.858-.164,1.334-.347,3.075-.386,3.863a48.182,48.182,0,0,1-.781,7.632,3.147,3.147,0,0,1-1.041,1.616A1.63,1.63,0,0,1,434.827,171.576Z"
        transform="translate(-314.076 199.916)" fill="#fff" fill-rule="evenodd" />
      <path id="Path_994" data-name="Path 994"
        d="M476.93,198.423a6.337,6.337,0,0,1-.675-2.712,13.072,13.072,0,0,0-.7-3.243c-.726-1.453-1.578-5.739-1.311-6.742a8.529,8.529,0,0,1,1.363-2.372l1.125-1.44-.379-5.688c-.556-7.828-.643-12.829-.309-14.9a59.663,59.663,0,0,0,.411-12.1c-.476-10.216-.476-18.668-.045-22.412.1-.794.479-3.027.893-4.92a15.918,15.918,0,0,0,.415-6.151,13.067,13.067,0,0,1,.125-4.522,27.108,27.108,0,0,0,.45-4.4,12.485,12.485,0,0,1,.174-2.68c.713-.893,1.97,4.791,2.934,13.2,1.629,14.1,1.62,14.317.929,25.288-.173,2.963-.222,7.038-.119,9.094.6,9.1-.578,19.911-2.924,26.686a5.5,5.5,0,0,0-.231,4.126,6.138,6.138,0,0,1,.132,2.9c-.366.916-.447,4.149-.167,8.908a16.983,16.983,0,0,1-.042,3.856A1.646,1.646,0,0,1,476.93,198.423Z"
        transform="translate(-220.235 151.1)" fill="#fff" fill-rule="evenodd" />
      <path id="Path_995" data-name="Path 995"
        d="M441.133,176.854c-.383-.331-.495-1.07-.578-2.94-.064-2.278-.158-2.548-1.051-3.827-1.327-1.825-1.9-5.27-1.674-9.74.087-1.761.215-4.563.251-6.2s.263-5.257.488-8.037c.7-8.342,1.019-13.95,1.144-18.755.132-6.151.534-7.886,1.893-8.037,2.259-.251,3.024,4.955,2.317,15.239a65.969,65.969,0,0,0,.286,15c.659,3.966.707,6.652.276,13.777-.267,4.663-.595,5.919-1.861,7.783a3.152,3.152,0,0,0-.6,2.728,8.739,8.739,0,0,1-.125,2.548C441.643,177.236,441.554,177.278,441.133,176.854Z"
        transform="translate(-300.83 184.891)" fill="#fff" fill-rule="evenodd" />
      <path id="Path_996" data-name="Path 996"
        d="M452.188,277.473c-.665-.646-1.125-5.042-1.035-10.467.029-2.539-.305-8.67-.794-14.471-.717-8.719-.774-10.37-.424-12.289.717-3.995,3.191-9.622,4.274-9.74a.373.373,0,0,0,.267-.4,121.633,121.633,0,0,1,.106-17.672,15.614,15.614,0,0,0-1.176-4.409,25.572,25.572,0,0,1-1.822-8.22c-.964-9-1.758-23.193-2.005-36.722-.1-4.56.344-8.179,1.192-9.837.485-.993.562-1.722.366-4.894-.1-2.053-.1-5.155-.013-6.887.164-2.491.013-4.978-.729-11.659-.723-6.527-.868-9.233-.762-11.656.122-1.735.09-6.8-.061-11.264s-.209-8.963-.167-10-.023-3.284-.087-5c-.183-3.641-.109-4.371,1.025-12.2.848-5.916,1.549-8.9,2.044-8.963.527-.058,1.167,1.469,1.359,3.233.106.958.649,4.435,1.231,7.69a79.323,79.323,0,0,1,1.179,16.839c-.016,1.285.058,5.878.186,10.152.222,7.928-.055,16.444-.636,18.825-.167.739-.476,2.748-.691,4.493s-.63,4.2-.9,5.421a19.2,19.2,0,0,0-.36,5.518c.077,1.809.068,4.563-.01,6.109-.222,3.374-.251,3.127.524,4.73,1.6,3.14,2.127,7.873,2.388,21.245.045,2.937.353,7.976.652,11.228.267,3.259.5,6.52.495,7.3-.01.752.1,3.117.241,5.264a26.634,26.634,0,0,1-.251,6.758,16.939,16.939,0,0,0-.2,4.968,20.954,20.954,0,0,1-.19,5.344c-.241,1.78-.521,5.473-.623,8.211a26.021,26.021,0,0,1-.546,5.508c-.238.4-.212,1.745.074,4.907a45.533,45.533,0,0,1,.247,7.015,30.269,30.269,0,0,0,.029,4.788,28.635,28.635,0,0,1,.145,4.117c-.042,1.038-.177,4.338-.321,7.266a59.454,59.454,0,0,1-.691,7.594c-.27,1.25-.714,4.3-.964,6.835-.283,2.539-.62,4.859-.739,5.187A1.076,1.076,0,0,1,452.188,277.473Z"
        transform="translate(-275.462 77.321)" fill="#fff" fill-rule="evenodd" />
      <path id="Path_997" data-name="Path 997"
        d="M462.66,160.3a15.39,15.39,0,0,1-.758-2.327,16.168,16.168,0,0,1-.472-5.4c.048-1.822.026-4.856-.093-6.752-.193-4.3.7-11.476,1.751-13.847a14.422,14.422,0,0,0,.977-3.612,39.628,39.628,0,0,1,1.6-7.067c.106-.167.46-.08.768.167.45.386.652,1.366,1.273,6.369.942,7.661.974,8.5.611,11.736a52.556,52.556,0,0,0-.177,6.594,17.874,17.874,0,0,1-.562,6.482c-.823,3.034-2.52,6.916-3.281,7.407C463.653,160.5,462.914,160.611,462.66,160.3Z"
        transform="translate(-248.747 189.09)" fill="#fff" fill-rule="evenodd" />
      <path id="Path_998" data-name="Path 998"
        d="M429.389,186.96c-.572-.344-.691-.864-1.379-6.205-.415-3.178-.836-7.828-.926-10.322s-.341-6.755-.52-9.49a46.348,46.348,0,0,1-.235-5.235c.1-.231-.151-5.306-.855-16.717a30.985,30.985,0,0,1-.032-5.945,122,122,0,0,0,2.32-15.756c.026-2.883.164-3.619.72-3.68,1.051-.116,1.587,4.146,1.131,8.8-.5,5.036-.476,5.566.389,6.877,1.655,2.51,2.455,8.87,1.809,14.326-.392,3.239-.132,9.252.681,17.145a75.8,75.8,0,0,1,.591,7.607c-.071.2-.206,2.651-.263,5.508-.074,4.984-.685,10.782-1.221,12.157C431.114,187.269,430.456,187.561,429.389,186.96Z"
        transform="translate(-328.408 172.262)" fill="#fff" fill-rule="evenodd" />
      <path id="Path_999" data-name="Path 999"
        d="M483.795,169.675c-2.385-.614-3.04-4.268-2.272-12.584a93.631,93.631,0,0,0-.318-9.358c-.273-3.853-.463-7.838-.421-8.876.071-1.041.048-3.23-.006-4.853s-.087-3.027-.039-3.159c.129-.264.549-4.351.762-7.253.074-1.292.276-3.162.45-4.12s.485-2.966.694-4.46a12.56,12.56,0,0,1,.559-2.879,1.344,1.344,0,0,0,.08-.948c-.093-.585.039-.787.5-.839.585-.064.643.148,1.234,5.5.309,3.066.623,7.038.7,8.844.077,2.683.209,3.577.794,4.891a21.551,21.551,0,0,1,1.08,8.05c-.032,1.131.148,5.277.4,9.194a104.852,104.852,0,0,1-.218,17.807C487.506,167.57,485.5,170.109,483.795,169.675Z"
        transform="translate(-205.792 165.024)" fill="#fff" fill-rule="evenodd" />
      <path id="Path_1000" data-name="Path 1000"
        d="M424.308,219.585c-.569-.344-.726-.89-1.3-4.959-1.073-7.427-1.33-12.848-.694-15.58a27.508,27.508,0,0,0,.44-9.284,16.069,16.069,0,0,1,.042-3.856,10.453,10.453,0,0,0,.138-2.989c-.26-2.349.067-6.739.556-7.7.286-.533.312-.848.077-.98a5.723,5.723,0,0,1-.62-2.5,5.725,5.725,0,0,0-1.025-3.3c-1.057-1.353-1.549-4.367-1.536-9.348.026-2.317-.129-6.527-.35-9.352s-.363-6.662-.325-8.574c.074-3.3-.129-9.348-.585-16.842a21.207,21.207,0,0,1,.116-4.615,86.823,86.823,0,0,0,1.2-15.724c-.051-2.156-.039-4.567.058-5.392.389-3.551,2.776-.652,2.716,3.3-.016.72.08,3,.215,5.045.328,4.943.755,13.034,1.035,19.767.093,3.12.713,9.814,1.424,15.653a133.76,133.76,0,0,1,1.3,16.762c.058,3.625.045,6.884-.006,7.295a5.9,5.9,0,0,1-1.106,2.16,8.024,8.024,0,0,0-1.5,4.83,4.615,4.615,0,0,1-.212,1.215c-.1.2.318,5.129.906,10.981.617,5.849,1.012,10.814.941,11.01a20.527,20.527,0,0,0,.733,4.084c1.067,4.264,1.722,9.609,1.472,11.858-.27,2.346-1.5,6.209-2.16,6.784C425.484,220.019,425.144,220.055,424.308,219.585Z"
        transform="translate(-342.262 135.475)" fill="#fff" fill-rule="evenodd" />
      <path id="Path_1001" data-name="Path 1001"
        d="M426.074,309.908a4.994,4.994,0,0,1-.7-1.832,6.4,6.4,0,0,0-1.06-2.23c-1.321-1.449-1.983-5.447-3.233-18.96-.63-6.816-1.131-12.459-1.08-12.559.048-.132-.28-4.226-.733-9.156-.819-9.082-.819-9.927-.074-16.74a68.074,68.074,0,0,0,.4-10.222c-.071-3.467.035-8.143.276-11.9.032-.848-.093-3.371-.309-5.6-.344-3.654-.508-4.293-1.5-6.44-1.07-2.32-1.128-2.564-2.066-10.727a155.47,155.47,0,0,1-.778-30.439c.141-1.832.443-4.746.627-6.488.212-1.745.376-4.518.382-6.148a13.509,13.509,0,0,1,.736-4.933c1.363-3.815,1.344-3.689.428-11.945-1.311-11.534-2.3-17.967-3.069-19.478-1.16-2.285-2.176-10.592-2.1-16.736a201.177,201.177,0,0,0-.762-20.111c-.784-9.9-.5-22.611.559-25.735a18.429,18.429,0,0,0,.649-4.3c.074-3.011.3-3.789,1.1-3.879,1.176-.129,1.517.678,2.05,4.907.244,2.227.82,6.267,1.244,8.972a37.214,37.214,0,0,1,.662,8.224c-.077,1.825.132,7.092.453,11.691.858,11.707.977,14.169.855,17.594-.067,1.636-.1,4.457-.055,6.27a53.651,53.651,0,0,1-.411,6.463,27.231,27.231,0,0,0-.337,4.014,18.344,18.344,0,0,1-.167,2.992c-.235,1.841-.08,3.516.993,11.788,1,7.562,1.411,9.895,1.9,10.9A17.577,17.577,0,0,1,422.034,151c.392,2.15.383,2.619-.022,3.2a1.067,1.067,0,0,0-.183,1.176c1.089,1.915,1.433,6.98.816,11.588a106.885,106.885,0,0,0-.954,15.387c.032,2.812.052,6.1,0,7.356s.315,6.508.861,11.707c.508,5.174.868,9.8.823,10.242a29.866,29.866,0,0,1-.775,2.9c-.668,2.172-.691,4.21-.244,14.744.084,2.15.167,5.46.158,7.34.023,1.906.308,6.447.681,10.1.559,5.887.729,6.839,1.414,8.236.649,1.337.868,2.439,1.446,7.664.373,3.342.713,7.844.8,9.994.315,9.043.382,12.2.244,15.47a93.338,93.338,0,0,0,1.366,15.972c.508,3.169.5,3.67.048,4.692C427.96,309.979,426.745,310.586,426.074,309.908Z"
        transform="translate(-360.098 38.857)" fill="#fff" fill-rule="evenodd" />
      <path id="Path_1002" data-name="Path 1002"
        d="M493.812,167.854c-.7-.109-1.073-2.356-1.34-8.15a29.246,29.246,0,0,0-1.125-7.857,43.761,43.761,0,0,1-1.446-15.589c.691-6.745.771-8.288.466-11.039a59.931,59.931,0,0,1,.045-7.208c.164-2.491.35-5.862.421-7.5.174-3.808.511-4.971,1.575-5.277,1.816-.578,2.95,2.9,3.978,12.144.9,7.851,1.041,12.784.537,16.971-.768,6.347-.781,6.787-.048,11.151.8,4.923.739,6.932-.292,12.87-.427,2.362-.813,5.1-.929,6.051-.17,1.835-.7,3.551-1.076,3.532C494.448,167.941,494.133,167.912,493.812,167.854Z"
        transform="translate(-185.878 153.598)" fill="#fff" fill-rule="evenodd" />
      <path id="Path_1003" data-name="Path 1003"
        d="M494.49,308.148c-.713-1.359-1.575-14.477-1.044-15.631.276-.595-.309-8.137-1.189-15.21-.418-3.49-.893-9.48-1.038-13.314-.177-3.863-.562-9.3-.874-12.115a50.816,50.816,0,0,1-.344-9.04c.1-2.172.241-4.036.293-4.136.074-.164.128-2.767.2-11.135.029-3.416.215-4.563,1.16-6.485.688-1.424.71-1.488.116-5.177a35.715,35.715,0,0,1-.431-7.529,89.732,89.732,0,0,0-2.153-18.861c-1.456-6.633-2.169-11.656-2.163-15.258-.013-1.812-.3-6.353-.62-10.107-1.324-15.036-2.558-34.341-2.381-36.992.061-.852.138-2.709.17-4.088a17.959,17.959,0,0,1,1.565-7.343c.62-1.2.681-1.767.514-5.254-.193-4.271-.08-6.941.421-8.625a84.723,84.723,0,0,0,1.192-10.965l.26-3.6-.778-1.073c-1.25-1.678-1.758-4.281-3.471-17.742-1.9-14.879-1.906-15.191.032-20.6.768-2.092,1.665-4.727,2.015-5.829.543-1.877.678-2.047,1.546-2.143.556-.061,1.041.071,1.163.341a23.992,23.992,0,0,1,.116,4.432c-.084,3.455.157,6.495,1.726,21.194,1.2,11.045,1.787,17.521,1.642,18.2a8.939,8.939,0,0,1-.884,2.166,3.974,3.974,0,0,0-.62,1.758,76.788,76.788,0,0,1-1.022,9.13c-1.366,6.884-1.623,9.072-1.424,12.556a14.546,14.546,0,0,0,.681,4.746c.408.864.518,1.854.524,4.734,0,2-.055,4.014-.128,4.46a2,2,0,0,0,.45,1.514,6.12,6.12,0,0,1,.836,3.04c.36,3.246,1.449,19.812,1.645,24.706.061,2.246.414,6.559.755,9.621.6,5.412.71,7.247,1.221,21.155a141.52,141.52,0,0,1-.206,17.337,25.622,25.622,0,0,0,.157,5.367c.215,1.947.566,5.948.791,8.834.293,4.319.45,5.46.919,6.318a13.119,13.119,0,0,1,.977,2.584c.463,1.922.524,12.62.064,16.4a59.7,59.7,0,0,0,.2,9.994c.845,11.868,1.093,15.5.987,15.952-.042.193.119,2.773.35,5.691a40.564,40.564,0,0,1,.186,6.209c-.215.871-.6,6.675-.7,10.6a20.316,20.316,0,0,1-.607,4.136,24.211,24.211,0,0,0-.627,3.953c-.231,4.1-.72,10.444-.877,10.994a.9.9,0,0,1-.591.6A.8.8,0,0,1,494.49,308.148Z"
        transform="translate(-201.898 9.056)" fill="#fff" fill-rule="evenodd" />
      <path id="Path_1004" data-name="Path 1004"
        d="M416.132,185.781c-.723-.013-.726-.045-1.4-6.106a58.133,58.133,0,0,1-.485-7.208,27.383,27.383,0,0,0,.4-8.185,26.171,26.171,0,0,0-2.609-9.419c-.768-1.571-1.665-7.954-1.578-11.125.106-2.985-.771-14.85-1.565-21.711-1.411-11.585-1.408-11.836-.941-13.86.257-1.061.562-2.536.662-3.329a6.335,6.335,0,0,1,.485-1.838c.482-.742,1.436-.035,2.076,1.491.338.778,1.057,2.2,1.575,3.175,1.523,2.744,2.654,9.255,3.708,21.319.521,5.8.842,10.958.746,12.626a52.367,52.367,0,0,0,.312,6.761c.427,3.866.187,7.616-.6,9.551a13.6,13.6,0,0,0-.006,3.6,51.2,51.2,0,0,1,.026,6.729,46.657,46.657,0,0,0,.347,9.04C418.035,184.319,417.832,185.874,416.132,185.781Z"
        transform="translate(-367.459 148.121)" fill="#fff" fill-rule="evenodd" />
      <path id="Path_1005" data-name="Path 1005"
        d="M463.681,177.981c-.582-.437-.758-5.428-.344-9.605.765-7.475.742-10.788-.042-15.9a64.608,64.608,0,0,1-.7-13.6c.045-1.289-.022-5.007-.135-8.281-.46-13.163-.08-17.932,1.472-18.636.717-.3.729-.456.758-4.718a29.549,29.549,0,0,1,.19-3.933c.071-.479.354-1.886.591-3.137a9.008,9.008,0,0,1,1.334-3.5,10.456,10.456,0,0,1,1.048-1.276,7.1,7.1,0,0,1,.717,1.642c.9,2.439.967,8.722.186,12.973a36.245,36.245,0,0,0,.119,5.309,50.284,50.284,0,0,1,.219,5.926c-.084.948-.084,4.329.019,7.51.273,8.956.28,17.472.01,19.568a35.919,35.919,0,0,1-.909,4.483,48.7,48.7,0,0,0-1.478,12.658C466.83,171.088,464.886,178.974,463.681,177.981Z"
        transform="translate(-246.599 131.947)" fill="#fff" fill-rule="evenodd" />
      <path id="Path_1006" data-name="Path 1006"
        d="M436.891,216.14c-2.208-2.1-2.031-1.372-2.41-11.849-.058-2.217-.421-6.623-.742-9.779-.35-3.156-.585-6.7-.566-7.921.026-1.192,0-4.509-.032-7.353-.119-7-.006-8.516.681-10.5.774-2.34,1.414-6.17,2.082-12.568l.527-5.412-1.125-2.5c-1-2.24-1.16-2.847-1.514-6.594a55.49,55.49,0,0,1-.228-6.864c.08-1.51-.177-6.932-.588-12.051-.379-5.122-.649-9.541-.585-9.8s-.3-4.068-.81-8.426c-.749-6.742-.858-8.577-.685-11.82.183-3.153.4-4.242,1.089-5.695a17.009,17.009,0,0,0,1.089-3.159c.148-.922.411-1.391.752-1.427.8-.09,1.208.46,1.645,2.134a14.366,14.366,0,0,0,1.3,2.985c.929,1.62.935,1.369.758,8.243a77.19,77.19,0,0,0,.733,7.748c.411,3.146.868,8.1,1.032,11,.138,2.928.376,6.469.5,7.925.318,3.442.566,9.895.476,12.472-.061,1.134,0,3.946.1,6.25.193,3.988.17,4.364-.771,7.163a11.591,11.591,0,0,0-.807,4.316,24.748,24.748,0,0,1-.067,3.888,72.465,72.465,0,0,0,.463,9.811,178.132,178.132,0,0,1,.749,19.172c-.016,1.565.331,6.379.752,10.717.771,8.368.893,15.962.3,17.656-.511,1.34-1.931,3.188-2.519,3.255A3.247,3.247,0,0,1,436.891,216.14Z"
        transform="translate(-316.227 103.202)" fill="#fff" fill-rule="evenodd" />
      <path id="Path_1007" data-name="Path 1007"
        d="M460.4,180.463c-.655-.553-.813-1.976-.427-4.149.289-1.629.273-1.751-.447-2.892-2.041-3.156-2.809-10.364-2.931-27.258-.128-17.238-.135-16.171-.427-22.183-.145-2.738-.128-7.092.023-9.676s.267-6.636.225-8.979c-.026-3.066.112-4.647.472-5.624a6.016,6.016,0,0,0,.4-2.362,10,10,0,0,1,.623-3.136c.4-1.173.884-2.478,1.022-2.931.276-.877,1.443-1.382,2.06-.887a5.026,5.026,0,0,1,.739,1.578,19.137,19.137,0,0,0,1.044,2.638,3.193,3.193,0,0,1,.357,2.934,47.676,47.676,0,0,0-.083,6.585,83.906,83.906,0,0,1,0,8.455,80.979,80.979,0,0,0-.09,11.906c.28,4.477.408,10.441.325,12.8-.042,1.038-.035,4.2,0,7.044.064,2.841.077,5.5.032,5.945-.013.44.032,2.25.138,4.056.424,7.5.5,12.372.228,13.343a20.854,20.854,0,0,0-.466,2.87,7.438,7.438,0,0,1-.964,3.143c-.826,1.314-.881,1.665-.588,5.139C461.824,180.585,461.329,181.206,460.4,180.463Z"
        transform="translate(-260.351 120.429)" fill="#fff" fill-rule="evenodd" />
      <path id="Path_1008" data-name="Path 1008"
        d="M408.13,161.383c-1.639-.656-2.818-4.081-3.188-9.271-.084-1.6-.537-5.338-.935-8.3-.428-2.934-.9-8.275-1.1-11.9l-.344-6.575,1.205-4.113c1.212-4.046,1.231-4.174,1.006-7.8-.183-3.014-.151-3.885.264-4.624.6-1.17,1.661-1.179,2.333-.071.321.559.463,1.642.485,4.152.055,2.96.164,3.628.884,5.412a9.35,9.35,0,0,1,.787,4.933c-.035,3.9,1.025,18.8,1.861,26.143.849,7.086.7,9.834-.6,11.344A1.9,1.9,0,0,1,408.13,161.383Z"
        transform="translate(-378.78 159.648)" fill="#fff" fill-rule="evenodd" />
      <path id="Path_1009" data-name="Path 1009"
        d="M438.953,124.567c-.28-1.658-.2-8.021.132-8.686a.937.937,0,0,1,.572-.469c.219-.026.2.1-.058.318-.376.292-.367.353.1.3.434-.048.54.347.8,2.449C441.1,123.359,439.731,128.77,438.953,124.567Z"
        transform="translate(-298.615 176.248)" fill="#fff" fill-rule="evenodd" />
      <path id="Path_1010" data-name="Path 1010"
        d="M440.3,147.15c-.492-.758-1.616-6.957-2.053-11.45a29.385,29.385,0,0,1-.071-6.565,46.228,46.228,0,0,0,.251-6.511c-.042-2.06.051-5.171.173-6.874.154-1.739.328-4.673.4-6.588.151-4.274.321-5.579,1.08-7.478a7.59,7.59,0,0,0,.543-1.877c-.087-.771.549-.122.845.845A108.927,108.927,0,0,1,444,114.24c1.218,8.728,1.285,9.628,1.015,13.976-.144,2.082-.267,4.917-.27,6.292a20.379,20.379,0,0,1-1.761,9.246C441.632,147.346,440.973,148.172,440.3,147.15Z"
        transform="translate(-300.304 140.961)" fill="#fff" fill-rule="evenodd" />
      <path id="Path_1011" data-name="Path 1011"
        d="M499.138,165.94a5.427,5.427,0,0,1-1.17-2.211c-.649-2.32-1.6-11.984-1.79-18.067-.071-2.867-.424-7.288-.794-9.827a63.227,63.227,0,0,1-.556-7.128c.055-1.359.006-4.088-.087-6.026a60.279,60.279,0,0,1,.064-10.663c.142-1.192.36-4.03.476-6.286a57.635,57.635,0,0,1,.556-5.939c.418-2.333.386-3.641-.235-9.236-.588-5.383-.492-6.463.617-6.623.553-.08.9.119,1.208.749.3.527,1.086,5.775,2.189,14.066,1.459,10.978,1.748,13.847,1.732,17.222-.026,2.208.032,5.643.164,7.648a33.088,33.088,0,0,1,.045,4.007c-.093.225.19,3.487.578,7.266.418,3.776.758,8.519.8,10.573s.231,5.3.383,7.227c.546,6.6-.013,11.649-1.4,12.915C500.86,166.544,500,166.667,499.138,165.94Z"
        transform="translate(-175.159 106.543)" fill="#fff" fill-rule="evenodd" />
      <path id="Path_1012" data-name="Path 1012"
        d="M486.717,259.809a5.653,5.653,0,0,1-.662-1.745,31.829,31.829,0,0,0-.887-3.188c-.855-2.629-1.382-7.674-1.671-15.625-.148-3.866-.472-9.059-.752-11.595a110.153,110.153,0,0,1-.5-14.689c.064-6.488.125-7.905.591-10.21.212-1.183.553-2.912.729-3.869a8,8,0,0,1,1.134-2.757c.762-1.022.752-1.115.4-5.4a52.391,52.391,0,0,1-.19-5.646,52.5,52.5,0,0,0,0-5.948c-.1-2.555-.2-6.051-.2-7.742a63.045,63.045,0,0,0-4.261-20.911c-.832-1.848-.935-2.494-1.247-6.716a72.48,72.48,0,0,1,.386-16.01c.729-4.435.765-8.915.083-17.01-.63-7.947-.334-14.587.82-18.594a16.33,16.33,0,0,0-.048-4.943c-.347-3.689-.337-3.876.318-4.483.678-.636.675-.668.061-1.7-.758-1.2-1.549-7.465-1.562-12.1-.01-6.292.058-8.522.3-10.052a45.608,45.608,0,0,0,.19-5.341c-.064-3.969.534-7.607,1.453-8.9a6.612,6.612,0,0,0,1.221-3.673c.193-1.649.443-1.928,1.51-1.639.389.112.562.566.7,1.8a75.473,75.473,0,0,1-.2,10.884,8.431,8.431,0,0,0,.835,5.826c.823,1.787.842,1.941.778,5.611-.016,2.1-.048,4.637-.058,5.672a49.194,49.194,0,0,1-1.485,10.341,5.409,5.409,0,0,1-1.343,2c-.839.627-.858.723-.726,3.9A71.374,71.374,0,0,0,484.6,99.9a57.068,57.068,0,0,1,1.658,9.583c.951,8.567.925,13.989-.058,19.23-.6,3.072-.681,7.967-.219,14.677a56.943,56.943,0,0,1,.206,6.366c-.1.2.344,5.065,1.009,10.782,1.514,13.076,1.912,20.358,1.478,25.477-.453,5.216-1.08,8.04-1.829,8.343-.633.228-.633.228.627,2.812,1.289,2.613,1.655,7.864,1.481,21.284,0,1.375.337,6.974.755,12.44,1.012,12.5.987,16.232-.141,21.3-.485,2.121-.967,4.554-1.125,5.386C488.064,259.816,487.489,260.536,486.717,259.809Z"
        transform="translate(-209.699 7.622)" fill="#fff" fill-rule="evenodd" />
      <path id="Path_1013" data-name="Path 1013"
        d="M430.754,175.873a24.917,24.917,0,0,1-.961-4.435,22.99,22.99,0,0,1-.411-6.527c.331-3.512-.53-10.431-2.249-18.317-1.472-6.755-1.874-9.811-2.626-19.433-.55-6.922-.524-9.522.135-10.348.251-.276.318-.5.164-.488-.122.016-.106-.112.067-.257.315-.254.463-8.224.3-15.374a16.454,16.454,0,0,1,.469-5.373A13.158,13.158,0,0,0,426,90.144c-.177-3.268.1-5.614.694-5.868.267-.122,1.24,1.3,1.812,2.805.386.926.183,5.582-.289,6.135-.215.309-.231,1,.032,2.253.2.98.5,4.547.656,7.88s.35,7.131.463,8.4a31.711,31.711,0,0,1,.068,3.439,4.035,4.035,0,0,0,.524,2.195c.543.942.678,2.147,1.234,9.413.35,4.563.9,9.8,1.189,11.579a33.989,33.989,0,0,1,.45,5.739c-.039,1.353.01,4.319.068,6.536a49.715,49.715,0,0,1-.119,6.276,35.046,35.046,0,0,0,.289,7.95l.6,5.727-.765,2.433C431.847,176.41,431.436,176.924,430.754,175.873Z"
        transform="translate(-331.072 107.318)" fill="#fff" fill-rule="evenodd" />
      <path id="Path_1014" data-name="Path 1014"
        d="M398.018,146.9c-.414-.791-.321-2.008.5-6.755.431-2.577.263-10.171-.35-14.317-.19-1.266-.611-4.673-.945-7.584-.707-5.977-.575-8.323.537-10.933a8.67,8.67,0,0,0,.649-3.181c-.084-2.892.154-4.962.62-4.984.251-.013.459.443.569,1.372.373,3.066.935,4.939,1.69,5.678.62.595.881,1.42,1.568,5.126,2.153,11.762,2.548,17.755,1.6,24.285-.53,3.67-3.188,10.878-4.332,11.685A1.418,1.418,0,0,1,398.018,146.9Z"
        transform="translate(-391.581 140.25)" fill="#fff" fill-rule="evenodd" />
      <path id="Path_1015" data-name="Path 1015"
        d="M494.464,164.286c-.437-.546-1.253-6.5-1.282-9.281a11.231,11.231,0,0,0-.852-5.135c-.781-1.98-.926-3-1.774-12.324-1.035-11.032-1.035-11.032.607-12.311l.839-.623-.8-.755c-1.433-1.346-1.716-4.162-1.88-19.767-.045-2.658-.08-6.941-.119-9.538-.035-2.561-.087-6.437-.138-8.593-.19-7.054.212-9.072,1.787-9.278,1.083-.119,2.362,3.776,3.741,11.421,1.35,7.645,1.555,10.065,1.6,21.174-.006.784.045,3.782.09,6.72.1,5.749-.1,6.713-1.677,8.047l-.884.755,1.073.662,1.044.668.987,8.031c1.343,11,1.327,12.813-.09,16.7-1.08,2.966-1.093,3.127-.623,4.544a12.306,12.306,0,0,1,.344,7.321c-.4,1.2-.749,1.71-1.183,1.758A1,1,0,0,1,494.464,164.286Z"
        transform="translate(-187.411 90.513)" fill="#fff" fill-rule="evenodd" />
      <path id="Path_1016" data-name="Path 1016"
        d="M479.02,245.152c-.109-2.115-.145-4.962-.048-6.35.736-10.319.7-14.008-.321-26.888-1.179-15.149-1.186-19.719-.077-23,.595-1.694.608-2.134.08-8.307-.421-4.93-.459-6.678-.177-7.243.309-.6.26-1.032-.183-2.484-2-6.164-3.291-18.105-3.021-27.778.077-3.265-.032-8.2-.241-10.933a39.154,39.154,0,0,1,.006-8.14c.212-1.745.5-4.753.665-6.681.132-1.925.4-4.271.578-5.229s.305-1.787.292-1.88c-.177-.482-1.755-12.173-2.169-15.885a136.7,136.7,0,0,1-.8-15.721c.032-1.131.087-3.172.122-4.554s.19-5.061.344-8.179c.125-3.111.267-6.916.279-8.484.019-1.536.048-4.075.035-5.608a27.045,27.045,0,0,1,1.5-9.371c.492-1.494.909-2.793.9-2.918a4.721,4.721,0,0,1,1.951-2.156,1.927,1.927,0,0,1,1.186.527c.935.8,1.838,7.247,1.485,10.541-.141,1.269-.251,3.692-.247,5.412s-.058,4.83-.141,6.906-.219,5.347-.293,7.234c-.067,1.915-.164,4.743-.241,6.286-.077,1.575-.125,4.242-.122,5.964A39.444,39.444,0,0,1,479.48,89a21.613,21.613,0,0,0-.4,3.77c.029,5.347-.749,15.83-1.2,16.569-.132.231.061.839.415,1.488.4.739.884,2.876,1.507,6.533.488,2.982,1.125,6.729,1.395,8.33a116.19,116.19,0,0,1,.861,18.218c-.074,2.42.029,7.012.2,10.216.35,5.409.305,6.135-.386,10.062-.813,4.538-1.539,7.311-2.086,7.745-.228.183-.2.463.145,1.019.656,1.118,1.539,6.81,1.549,10,.007,2.6.016,2.69,1.163,4.567,1.748,2.78,2.089,5.56,1.639,12.813-.183,3.117-.254,7.854-.116,10.5a76.357,76.357,0,0,1-1.061,16.711c-.427,2.9-.954,6.62-1.115,8.265-.424,3.8-1.526,11.376-1.793,12.347-.116.389-.389.733-.575.752C479.345,248.937,479.207,247.951,479.02,245.152Z"
        transform="translate(-221.589 3.474)" fill="#fff" fill-rule="evenodd" />
      <path id="Path_1017" data-name="Path 1017"
        d="M409.878,203.942a19.182,19.182,0,0,1-1.122-4.332c-.373-2.163-.987-5.113-1.372-6.6a87.935,87.935,0,0,1-2.9-17.5c-.768-13.854-1.9-27.521-2.523-30.632-.762-3.683-.614-4.656.845-6.115.845-.832.842-.864.241-1.851-.495-.836-.578-1.536-.617-4.721-.045-5.47-.231-7.648-.813-9.7-.588-2.115-.752-8.77-.485-19.51a250.809,250.809,0,0,0-.4-25.728c-.331-5.547-.53-10.557-.479-11.142.267-3.268,4.936-3.377,6.074-.141,1.166,3.233,1.96,22.752,1.523,37.178-.08,2.388-.119,6.671-.106,9.506.109,8.943.093,9.168-.614,11.087a5.508,5.508,0,0,0-.408,3.474,21.388,21.388,0,0,1-1.189,9.133l-.7,1.5,1.3,1.131c1.465,1.282,1.774,2.1,2.927,7.391.826,3.676,1.954,19.114,1.841,24.983a45.936,45.936,0,0,0,.675,8.163c1.343,8.76,1.366,9.111,1,14.063-.739,9.776-.89,10.721-1.883,10.791A1.292,1.292,0,0,1,409.878,203.942Z"
        transform="translate(-383.919 61.565)" fill="#fff" fill-rule="evenodd" />
      <path id="Path_1018" data-name="Path 1018"
        d="M448.715,207.236c-.556-.5-.665-.929-.787-3.451-.084-1.588-.145-4.4-.132-6.247.042-3.011-.055-3.593-.723-5.4a31.329,31.329,0,0,1-2.1-9.567,32.042,32.042,0,0,0-.948-6,65.64,65.64,0,0,1-1.665-13.59,99.7,99.7,0,0,1,1.343-11.89,40.743,40.743,0,0,0,.534-6.479,10.556,10.556,0,0,1,1.433-6.546c.633-1.07.659-1.417.376-3.953-.7-6.279-.678-16.55.061-20.609a4.094,4.094,0,0,0-.151-2.487c-.91-2.278-.993-5.871-.225-10.778.437-2.552.816-4.785.9-4.92.453-.99.331-6.328-.305-13.741-.607-6.884-.691-9.066-.431-11.5a53.658,53.658,0,0,0,.013-7.517l-.283-4.509,1.227-3.892c1.482-4.7,1.62-4.875,2.619-4.329.668.363.765.665,1.038,3.14a10.387,10.387,0,0,0,1.009,4.02c.874,1.658,1.494,7.536,1.189,11.546a53.99,53.99,0,0,0,.254,12.183c.919,8.571.951,12.511.148,16.576-.376,1.954-.81,4.538-.99,5.746a21.989,21.989,0,0,1-3.088,8.294c-.463.617-.476,1.337-.116,5.148.206,2.42.424,5.527.482,6.9a98.721,98.721,0,0,1-.427,13.073c-.3,1.224-.247,1.436.489,2.7,1.613,2.7,1.915,7.115.89,13.4a67.992,67.992,0,0,0-1.163,12.652c.029,3.377.19,4.268,1.758,11.325.942,4.248,1.025,6.151.37,9.258-.141.7-.453,3-.691,5.055-.35,3.075-.357,4.142,0,5.637.241,1.038.495,2.481.578,3.223a22.106,22.106,0,0,1-1.4,7.417l-.421.707Z"
        transform="translate(-290.696 30.599)" fill="#fff" fill-rule="evenodd" />
      <path id="Path_1019" data-name="Path 1019"
        d="M441.639,160.314c-.2-.1-.36-.993-.4-2.523a76.67,76.67,0,0,0-1.78-12.671,73.511,73.511,0,0,1-.945-14.734c.138-3.554,0-11.585-.325-17.026-.177-2.989-.273-6.983-.206-8.9a55.458,55.458,0,0,0-.177-5.836c-.331-2.969-.183-4.737.832-9.422a38.046,38.046,0,0,0,.845-6.511c.016-1.536.2-4.374.4-6.305.443-4.464.559-5.948.463-6.25-.132-.363.366-1.514.675-1.546.495-.058,1.42,11.392,1.16,14.114-.228,2.185-.212,2.622.235,3.262.774,1.041,2.233,13.622,2.189,18.857.019,2.156.148,6.151.357,8.882.18,2.735.3,5.2.231,5.453-.035.254-.048,2.667-.006,5.322.238,11.717.157,16.357-.411,19.426-.312,1.694-.713,3.994-.9,5.142-.154,1.144-.466,2.87-.672,3.831a19.468,19.468,0,0,0-.4,3.487,9.989,9.989,0,0,1-.247,2.282,1.658,1.658,0,0,0-.164.8C442.648,160.359,442.34,160.706,441.639,160.314Z"
        transform="translate(-301.134 72.607)" fill="#fff" fill-rule="evenodd" />
      <path id="Path_1020" data-name="Path 1020"
        d="M503.645,146.283c-.379-.877-.884-9.368-.932-14.6-.029-10.971-.215-14.346-1.06-19.989-.466-3.091-1.424-10.862-2.131-17.235l-1.286-11.585.485-3.532c.829-5.788,2.417-7.851,3.953-5,.63,1.144.877,2.834,2.709,19.053,2.863,25.529,2.953,27.194,1.883,37.281-.267,2.671-.684,7.115-.942,9.866-.334,3.766-.588,5.135-1.048,5.521C504.371,146.916,503.908,146.967,503.645,146.283Z"
        transform="translate(-167.007 82.531)" fill="#fff" fill-rule="evenodd" />
      <path id="Path_1021" data-name="Path 1021"
        d="M415.331,214.379a12.476,12.476,0,0,1-.624-2.217,25.5,25.5,0,0,0-1.125-3.631c-.774-1.919-1.016-3.8-3.535-29.35-1.324-13.629-1.62-17.418-1.469-19.719a90.248,90.248,0,0,1,1.2-10.059c.44-2.24.4-2.581-.142-4.085-.46-1.327-.585-2.442-.659-5.656-.026-2.221-.357-7.725-.7-12.26a134.347,134.347,0,0,1-.379-18.96c.247-3.972.154-5.653-1.109-18.443-1.186-11.829-1.366-16.569-.826-21.293a4.315,4.315,0,0,0-.328-2.937c-1.138-2.349-1.064-4.236.537-10.142.556-2.034,1.192-4.483,1.433-5.418.463-1.742,1.327-2.715,1.944-2.221.858.688.354,16.743-.556,18.128a3.038,3.038,0,0,0,.331,1.841c2.837,7.263,3.053,8.053,3.39,13.369.148,2.738.733,9.123,1.256,14.137.9,8.355.964,9.538.707,14.011-.17,2.68-.254,5.884-.247,7.073a28.5,28.5,0,0,1-.861,8.047,20.78,20.78,0,0,0-.585,4.322c-.074,1.575-.293,4.415-.55,6.324-.225,1.935-.614,5.482-.877,7.893-.235,2.4-.5,4.5-.553,4.631a2.322,2.322,0,0,0,.463,1.044c1.054,1.607,2.227,5.421,2.857,9.39,1.041,6.553,3.728,30.2,4.014,35.34a53.62,53.62,0,0,1,.08,5.781c-.1.543-.27,2.661-.36,4.676a27.388,27.388,0,0,1-.778,5.408,16.217,16.217,0,0,0-.656,3.108C416.574,213.74,415.736,214.929,415.331,214.379Z"
        transform="translate(-373.695 26.724)" fill="#fff" fill-rule="evenodd" />
      <path id="Path_1022" data-name="Path 1022"
        d="M463.973,95.922c-.537-2.85-.456-6.087.2-6.941.3-.379.431-.36.807.225.633.9,1.1,7.671.6,8.542C464.847,99.02,464.529,98.679,463.973,95.922Z"
        transform="translate(-243.635 117.184)" fill="#fff" fill-rule="evenodd" />
      <path id="Path_1023" data-name="Path 1023"
        d="M401.2,135.1a6.684,6.684,0,0,1-.729-2.082,10.65,10.65,0,0,0-1.234-2.867,7.611,7.611,0,0,1-1.292-3.985c-.055-1.057-.437-4.338-.868-7.308-1.388-10.181-1.649-12.225-1.819-15.583a65.263,65.263,0,0,1,1.067-15.849c.569-2.3,2.153-6.122,2.612-6.27a1.347,1.347,0,0,1,.787.177c.386.2.572,1.436,1.009,6.4,1.565,18.584,2.086,23.951,2.757,28a84.006,84.006,0,0,1,.993,8.519c.254,3.818.209,4.133-.517,5.791a7.235,7.235,0,0,0-.672,3.4C403.446,136.452,402.337,137.32,401.2,135.1Z"
        transform="translate(-395.161 100.409)" fill="#fff" fill-rule="evenodd" />
      <path id="Path_1024" data-name="Path 1024"
        d="M423.665,230.942c-.656-.835-.72-1.424-1.269-8.063a77.622,77.622,0,0,0-1.192-9.6c-.627-2.561-1.35-12.469-1.253-16.958.045-1.289-.1-5.155-.331-8.635a77.926,77.926,0,0,1-.141-8.593c.109-1.266.17-3.84.112-5.775a20.974,20.974,0,0,1,.366-5.142,10.053,10.053,0,0,0,.251-3.41,17.138,17.138,0,0,1,.068-3.609,44.2,44.2,0,0,0-.17-7.182c-.389-5.216-.392-7.783-.026-10.39.135-1.051-.01-1.784-.974-4.277-1.559-4.146-2.012-8.51-1.661-16.094.3-6.639.357-11.469.158-16.926a41.946,41.946,0,0,1,.119-7.4,22.3,22.3,0,0,0,.408-3.927c.058-2.295.2-2.966.852-3.885.678-.951.778-1.462.688-3.394a50.4,50.4,0,0,1,.228-5.286,34.447,34.447,0,0,0-.337-8.413c-.36-2.966-.948-6.848-1.3-8.622-.729-3.77-1.089-14.625-.7-20.432.164-1.9.292-4.978.341-6.8.1-3.641.183-4.277.752-5.09a1.183,1.183,0,0,1,1.951.1,17.2,17.2,0,0,1,.983,3.207c.357,1.526,1.07,4.3,1.565,6.215a30.53,30.53,0,0,1,.977,6,182.336,182.336,0,0,1-.749,24.848,25.467,25.467,0,0,0-.257,4.724,17.686,17.686,0,0,1-.1,3.612c-.122,1.141-.267,3.506-.318,5.3-.061,2.857.029,3.378.54,4.322s.62,1.623.646,4.689c.032,1.97.209,6.112.363,9.194.312,6.2.321,10.515.029,18.314-.122,2.86-.17,6.655-.158,8.471a15.046,15.046,0,0,1-1.125,6.794c-1.183,3.448-1.2,3.545-.874,6.514a83.57,83.57,0,0,1,.106,11.948c-.119,2.047,1.167,10.232,1.813,11.54,1.1,2.256,2.526,17.125,2.732,28.029.045,2.658.154,6.466.28,8.423a31.023,31.023,0,0,1-.3,8.645,80.347,80.347,0,0,0-.839,12.459c.109,2.4-.562,5.386-1.244,5.46C424.487,231.851,424.037,231.466,423.665,230.942Z"
        transform="translate(-346.098 -7.131)" fill="#fff" fill-rule="evenodd" />
      <path id="Path_1025" data-name="Path 1025"
        d="M466.091,132a2.21,2.21,0,0,1-.662-1.179,20.01,20.01,0,0,0-.8-2.7c-.916-2.622-1.829-10.849-1.674-15.374.18-6.283.251-10.454.119-14.448a55.11,55.11,0,0,1,.591-10.489c.524-3.159.546-4.663.183-10.48-.267-4.666-.241-6.109.1-7.272.469-1.43,1.472-2.262,2.089-1.768,1.067.852,1.78,7.285,1.176,10.608-.6,3.294-.594,4.512.135,6.279,2.143,5.209,2.519,7.767,2.513,16.441-.045,10.335-.206,13.953-.826,18.25-.228,1.591-.447,3.869-.534,5.068-.119,2.018-1.17,6.675-1.629,7.321C466.762,132.4,466.405,132.282,466.091,132Z"
        transform="translate(-245.146 71.643)" fill="#fff" fill-rule="evenodd" />
      <path id="Path_1026" data-name="Path 1026"
        d="M469.678,153.253c-.293-.656-.286-1.44.051-8.272.225-4.47.048-11.151-.595-23.446-.276-5.01-.443-10.187-.511-14.188.006-.784-.186-4.489-.447-8.246-.774-12.626-.623-16.65.778-21.785.6-2.195,1.276-4.306,1.453-4.7a8.338,8.338,0,0,0,.305-2.883c0-1.157.128-3.927.321-6.141.225-2.185.392-4.364.434-4.836.051-.662.244-.9.742-.929.341-.039.472.042.3.154-.3.129-.247.312.164.64.649.492.813,3.1.45,7.433a50.147,50.147,0,0,0,.665,12.482c.665,2.9.887,9.136.726,22.367-.116,10.814-.064,17.2.151,23.935a122.657,122.657,0,0,1-.45,18.8,46.182,46.182,0,0,1-2.471,9.323C471.281,153.889,470.047,154.056,469.678,153.253Z"
        transform="translate(-234.574 48.76)" fill="#fff" fill-rule="evenodd" />
      <path id="Path_1027" data-name="Path 1027"
        d="M457.629,95.835c-.595-.842-.82-5.7-.389-8.034.627-3.39,1.192-4.769,1.861-4.685.765.135.99,1.864.835,6.421-.1,3.58-.328,4.952-.89,6.077C458.561,96.606,458.191,96.648,457.629,95.835Z"
        transform="translate(-258.251 104.757)" fill="#fff" fill-rule="evenodd" />
      <path id="Path_1028" data-name="Path 1028"
        d="M497.946,135.835a1.438,1.438,0,0,1-.479-1.212c.048-.415.013-3-.074-5.765-.161-3.978-.3-5.261-.675-6.074-.971-1.976-2-8.387-2.185-13.494-.331-8.333-.492-16-.4-16.524.064-.28-.106-3.509-.354-7.137a201.886,201.886,0,0,1-.5-21.5c.167-7.5.354-9.229,1-9.3,1.019-.112,1.436.829,2.066,4.791.366,2.182,1.276,7.272,2.005,11.325A135.979,135.979,0,0,1,500.9,95.6c.023,3.583.145,8.079.27,10.049a58.294,58.294,0,0,1-.775,12.761,25.335,25.335,0,0,0-.292,7.24c.5,4.489-.129,9.853-1.221,10.454A.908.908,0,0,1,497.946,135.835Z"
        transform="translate(-178.16 42.127)" fill="#fff" fill-rule="evenodd" />
      <path id="Path_1029" data-name="Path 1029"
        d="M428.052,133.44c-.874-1.093-1.565-3.647-2.86-10.547-.948-5.155-1.192-7.07-1.15-8.95.042-1.321.022-4.011-.007-5.981-.061-1.967-.116-5.28-.1-7.346.068-4.766-.093-10.447-.463-17.17-.238-4.1-.219-5.64.138-6.935a5.293,5.293,0,0,0,.154-2.834,103.529,103.529,0,0,1-.633-12.2c.1-.511.328-.723.8-.713.534,0,.762.353,1.224,1.992a33.877,33.877,0,0,1,.913,4.563,37.3,37.3,0,0,0,.839,4.448c1.363,4.952,2.748,10.653,3.13,12.989.331,2.124.778,12.376.714,17.141-.032,1.976-.023,6.013.048,8.918.251,13.809.235,15.094-.244,17.842-.517,2.937-1.285,5.338-1.716,5.386C428.682,134.06,428.342,133.784,428.052,133.44Z"
        transform="translate(-333.338 55.281)" fill="#fff" fill-rule="evenodd" />
      <path id="Path_1030" data-name="Path 1030"
        d="M431.642,82.349c-.016-.154.132-.235.3-.157.2.071.337.212.347.305.006.061-.109.138-.3.157A.337.337,0,0,1,431.642,82.349Z"
        transform="translate(-314.423 102.654)" fill="#fff" fill-rule="evenodd" />
      <path id="Path_1031" data-name="Path 1031"
        d="M436.25,208.687c-.4-.521-1.771-14.551-1.674-17.347.132-4.743-.183-8.121-.987-10a11.55,11.55,0,0,1-.8-3.824,30.9,30.9,0,0,1,.427-6.312,45.366,45.366,0,0,0-.174-8.622c-.267-3.255-.418-7.436-.373-9.287a19.7,19.7,0,0,0-.087-3.622c-.257-.315-.961-12.041-.964-16.017,0-1.722-.006-4.29-.042-5.727a8,8,0,0,1,.729-4.149,6.706,6.706,0,0,0,.665-3.895c-.048-1.279-.048-2.687-.035-3.127.077-.73.077-2.7,0-10.486a16.263,16.263,0,0,0-.482-4.332c-.948-2.619-1.1-9.082-.463-19.985.064-1.385-.373-9.57-.987-18.205-1.2-16.994-1.71-30.086-1.321-33.354.308-2.288,1.237-4.647,2.079-5.241a4.282,4.282,0,0,1,1.514-.479c.8-.09,1.041.071,1.581,1.012.71,1.3,1.285,7.34,1.745,18.812.135,3.773.585,10.923.945,15.862,1.128,14.966,1.34,20.265,1.006,24.59-.1,1.356-.193,4.467-.174,6.906-.01,4.133-.5,8.166-1.112,8.609a9.106,9.106,0,0,0-1.006,1.645c-.678,1.234-.768,1.838-.694,5.023.029,1.97-.074,4.988-.228,6.694a13.159,13.159,0,0,0,.01,4.039,12.779,12.779,0,0,1,.443,2.581,3.755,3.755,0,0,0,.868,2.471c1.218,1.366,1.693,3.692,1.681,8.359.023,4.727.087,6.44.72,16.107.241,3.856.434,8.124.431,9.5s.167,4.052.341,5.91a48.547,48.547,0,0,1-.129,11.254,10.511,10.511,0,0,0-.2,2.683c.122,1.115-.293,2.446-1.69,5.386-.662,1.356-.726,1.9-.559,5.948.08,2.433.337,6.16.543,8.3a22.172,22.172,0,0,1,.222,4.236,37.748,37.748,0,0,0-.913,6.736C437.063,208.97,436.825,209.372,436.25,208.687Z"
        transform="translate(-319.043 -24.651)" fill="#fff" fill-rule="evenodd" />
      <path id="Path_1032" data-name="Path 1032"
        d="M461.364,195.148c-.048-.151-.3-2.124-.585-4.412-.5-4.264-2.037-12.735-2.4-13.2a9.039,9.039,0,0,1-.068-2.561c.055-1.475-.434-7.308-1.427-16.528-1.3-12.035-1.5-14.641-1.311-16.916.116-1.485.218-4.219.164-6.125-.067-5.126.267-7.761,1.276-9.689,1.292-2.462,2.192-10.139,1.838-15.859a27.609,27.609,0,0,1,.026-5.139,7.117,7.117,0,0,0-.344-3.374A49.971,49.971,0,0,1,457.318,90.4c.376-4.236.328-9.49-.2-18.7a137.758,137.758,0,0,1-.064-17.244,81.721,81.721,0,0,0-.174-19.047c-.791-6.861-.684-7.877.942-9.027.723-.517.884-.5,2-.064a4.919,4.919,0,0,1,1.861,1.514c2.33,3.532,3.075,13.622,2.076,27.48-.373,5.113-.328,7.767.254,20.635a135.6,135.6,0,0,1-.119,17.546c-.337,2.886-1.616,8.288-2.246,9.39-.607,1.009-.614,1.228.023,6.418.672,5.184.672,5.466.074,9.416-.543,3.567-.533,4.223-.109,5.209.852,2.034,1,6.151.739,20.77-.032,1.411.54,7.7,1.318,14.41,1.433,12.649,1.61,16.511.823,19.008a16.968,16.968,0,0,0-.482,4.123,28.552,28.552,0,0,1-.543,4.975,14.61,14.61,0,0,0-.363,3.487,12.866,12.866,0,0,1-.154,2.863c-.231,1.279-.44,1.677-.9,1.729C461.727,195.328,461.408,195.27,461.364,195.148Z"
        transform="translate(-261.58 -21.685)" fill="#fff" fill-rule="evenodd" />
      <path id="Path_1033" data-name="Path 1033"
        d="M491.682,125.377c-.941-.868-1.208-1.87-1.787-6.784a48.766,48.766,0,0,0-1.205-6.63c-.562-1.69-.588-2.188-.334-5.283.164-1.9.337-5.142.357-7.211s.17-4.682.293-5.823c.273-2.629.45-7.253.488-12.546.022-2.32.087-4.862.154-5.653s.084-3.2.032-5.36-.038-5.161.035-6.733c.048-1.539.157-4.528.238-6.6.135-4.428.453-5.527,1.565-5.649,1.051-.119,1.645,1.006,2.979,5.678a58.161,58.161,0,0,1,1.967,16.312c-.08,1.825-.19,6.189-.206,9.731-.045,3.541-.225,8.134-.4,10.219-.209,2.089-.357,4.422-.363,5.206-.045,3.262-.263,8.076-.4,9.123a38.175,38.175,0,0,1-1.514,4.708l-1.359,3.561.543,4.043c.347,2.841.414,4.306.19,5.084C492.624,125.962,492.415,126.045,491.682,125.377Z"
        transform="translate(-189.218 33.879)" fill="#fff" fill-rule="evenodd" />
      <path id="Path_1034" data-name="Path 1034"
        d="M398.748,118.736a2.151,2.151,0,0,0-.26-.8,15.625,15.625,0,0,1-.093-3.734c.064-1.748.144-3.869.1-4.74-.01-.842-.042-2.677.016-4.052a11.162,11.162,0,0,0-.877-4.971,35.7,35.7,0,0,1-1.183-4.3c-.177-1.019-.569-2.651-.871-3.664-.6-2.057-.575-3.336.254-6.058,1.147-3.8,1.835-8.693,2.266-16.19.434-7.468,2.491-11.125,5.145-9.2,1.52,1.109,1.938,6.321,1.2,14.551-.72,7.95-1.864,13.057-3.635,16.232-.829,1.475-.977,4.692-.37,7.465.964,4.281.392,16.99-.819,18.922C399.159,118.9,398.645,119.208,398.748,118.736Z"
        transform="translate(-395.165 54.74)" fill="#fff" fill-rule="evenodd" />
      <path id="Path_1035" data-name="Path 1035"
        d="M450.552,74.1c-.472-.575-.893-5.788-.591-6.729.389-1.016,1.057-1.494,1.138-.752.032.276.209.476.366.46.337-.039.758,3.172.623,5.065C452,73.374,450.992,74.676,450.552,74.1Z"
        transform="translate(-274.096 67.451)" fill="#fff" fill-rule="evenodd" />
      <path id="Path_1036" data-name="Path 1036"
        d="M464.234,144.526c-.482-.386-.858-3.223-.575-4.351.328-1.26.231-9.2-.167-13.349a68.016,68.016,0,0,1-.222-7.648c.051-2.073.132-5.306.106-7.211.013-1.88.112-5.492.209-8.008.129-2.519.238-5.756.257-7.26a28.763,28.763,0,0,1,.925-8.057c.3-.72.819-2.468,1.224-3.892.723-2.523.733-2.712.26-8.953-.405-5.621-.4-6.688.061-9.053a18.446,18.446,0,0,0,.366-4.017,28.572,28.572,0,0,0-2.15-6.681c-.492-1.041-.585-1.909-.665-6a78.423,78.423,0,0,1,.472-11.26c.09-.607.193-2.214.228-3.6.093-2.545.684-4.833,1.536-5.617,1.244-1.2,3.233-.514,4.264,1.469.826,1.5,1.086,5.826.6,9.638a60.95,60.95,0,0,0-.379,6.459c.058,7.009.016,8.047-.347,9.027a33.142,33.142,0,0,0-1.324,5.28,6.662,6.662,0,0,0,.543,2.349c.594,1.408.633,1.748.337,4.441a29.589,29.589,0,0,0,.006,5.7,26.752,26.752,0,0,1-.308,8.8,9.654,9.654,0,0,0,.6,6.228c.791,2.041.816,3.133.321,12.205-.119,2.613-.26,6.418-.251,8.481-.048,10.839-.222,12.674-1.642,17.652a20.9,20.9,0,0,0-1.147,6.578c-.045,5.8-.119,6.839-.63,8.712-.45,1.584-.688,1.986-1.3,2.115A1.592,1.592,0,0,1,464.234,144.526Z"
        transform="translate(-244.475 -15.073)" fill="#fff" fill-rule="evenodd" />
      <path id="Path_1037" data-name="Path 1037"
        d="M452.664,103.318c-.8-1.038-2.532-9.268-3.108-14.744-.43-4.432-1.1-15.5-1.051-18.2.084-6.019.456-9.442,1.356-11.765a44.877,44.877,0,0,0,1.572-6.437,41.307,41.307,0,0,1,1.035-4.779c.276-.627.337-.633.765-.177.7.7,2.359,17.019,2.1,20.68-.2,2.683.071,9.384.787,18.947a47.484,47.484,0,0,1,.1,6.562c-.125.829-.264,2.127-.3,2.915-.087,2.327-.771,5.19-1.5,6.209C453.711,103.453,453.027,103.781,452.664,103.318Z"
        transform="translate(-277.095 24.586)" fill="#fff" fill-rule="evenodd" />
      <path id="Path_1038" data-name="Path 1038"
        d="M441.376,120.777c-.257-.63-2-13.491-2.821-20.914a88.106,88.106,0,0,1-.672-10.57,126.435,126.435,0,0,0-.633-19.812c-.729-7.15-.762-7.992-.369-11.228.26-1.909.6-5.013.835-6.858a26.5,26.5,0,0,1,.9-4.637,5,5,0,0,0,.453-1.835,24.2,24.2,0,0,1,.768-5.219c.183-.585.363-.668.855-.472.591.247.652.524.868,3.882.129,1.989.9,10.888,1.723,19.751,1.1,11.556,1.5,17.18,1.453,19.876-.2,8.664-.174,11.7.045,13.645a45.357,45.357,0,0,1,.016,5.791c-.116,2.079-.244,5.161-.3,6.922a38.972,38.972,0,0,1-.739,6.029c-.328,1.571-.7,3.522-.8,4.38-.19,1.115-.367,1.51-.829,1.562A.851.851,0,0,1,441.376,120.777Z"
        transform="translate(-303.377 7.413)" fill="#fff" fill-rule="evenodd" />
      <path id="Path_1039" data-name="Path 1039"
        d="M401.58,68.377c-.45-.643-1.083-6.909-.762-7.642a1.02,1.02,0,0,1,1.925-.1c.53.861.768,4.644.382,6.25C402.766,68.39,402.068,69.084,401.58,68.377Z"
        transform="translate(-382.845 53.591)" fill="#fff" fill-rule="evenodd" />
      <path id="Path_1040" data-name="Path 1040"
        d="M470.849,107.384a8.507,8.507,0,0,1-.26-2.352,39.026,39.026,0,0,0-1.022-6.4c-1.051-4.673-1.08-4.92-1.083-10.868.006-3.352-.116-8.378-.241-11.215a170.148,170.148,0,0,1-.344-17.492c.093-1.983.225-7.009.3-11.148.109-7.494.415-10.66,1.266-13.446.733-2.429,1.96-3.194,3.452-2.169.916.62.97.832,1.51,4a36.551,36.551,0,0,1,.517,6.643c-.019,1.816-.051,5.2-.042,7.517-.026,2.32-.1,5.3-.209,6.6-.225,2.5-.17,9.757.1,14.705.717,13.79.7,20.149-.055,22.643-.315,1.1-.72,2.552-.89,3.262a50.041,50.041,0,0,0-.771,8.288c.135,1.205-.337,2.041-1.173,2.134C471.34,108.143,471.067,107.953,470.849,107.384Z"
        transform="translate(-234.405 -8.711)" fill="#fff" fill-rule="evenodd" />
      <path id="Path_1041" data-name="Path 1041"
        d="M423.994,67.615c-.392-.739-.887-8.857-.633-10.229.228-1.34.829-1.845,1.575-1.334,1.215.8,1.154,9.548-.042,11.18C424.319,67.988,424.2,68.033,423.994,67.615Z"
        transform="translate(-332.904 44.426)" fill="#fff" fill-rule="evenodd" />
      <path id="Path_1042" data-name="Path 1042"
        d="M401.287,61.8c-.4-.36-.55-1.122-.672-3.268l-.138-2.825,1.051-.17,1.048-.17.035,2.7C402.65,61.214,402.151,62.57,401.287,61.8Z"
        transform="translate(-383.406 43.33)" fill="#fff" fill-rule="evenodd" />
      <path id="Path_1043" data-name="Path 1043"
        d="M424.911,105.2c-.013-1.253-.312-5.351-.665-9.1-.383-3.744-.7-8.564-.749-10.717s-.216-5.3-.309-7.012c-.312-4.5-.534-14.121-.414-18.112a50.078,50.078,0,0,1,.762-6.974,59.57,59.57,0,0,0,.826-7.793c.2-5.813,1.678-13.648,2.719-14.169.916-.479,1.375,0,1.559,1.642a84.463,84.463,0,0,1,.3,14.869c-1.135,9.8-1.109,12.584.263,25.8.688,6.469,1.077,11.4.986,12.257-.1.794-.6,3.043-1.076,4.975-1.356,5.283-1.465,5.984-1.478,8.992,0,2.568-.611,6.048-1.221,7.054a1.426,1.426,0,0,1-.884.476C424.943,107.447,424.927,107.325,424.911,105.2Z"
        transform="translate(-334.123 -10.278)" fill="#fff" fill-rule="evenodd" />
      <path id="Path_1044" data-name="Path 1044"
        d="M412.914,76.511a8.6,8.6,0,0,1-.251-2.259,32.136,32.136,0,0,0-.916-5.437,52.451,52.451,0,0,1-1.1-5.36,125.2,125.2,0,0,1,.906-19.2c.408-2.519,1.8-6.054,2.6-6.739a1.978,1.978,0,0,1,2.931.177c.826,1.253,1.1,5.7.713,11.225-.19,2.805-.411,5.335-.44,5.621-.064.289-.106,2.452-.125,4.8-.019,6.045-1.5,14.41-2.924,16.54C413.566,77.032,413.267,77.16,412.914,76.511Z"
        transform="translate(-361.104 2.601)" fill="#fff" fill-rule="evenodd" />
      <path id="Path_1045" data-name="Path 1045"
        d="M446.151,86.31a15.477,15.477,0,0,1-.392-3.246c-.048-2.153-.164-2.609-1.006-3.988A12.433,12.433,0,0,1,443.2,71.3c.112-1.546.122-5.4.051-8.584s-.1-6.565-.051-7.51a73.18,73.18,0,0,0-.167-14.227c-.582-6.07-.566-8.2.035-10.962.524-2.343.929-3.2,1.906-4.248,1.067-1.122,1.909-1.154,2.867-.132.675.707.707.987,1.636,12.186.508,6.267.845,12.147.784,13-.286,3.352-.43,10.222-.273,13.336.3,6.353-.26,12.617-1.369,15.056a12.827,12.827,0,0,0-.511,4.126c-.061,2.542-.157,3.085-.63,3.358C446.559,87.171,446.466,87.152,446.151,86.31Z"
        transform="translate(-290.147 -24.112)" fill="#fff" fill-rule="evenodd" />
      <path id="Path_1046" data-name="Path 1046"
        d="M450.71,82.2c-.842-.813-1.7-11.052-2.054-24.443-.058-2.217-.08-4.091-.032-4.223.077-.164.122-3.426.187-14.14-.006-1.472-.051-4.409-.1-6.565-.093-4.5.238-6.318,1.375-7.353,1.051-.961,1.832-.987,3.079-.183,1.523,1.019,1.983,2.346,2.2,6.3.209,3.86.26,15.875.074,20.686-.058,1.729-.093,4.8-.026,6.829a33.26,33.26,0,0,1-.4,6.305,103.83,103.83,0,0,0-1.559,11.63c-.2,3.027-.386,3.863-1.112,4.946C451.831,82.708,451.308,82.795,450.71,82.2Z"
        transform="translate(-276.886 -24.488)" fill="#fff" fill-rule="evenodd" />
      <path id="Path_1047" data-name="Path 1047"
        d="M440.713,66.718c-.566-.562-1.684-3.6-2.847-7.886a68.19,68.19,0,0,1-1.726-16.965c.077-2.388.1-5.865.077-7.774-.132-7.938.649-9.933,3.207-8.339,2.523,1.568,3.882,7.333,3.474,14.956a52.042,52.042,0,0,0,.354,9.1c.617,5.283.521,6.954-.562,11.582a17.623,17.623,0,0,0-.527,3.721C442.371,67,441.76,67.7,440.713,66.718Z"
        transform="translate(-304.514 -23.332)" fill="#fff" fill-rule="evenodd" />
    </g>
  </g>
</svg>