<svg xmlns="http://www.w3.org/2000/svg" xmlns:xlink="http://www.w3.org/1999/xlink" width="430.465"
  height="430.465" viewBox="0 0 459.485 459.485">
  <defs>
    <clipPath id="clip-path">
      <circle id="Ellipse_10" data-name="Ellipse 10" cx="175.837" cy="175.837" r="175.837"
        transform="translate(0 134.58) rotate(-22.5)" fill="#fff" />
    </clipPath>
  </defs>
  <g id="Group_181" data-name="Group 181" transform="translate(0 0)" clip-path="url(#clip-path)">
    <g id="Group_180" data-name="Group 180" transform="translate(35.511 33.738)">
      <path id="Path_640" data-name="Path 640"
        d="M296.387,155.183c-.095.095-.029.539.193.983.633,1.394-.222,7.037-1.776,11.7-1.933,5.7-2.854,7.353-7.134,12.711-2.028,2.566-4.5,5.77-5.453,7.069s-2.851,3.549-4.183,5.009c-1.362,1.427-3.043,3.36-3.771,4.248-.7.885-2.348,2.85-3.615,4.343a95.528,95.528,0,0,0-13.537,20.793,100.9,100.9,0,0,0-6.086,19.751c-.444,2.22-1.11,5.42-1.456,7.1-.666,3.265-1.27,12.078-1.27,19.271a92.319,92.319,0,0,0,1.9,15.853,10.237,10.237,0,0,1,.317,2.093c0,1.584,1.776,10.236,3.393,16.61.411,1.554.539,3.487.539,7.925,0,6.847-.571,10.462-2.093,13.6-.921,1.9-1.078,2.06-3.233,3.076a9.206,9.206,0,0,1-4.819,1.14c-2.22.065-2.981-.095-6.847-1.427-2.41-.823-5.77-2.155-7.451-2.948-2.916-1.362-3.36-1.711-7.608-5.926-8.081-8.085-10.047-9.89-13.407-12.427-1.838-1.394-5.959-4.532-9.195-7-8.97-6.818-16.927-11.794-20.923-13.093a63.72,63.72,0,0,0-10.334-2.093,33.478,33.478,0,0,0-10.269,1.143c-2.632.728-8.558,3.138-8.558,3.487,0,.728,1.584.539,4.816-.6,7.291-2.567,13.093-3.076,19.274-1.678,4.66,1.045,6.279,1.678,9.446,3.582a135.545,135.545,0,0,1,12.427,8.336c1.838,1.46,6.37,4.914,13,9.828a48,48,0,0,1,4.5,3.961c1.3,1.3,4.565,4.535,7.262,7.164,4.5,4.408,5.133,4.881,7.892,6.246,3.455,1.682,11.7,4.532,13.884,4.849a18.513,18.513,0,0,0,8.529-1.456,6.157,6.157,0,0,0,2.916-2.475c2.093-3.295,3.011-8.049,2.949-15.595a33.053,33.053,0,0,0-1.015-9.668c-1.868-8.339-2.85-13.315-2.85-14.582a13.761,13.761,0,0,0-.32-2.537c-.473-2.028-1.584-9.508-1.773-12.333-.127-1.394-.033-6.148.157-10.491a74.762,74.762,0,0,1,1.332-12.679,129.63,129.63,0,0,1,3.993-16.77c2.792-9.068,5.77-14.742,12.238-23.333,3.677-4.914,9.668-12.045,12.555-15.056.855-.888,2.6-3.014,3.9-4.757,1.267-1.744,3.644-4.787,5.231-6.752a34.8,34.8,0,0,0,6.782-12.424,20.269,20.269,0,0,0,1.492-7.324,16.364,16.364,0,0,0-.222-4.47c-.382-1.172-1.365-2.315-1.714-1.966Z"
        transform="translate(-127.604 -155.119)" fill="#fff" fill-rule="evenodd" />
      <path id="Path_641" data-name="Path 641"
        d="M304.835,156.847a32.036,32.036,0,0,1-.506,3.9c-1.456,8.434-5.7,15.376-19.209,31.32a88.481,88.481,0,0,0-10.05,15.026c-1.234,2.315-2.661,4.914-3.2,5.74a60.134,60.134,0,0,0-4.725,10.524c-1.678,5.326-3.866,13.061-4.5,15.849-2.028,9.1-3.455,32.714-2.25,37.566.189.855.506,3.422.7,5.7a126.578,126.578,0,0,0,4.5,21.462c1.238,3.742,1.3,4.121,1.427,8.685.127,4.375.065,5.1-.666,7.99a23.575,23.575,0,0,1-3.961,8.718,27.174,27.174,0,0,1-7.164,5.355c-1.238.633-9.005,2.158-10.938,2.158-2.632,0-6.214-1.554-10.618-4.6a20.889,20.889,0,0,0-3.33-1.9c-2.41-1.012-3.422-1.838-12.235-9.7a38.692,38.692,0,0,0-3.771-2.945c-.953-.666-2.38-1.714-3.171-2.41a112.9,112.9,0,0,0-11.412-8.023c-1.4-.79-3.52-2.06-4.692-2.85a47.929,47.929,0,0,0-4.437-2.537c-7.641-3.709-9.257-4.375-12.365-5.263-4.882-1.394-14.106-2.217-17.815-1.616a16.228,16.228,0,0,0-6.436,2.537,22.175,22.175,0,0,0-4.375,4.5c-.379,1.2.255,1.016,1.554-.411,4.375-4.787,7.513-5.926,15.405-5.548,5.93.255,8.179.6,11.889,1.776a95.538,95.538,0,0,1,15.565,7.575c1.584,1.015,3.993,2.5,5.42,3.331,1.394.823,4.375,2.916,6.658,4.627,2.25,1.744,5.169,3.931,6.468,4.881s2.726,2.06,3.167,2.475,1.871,1.646,3.171,2.788,3.425,3.01,4.725,4.215a20.188,20.188,0,0,0,4.944,3.393,26.967,26.967,0,0,1,4.026,2.282,33.694,33.694,0,0,0,8.15,4.186c2.534.761,5.7.633,10.68-.415,4.659-.95,5.8-1.456,9.828-4.343,3.327-2.344,5.832-6.592,7.131-12.078.571-2.377.637-3.517.509-7.859-.127-4.979-.16-5.136-1.46-8.878a119.661,119.661,0,0,1-4.31-21.08c-.095-1.838-.415-4.725-.666-6.468-.855-5.482-.666-13.662.7-26.977a85.357,85.357,0,0,1,3.487-17.276c2.919-10.112,4.248-13.567,7.069-18.2.666-1.078,2.188-3.739,3.363-5.926a96.466,96.466,0,0,1,9.952-14.866c9.668-11.255,15.154-19.118,17.341-24.887,1.456-3.866,2.155-9.7,1.394-11.7C305.377,155.515,304.835,155.642,304.835,156.847Z"
        transform="translate(-128.033 -153.423)" fill="#fff" fill-rule="evenodd" />
      <path id="Path_642" data-name="Path 642"
        d="M250.065,160.086a220.712,220.712,0,0,0-22.791,24.695c-6.341,8.372-18.164,24.793-21.651,30.148a87.727,87.727,0,0,0-9.195,18.925c-3.233,9.923-4.372,16.421-4.026,23.173a42.787,42.787,0,0,0,2.442,12.489c2.788,8.274,5.58,12.111,10.618,14.582a21.042,21.042,0,0,0,10.305,2.537c3.866,0,7.164-.6,18.386-3.3,9.192-2.25,13.5-2.726,18.954-2.217,6.119.571,8.973,1.871,12.9,5.9,4.31,4.4,5.7,8.969,8.369,27.228,1.078,7.324,3.739,21.051,5.1,26.249a69.907,69.907,0,0,0,5.42,13.822c4.947,9.257,9.035,12.871,18.008,15.915l3.993,1.362h4.754c5.231-.033,7.608-.506,11.823-2.282,5.329-2.282,11.222-7.481,16.548-14.644,5.992-8.085,8.369-10.429,12.522-12.395a7.669,7.669,0,0,1,4.026-.921,56.382,56.382,0,0,0,11.19-1.806c5.548-1.776,9.861-5.231,16.9-13.41,8.241-9.606,11.856-15.248,12.9-20.163a52.814,52.814,0,0,0,.477-9.192c0-10.207.666-15.565,2.886-23.523.95-3.393,7.448-21.047,10.775-29.259,1.015-2.566,1.871-4.721,1.871-4.849,0-.095-.222-.193-.506-.193-.793,0-4.437,7.928-9.639,20.923-3.389,8.434-4.816,12.744-5.959,17.753-1.456,6.37-1.711,8.813-1.838,18.641-.127,8.62-.157,9.064-.95,11.412-1.427,4.31-3.647,7.637-10.968,16.388-6.374,7.641-11.572,12.111-16.009,13.789a40.647,40.647,0,0,1-11.19,2,9.757,9.757,0,0,0-5.391,1.2c-4.659,2.25-6.942,4.437-13.061,12.584-8.4,11.128-15.689,15.915-25.168,16.453a22.576,22.576,0,0,1-10.429-1.682c-7.484-2.883-11.445-6.909-16.137-16.326a70.33,70.33,0,0,1-5.548-16.133c-1.554-7.04-3.425-16.959-4.153-22.034-1.649-11.569-3.422-19.177-5.293-22.762a27.959,27.959,0,0,0-8.623-8.842c-3.455-2-6.72-2.6-13.978-2.6-6.625-.033-6.308-.065-15.758,2.217s-14.9,3.3-17.75,3.3a18.874,18.874,0,0,1-13.093-5.61c-2.726-2.981-5.642-9.894-6.942-16.519-1.587-7.987-.983-14.9,2.217-25.39,3.265-10.651,6.246-16.613,13.694-27.294,5.012-7.164,17.119-23.807,19.973-27.359a265.935,265.935,0,0,1,18.259-20.035c3.331-3.295,6.054-6.116,6.054-6.243,0-.16-.346-.255-.79-.255-.6,0-1.809.95-4.535,3.549Z"
        transform="translate(-31.037 -151.908)" fill="#fff" fill-rule="evenodd" />
      <path id="Path_643" data-name="Path 643"
        d="M259.65,157.383a5.834,5.834,0,0,0,1.522,1.015,15.859,15.859,0,0,1,5.515,5.7c.793,1.492.888,2.06.888,4.408a19.521,19.521,0,0,1-.539,4.372c-1.806,5.868-10.08,18.9-16.894,26.536a105.666,105.666,0,0,0-10.494,14.262c-5.486,9.639-5.77,10.178-7.99,16.1-6.021,15.98-7.036,34.585-2.694,48.5.444,1.424,1.744,5.133,2.854,8.209,2.188,6.086,2.664,8.241,2.664,12.205A71.318,71.318,0,0,1,232.96,311.1c-.415,1.649-.7,2.188-1.332,2.5-1.2.6-5.009.506-6.5-.189-2.5-1.143-10.014-7.863-12.617-11.288-2.217-2.916-21.714-22.412-25.328-25.328a30.051,30.051,0,0,0-8.969-4.882,117.617,117.617,0,0,0-13.792-2.948c-2.883-.379-8.209-.222-9.508.287-1.238.506-.349.633,4.6.79a38.14,38.14,0,0,1,8.715,1.11c8.911,2.06,12.744,3.549,16.643,6.5,2.664,2.031,23.839,23.111,25.521,25.426,1.744,2.406,3.644,4.277,8.241,8.209,4.186,3.615,6.152,4.659,8.813,4.725,6.054.157,7.419-2.06,8.656-14.233.6-6.057.189-8.751-2.7-16.9-3.644-10.3-4.343-13.188-4.943-21.018a56.906,56.906,0,0,1,.127-10.808,78.793,78.793,0,0,1,4.849-22.889,100.619,100.619,0,0,1,19.085-30.748,112.524,112.524,0,0,0,10.746-14.648c2.5-4.121,5.675-10.778,6.054-12.711.6-2.916.444-6.054-.411-7.83-1.489-3.171-5.358-6.465-8.241-7.007-.888-.157-1.172-.124-1.016.16Z"
        transform="translate(-116.956 -150.566)" fill="#fff" fill-rule="evenodd" />
      <path id="Path_644" data-name="Path 644"
        d="M249.942,163.053a116.934,116.934,0,0,0-9.952,11.477c-2.442,3.2-5.992,7.7-7.925,9.985-12.587,14.928-16.675,20.476-22.35,30.432-7.037,12.3-9.825,18.481-12.551,27.771-1.46,5.071-1.554,8.431-.287,12.045,1.682,4.849,3.265,6.341,8.656,8.085,2.5.823,3.171.918,7.037.918,4.343-.033,4.281-.033,22.824-3.2a24.76,24.76,0,0,1,9.29.029,40.58,40.58,0,0,1,10.207,3.458c1.776,1.045,9.668,9.064,11.474,11.663a58.2,58.2,0,0,1,3.014,5.136c.888,1.776,2.439,4.565,3.422,6.214a43.315,43.315,0,0,1,4.692,9.668,73.6,73.6,0,0,1,2.886,10.968,147.7,147.7,0,0,0,7.32,25.488c.983,2.6,2.126,5.737,2.5,6.974a37.725,37.725,0,0,0,1.714,4.121,28.245,28.245,0,0,0,7.2,7.608,8.762,8.762,0,0,1,2.09,1.711c.666.794.761.826,4.6.826s3.993-.033,6.148-1.077c3.108-1.522,8.085-6.53,11.16-11.288,2.916-4.5,4.088-5.832,7.291-8.114,3.739-2.726,4.692-3.043,8.369-2.981a23.109,23.109,0,0,1,4.121.444,22.592,22.592,0,0,0,4.408.411c3.138.065,3.487,0,5.864-.98,5.388-2.22,9.414-6.184,14.422-14.109a56.694,56.694,0,0,0,7.451-17.465c.473-1.744,1.14-3.9,1.456-4.787.855-2.253,1.522-5.58,1.332-6.563-.189-.918,1.267-6.942,2.883-12.14a23.623,23.623,0,0,0,1.27-6.625c.157-3.108,1.362-13.093,2.25-18.7a61.89,61.89,0,0,1,1.584-6.658,150.6,150.6,0,0,0,4.153-16.737c.193-1.838.16-2.126-.284-2.126-.317,0-.633.444-.823,1.172-.16.666-.542,2.126-.826,3.265-.284,1.11-1.46,4.979-2.566,8.561-2.5,7.859-3.138,10.556-3.615,14.9-.189,1.838-.7,5.7-1.11,8.62a70.158,70.158,0,0,0-.793,7.546,16,16,0,0,1-.918,5.136c-.921,2.883-2.22,7.608-5.264,18.958-1.933,7.131-1.871,6.942-1.456,6.338.7-.983.346.634-1.081,4.979-3.04,9.254-10.775,20.381-16.515,23.741a25.946,25.946,0,0,1-3.644,1.587,9.228,9.228,0,0,1-5.041.6,32.455,32.455,0,0,1-4.437-.7,19.735,19.735,0,0,0-4.914-.539c-3.517-.033-3.8.062-7.513,2.883a26.811,26.811,0,0,0-6.942,7.863c-3.647,5.864-7.925,10.429-11.35,12.107a8.9,8.9,0,0,1-4.372.983c-2.282.127-2.759.033-4.248-.728-5.231-2.6-8.307-6.465-10.527-13.155-.444-1.3-1.646-4.725-2.727-7.575a161.475,161.475,0,0,1-6.432-22.223,101.808,101.808,0,0,0-4.343-15.5,61.8,61.8,0,0,0-3.076-5.894c-1.237-2.093-3.076-5.358-4.059-7.291-1.016-1.9-2.41-4.313-3.138-5.358-1.682-2.5-9.384-10.24-11.634-11.7-3.487-2.286-10.3-4.441-15.376-4.819-2.122-.189-3.9,0-10.618,1.11-4.437.7-9.511,1.551-11.255,1.9-4.882.921-9.129,1.143-11.412.539-3.138-.793-5.548-1.806-6.658-2.821-1.616-1.394-3.073-5.358-3.265-8.813-.157-3.043.127-4.31,2.348-11.157,2.344-7.2,4.849-12.395,12.013-24.982,4.725-8.3,9.7-15.056,21.083-28.688,2.028-2.442,5.8-7.226,8.4-10.618A128.754,128.754,0,0,1,252.8,161.721c2.916-3.171,3.677-4.31,2.916-4.31C255.588,157.411,252.956,159.948,249.942,163.053Z"
        transform="translate(-22.768 -149.929)" fill="#fff" fill-rule="evenodd" />
      <path id="Path_645" data-name="Path 645"
        d="M316.381,159.3a22.879,22.879,0,0,1-1.743,2.632,62.7,62.7,0,0,0-3.611,6.436,64.664,64.664,0,0,1-10.112,15.121c-3.52,3.931-17.975,24.378-19.846,28.055-.888,1.711-3.742,9.417-5.358,14.328-2.756,8.529-5.355,20.447-5.7,26.216-.444,7.641-.033,10.622,2.315,15.787.761,1.711,1.806,4.535,2.344,6.279s1.744,5.1,2.726,7.448a97.632,97.632,0,0,1,5.071,17.341,57.649,57.649,0,0,1,.033,14.961,52.3,52.3,0,0,1-6.974,16.865c-2.06,3.2-9.8,10.968-12.871,12.966-4.467,2.883-9.035,4.976-12.14,5.548a34.971,34.971,0,0,0-4.819,1.267c-1.11.411-3.487,1.11-5.293,1.554a115.071,115.071,0,0,0-18.132,7.608c-2.126,1.267-11.856,8.147-14.426,10.207-3.327,2.632-14.994,14.328-16.865,16.93-8.431,11.569-10.24,14.422-11.983,18.86-3.295,8.274-3.8,10.811-4.15,20.923-.255,8.3-.731,12.329-1.871,16.577-.728,2.6-2.475,6.279-3.393,7.135-.95.855-6.974,2.756-8.78,2.788a21.667,21.667,0,0,0-3.2.287c-.855.189-2.344.411-3.265.506-1.3.157-1.649.317-1.584.728.127.6,1.332.633,7.069.095a25.828,25.828,0,0,0,7.259-1.522,18.552,18.552,0,0,0,4.281-1.9c.918-.761,2.788-4.375,3.611-6.942,1.4-4.375,1.936-9.005,2.282-19.813.222-6.5.666-9.13,2.41-14.2a51.522,51.522,0,0,1,7.546-14.488c1.744-2.439,4.215-5.864,5.482-7.608,2.38-3.295,12.9-13.946,17.057-17.276,3.138-2.534,13.916-9.952,15.722-10.873,5.169-2.6,13.6-6.054,16.453-6.752a44.707,44.707,0,0,0,4.914-1.427,33.333,33.333,0,0,1,4.754-1.267c3.331-.666,9.035-3.265,13.155-6.024,2.949-2,11.1-10.269,13-13.217a52.739,52.739,0,0,0,7.321-18.132,56.306,56.306,0,0,0-.317-15.248A115.488,115.488,0,0,0,279.2,280.3c-.855-2.028-1.966-4.947-2.439-6.5a65.677,65.677,0,0,0-2.5-6.625c-2.158-4.852-2.537-7.1-2.253-13.093.382-9,4.026-23.745,9.384-38.1,1.3-3.517,2.442-5.548,6.88-12.14a250.154,250.154,0,0,1,15.627-21.145,61.258,61.258,0,0,0,8.274-12.679c1.2-2.442,2.188-4.565,2.188-4.725a9.315,9.315,0,0,1,1.143-1.966,28.138,28.138,0,0,0,1.9-3.393c.728-1.584.728-1.646.127-1.646-.382,0-.823.411-1.143,1.012Z"
        transform="translate(-120.748 -147.949)" fill="#fff" fill-rule="evenodd" />
      <path id="Path_646" data-name="Path 646"
        d="M317.422,159.711c-.062.255-.441,1.365-.79,2.5a39.4,39.4,0,0,1-6.974,11.921c-1.267,1.362-3.233,3.615-4.343,5.009-4.091,5.136-11.827,16.453-13.854,20.319-4.816,9.129-10.207,21.43-11.6,26.471-1.554,5.675-2.41,15.565-2.377,27.421.029,10.556.728,15.438,3.105,21.4,1.616,4.059,2.377,6.974,3.487,13.789,1.871,11.223,2.028,20.225.477,27.264-1.365,6.243-2.22,7.8-7.356,12.963-4.056,4.121-7.037,6.057-11.19,7.324-2.377.728-3.105.793-8.747.793-5.93,0-6.246-.033-8.845-.921-5.61-1.9-7.386-2.883-10.84-5.959-1.081-.983-3.236-2.726-4.819-3.9-1.554-1.2-3.931-3.2-5.264-4.5-8.369-8.081-23.9-18.259-33.315-21.779a62.273,62.273,0,0,0-18.641-3.644,14.315,14.315,0,0,0-6.814,1.2,43.1,43.1,0,0,0-12.744,7.259,39.1,39.1,0,0,0-8.339,12.238c-.983,2.282-1.045,3.138-.189,2.217a28.282,28.282,0,0,0,2-3.171,48.974,48.974,0,0,1,7.226-9.636c3.993-3.993,13.822-8.718,18.1-8.718,4.375,0,14.488,2.126,18.925,3.993,9.668,4.059,24.123,13.6,32.081,21.207,1.394,1.332,4.121,3.615,6.024,5.074,1.933,1.456,4.4,3.455,5.548,4.437,2.312,2.06,5.548,3.677,10.207,5.2l3.073.983,6.6-.127c6.024-.124,6.814-.189,8.97-.918a27.415,27.415,0,0,0,7.484-3.487,52.959,52.959,0,0,0,10.047-10.05,32.869,32.869,0,0,0,3.265-9.352c.761-3.709.921-12.584.317-17.91-1.012-9-2.344-15.882-3.866-19.973-2.949-8.114-3.425-10.3-3.964-18.288-.346-5.518-.222-8.813.666-19.274.855-9.89,1.365-12.078,4.659-20.417,6.184-15.689,16.519-32.492,26.853-43.62a23.144,23.144,0,0,0,3.866-5.864c1.744-3.517,2.981-7.036,2.981-8.431C318.5,159.9,317.615,159.078,317.422,159.711Z"
        transform="translate(-134.09 -145.225)" fill="#fff" fill-rule="evenodd" />
      <path id="Path_647" data-name="Path 647"
        d="M253.061,161.04a37.848,37.848,0,0,0-5.864,4.819c-2.217,2.122-5.515,5.133-7.353,6.72-5.864,5.1-9.7,9.479-17.626,20.1-8.019,10.716-12.045,17.466-18.608,31.225-4.31,9.067-5.071,11.379-5.1,15.533,0,5.835,1.14,7.83,5.515,9.7,2.253.95,2.5.983,5.231.823a70.214,70.214,0,0,0,11.794-2.09,62.155,62.155,0,0,1,6.465-1.427c2.348-.444,4.914-.95,5.708-1.11a42.494,42.494,0,0,1,5.675-.539,22.991,22.991,0,0,1,7.608.477c7.258,1.522,12.966,4.026,16.77,7.353,2.661,2.377,6.4,8.114,8.081,12.489a35.655,35.655,0,0,0,1.744,3.647,19.317,19.317,0,0,1,1.365,2.694c.189.506.855,1.871,1.456,3.01a60.611,60.611,0,0,1,4.059,8.718c.571,1.554,1.649,4.5,2.377,6.5s1.933,5.3,2.694,7.291c.731,2,1.587,4.5,1.871,5.548s1.2,4.026,2.06,6.658c.855,2.6,1.871,6.024,2.253,7.575.98,4.153,4.245,12.809,5.293,14.076,2.093,2.632,4.976,2.981,8.5,1.11,5.26-2.759,7.069-4.375,13.5-11.823a23.283,23.283,0,0,1,3.487-3.363c1.3-.885,1.806-1.012,4.594-1.2a14.259,14.259,0,0,1,6.279.633c4.47,1.172,8.4,1.2,11.19.029,5.8-2.406,12.679-10.08,17.021-19.049,3.331-6.85,3.8-8.179,5.548-15.092a177.846,177.846,0,0,0,5.3-37.6l.189-6.974-1.365-4.914a110.993,110.993,0,0,0-12.078-27.451c-1.933-2.948-2.694-3.837-3.011-3.487a53.62,53.62,0,0,0,3.138,6.942,166.39,166.39,0,0,1,9.479,22.98c1.3,4.346,1.3,4.441,1.46,10.272.062,3.233-.033,7.419-.222,9.257-.189,1.871-.509,4.914-.7,6.785-.793,8.052-4.565,25.74-6.687,31.287a80.592,80.592,0,0,1-7.1,14.011c-4.375,6.086-8.908,10.145-12.966,11.7a8.209,8.209,0,0,1-4.6.666,25.062,25.062,0,0,1-4.594-.859c-1.936-.6-2.726-.666-6.057-.506-5.231.222-6.465.921-11.062,6.4-5.071,6.057-6.341,7.164-11.634,10.08-4.281,2.38-5.391,1.554-8.179-6.021-1.012-2.789-2.25-6.563-2.694-8.369-.855-3.392-3.138-10.684-5.136-16.293-3.327-9.512-4.215-11.983-5.231-14.426-.633-1.489-1.3-3.265-1.522-3.961s-2.093-4.565-4.121-8.561c-2.028-4.026-3.9-7.859-4.121-8.558-1.362-4.121-6.341-10.968-9.985-13.694a47.274,47.274,0,0,0-11.507-5.453c-1.175-.349-3.775-.95-5.77-1.332a25.313,25.313,0,0,0-7.451-.474,56.674,56.674,0,0,0-6.815.823c-1.649.317-4.565.921-6.5,1.267-1.9.382-4.343.983-5.388,1.3a81.7,81.7,0,0,1-12.235,2.188,11.034,11.034,0,0,1-6.057-2.788c-1.649-1.966-1.871-8.052-.444-12.205.921-2.726,7.134-15.66,10.272-21.4,4.343-7.957,12.235-19.242,20.192-28.881a66.275,66.275,0,0,1,10.178-10.524c2.06-1.806,5.388-4.882,7.353-6.785,3.582-3.455,5.959-5.355,7.1-5.737.317-.095.506-.317.411-.473-.349-.539-1.584-.287-3.425.728Z"
        transform="translate(-17.074 -143.984)" fill="#fff" fill-rule="evenodd" />
      <path id="Path_648" data-name="Path 648"
        d="M212.855,161.752a16.145,16.145,0,0,0,1.46,1.966c3.01,3.677,3.677,6.72,2.694,12.362-2,11.761-4.659,16.009-17.436,27.993-4.627,4.343-5.42,5.326-9,11.379-2.694,4.6-3.422,6.658-3.615,10.654-.157,3.2-.062,3.866.953,8.241a62.821,62.821,0,0,0,2.09,7.2,35.917,35.917,0,0,1,1.492,5.071,8.078,8.078,0,0,1-.095,4.976,6.472,6.472,0,0,1-1.081,2.664c-.855.539-2.282-.287-7.7-4.47-5.737-4.408-7-5.169-10.556-6.119-4.816-1.332-8.4-3.011-9.414-4.47-.633-.888-.666-3.487-.033-6.4a101.423,101.423,0,0,1,5.548-13.727c.509-.855.509-1.012.095-1.172a.982.982,0,0,0-.728-.033c-.823.509-5.453,10.4-6.468,13.76-.823,2.821-.983,6.086-.346,7.419.95,1.995,3.771,3.677,8.97,5.355,4.881,1.554,4.914,1.587,12.806,7.83,3.647,2.886,5.835,3.964,7.611,3.742s2.6-1.172,3.265-3.582a16.694,16.694,0,0,0-.793-10.112c-.571-1.587-1.587-5.009-2.282-7.608-1.172-4.532-1.238-4.947-1.077-8.5.127-3.615.189-3.866,1.427-6.468,1.933-4.026,5.672-9.858,7.481-11.663.855-.888,3.327-3.141,5.453-5.009a64.755,64.755,0,0,0,8.813-9.162c3.36-5.041,4.565-7.451,5.515-11.19,2.188-8.434,2.093-12.871-.317-16.708-1.394-2.155-4.725-5.133-4.725-4.215Z"
        transform="translate(-103.574 -140.481)" fill="#fff" fill-rule="evenodd" />
      <path id="Path_649" data-name="Path 649"
        d="M258.858,162.1a6.291,6.291,0,0,0,.444,1.045c.983,2.031.95,3.363-.287,7.608-1.172,4.091-2.028,6.152-3.422,7.957-1.682,2.282-10.906,12.173-14.109,15.216-3.549,3.331-3.8,3.68-8.525,11.033-6.752,10.524-8.463,15.31-9.8,27.261-.761,7.069-.506,8.878,2.41,17.913a128.858,128.858,0,0,1,3.8,15.882c1.2,7.448,1.016,13.472-.477,16.453-.983,1.962-1.838,2.534-4.088,2.756-2.948.317-4.026-.317-8.558-4.914-4.568-4.659-5.962-6.37-7.262-9.064a14.3,14.3,0,0,0-5.26-6.374,89.262,89.262,0,0,0-11.539-5.832c-1.237-.506-3.265-1.394-4.47-1.933-3.553-1.616-9.005-2.886-21.207-4.882-3.647-.6-7.386-2.315-9.129-4.219a15.211,15.211,0,0,1-3.33-6.847c-.411-1.744-.633-2.122-1.172-2.122-.6,0-.633.157-.477,2.439a16.039,16.039,0,0,0,2.5,7.419c1.809,2.537,6.057,4.47,11.921,5.358a129.421,129.421,0,0,1,15.977,3.3c5.42,1.806,18.2,7.859,20.541,9.763a16.859,16.859,0,0,1,3.549,5.009c1.015,2.282,2.57,4.215,7.04,8.78,5.388,5.485,6.148,5.93,9.825,5.737,3.043-.157,4.725-.888,6.214-2.694,1.3-1.584,1.9-3.455,2.253-7.226.666-6.69-1.048-16.643-4.914-28.691-2.315-7.2-2.57-9.064-2.06-14.517,1.045-11.729,2.788-17.214,8.209-25.743,1.048-1.646,2.792-4.437,3.869-6.181,1.616-2.6,2.883-4.059,6.974-8.085,7.608-7.481,13.28-13.946,14.677-16.737a54.943,54.943,0,0,0,2.534-9.1,9.562,9.562,0,0,0-1.234-5.231c-.477-.539-1.427-.888-1.427-.539Z"
        transform="translate(-121.68 -139.624)" fill="#fff" fill-rule="evenodd" />
      <path id="Path_650" data-name="Path 650"
        d="M230.833,163.063c0,.157.633.633,1.365,1.077a9.852,9.852,0,0,1,3.706,5.071,26.7,26.7,0,0,1,.571,3.771c.255,2.41.222,2.632-.539,3.742a59.568,59.568,0,0,1-4.976,6.246c-1.045,1.2-3.2,3.771-4.725,5.7-2.851,3.582-5.77,6.942-9.985,11.412-4.31,4.565-8.97,12.111-10.746,17.374-2.028,5.926-2.41,8.176-2.377,14.011.033,6.687.568,10.145,2.537,15.565a99.81,99.81,0,0,1,3.706,12.329l.826,3.487-1.237,2.537c-1.489,3.076-2.155,3.8-3.393,3.52-1.14-.287-5.482-4.757-8.019-8.307a21.14,21.14,0,0,0-4.059-4.281c-1.14-.855-3.36-2.726-4.911-4.153-6.024-5.577-8.5-6.5-19.085-7.226-7.7-.506-10.618-1.966-10.618-5.326,0-2.694,2.377-9.574,5.864-16.959,1.172-2.5,1.234-3.17.222-2.57-1.744,1.078-7.513,14.87-7.9,18.9a4.076,4.076,0,0,0,.666,3.233c1.46,2.472,4.248,3.455,11.285,3.993,9.734.761,12.078,1.682,17.6,7.007,1.234,1.172,3.327,2.948,4.659,3.961a21.986,21.986,0,0,1,4.31,4.441,49.749,49.749,0,0,0,7.481,8.114c2.981,2.155,5.58.6,8.15-4.947l1.012-2.155-.855-3.866a97.592,97.592,0,0,0-3.8-13.028,44.2,44.2,0,0,1-2.41-15.092c0-10.746,4.819-21.335,14.138-31.032a106.351,106.351,0,0,0,8.78-9.766c1.143-1.456,3.043-3.739,4.248-5.038a89.3,89.3,0,0,0,6.5-8.117c.444-.855.095-5.326-.6-7.353a9.658,9.658,0,0,0-5.071-6.086C232.038,162.809,230.833,162.714,230.833,163.063Z"
        transform="translate(-111.09 -137.606)" fill="#fff" fill-rule="evenodd" />
      <path id="Path_651" data-name="Path 651"
        d="M199.645,163.625c0,.16.633,1.776,1.394,3.585,1.9,4.4,2.537,6.942,2.282,9.191a28.269,28.269,0,0,1-2.916,8.463c-1.14,1.933-5.42,6.308-8.3,8.5-3.17,2.377-3.076,2.282-12.682,13.5a22.658,22.658,0,0,0-4.532,8.973c-.571,3.011-.16,9.541.793,13.09.885,3.265,1.045,6.086.411,7.324-.349.7-.6.793-1.9.728-2.41-.062-4.153-1.14-6.086-3.709-3.233-4.277-3.677-6.53-2.694-13.028.793-5.42,3.455-14.328,5.071-17.181.382-.633.477-1.11.287-1.237-1.27-.761-4.248,5.74-6.308,13.665-.349,1.394-.888,4.343-1.172,6.592-.477,3.742-.477,4.186.029,6.181a21.374,21.374,0,0,0,5.1,8.274c1.871,1.649,6.246,2.475,8.212,1.587a3.475,3.475,0,0,0,1.3-1.4c.666-1.456.6-5.228-.127-8.114a30.429,30.429,0,0,1-1.045-10.873,12.551,12.551,0,0,1,1.773-6.024,23.185,23.185,0,0,1,3.425-4.943c1.045-1.143,2.661-2.916,3.52-3.964,3.866-4.627,5.009-5.77,7.987-8.019a59.544,59.544,0,0,0,5.77-5.041,17.109,17.109,0,0,0,4.026-5.577c2.377-4.882,2.886-8.023,1.9-11.35a42.726,42.726,0,0,0-4.124-8.463c-.761-.983-1.394-1.332-1.394-.731Z"
        transform="translate(-97.655 -136.522)" fill="#fff" fill-rule="evenodd" />
      <path id="Path_652" data-name="Path 652"
        d="M260.86,164.368a38.34,38.34,0,0,0-5.231.761c-2.566.666-7.164,3.105-11.1,5.9a54.531,54.531,0,0,1-5.231,3.327,109.5,109.5,0,0,0-9.8,6.436c-.855.633-2.122,1.584-2.821,2.122a23.214,23.214,0,0,0-3.615,4.441c-1.3,1.9-3.389,4.754-4.689,6.338a230.473,230.473,0,0,0-12.871,19.147,17.192,17.192,0,0,0-1.238,3.68,24.343,24.343,0,0,1-1.329,3.961c-1.46,3.138-1.587,4.088-1.015,6.88.855,4.215,1.584,5.737,3.2,6.752,2.093,1.332,4.026,1.456,8.783.666a50.638,50.638,0,0,0,5.642-1.27,53.528,53.528,0,0,1,11.03-2.282c2-.189,3.709-.379,3.8-.444.6-.346,7.768-.473,9.384-.157,3.8.761,8.464,2.25,9.763,3.138a120.731,120.731,0,0,1,11.983,10.84c3.582,3.931,5.074,6.152,8.5,12.809,1.11,2.09,2.472,4.627,3.076,5.61,2.694,4.5,6.243,13.727,8.653,22.445a62.7,62.7,0,0,0,2.158,6.465c2.344,4.947,8.241,12.489,10.651,13.632,1.456.7,4.754.666,7.069-.065a27.46,27.46,0,0,0,5.009-2.6c1.74-1.107,3.866-2.344,4.721-2.756a31.828,31.828,0,0,1,9.384-2.759c9.446-.855,9.13-.761,12.584-2.916a10.1,10.1,0,0,0,3.425-3.171c2.472-3.709,5.231-10.618,6.782-16.927.349-1.3.953-3.582,1.4-5.074a49.507,49.507,0,0,0,1.172-5.231,82.276,82.276,0,0,1,3.171-12.362c2.439-7.608,3.517-11.794,4.15-16.009.793-5.26.666-6.88-1.045-12.839-2.22-7.83-4.121-11-9.763-16.421-3.993-3.866-5.959-5.42-8.339-6.625-3.739-1.871-4.121-1.267-.663,1.045a78.135,78.135,0,0,1,10.935,9.988c3.455,3.931,4.6,6.276,6.847,14.233,1.682,6.021,1.172,11.445-2.028,22-3.582,11.729-4.186,14.04-4.692,17.211a49.951,49.951,0,0,1-1.237,5.548c-.411,1.365-.855,2.981-.983,3.582a78.019,78.019,0,0,1-4.277,12.522c-2.093,4.408-2.948,5.453-5.8,7.1-2.22,1.237-2.759,1.427-6.024,1.806-1.933.222-4.343.415-5.293.444-3.549,0-9.13,2-13.6,4.852-4.5,2.854-6.086,3.487-9.068,3.644l-2.534.127-1.682-1.3c-1.776-1.394-3.393-3.327-5.77-6.847a34.609,34.609,0,0,1-5.041-11.317c-2.661-9.574-5.7-17.625-8.62-22.6-.793-1.394-2.348-4.281-3.455-6.436-3.33-6.592-5.231-9.195-10.589-14.488-5.42-5.387-9.417-8.747-11.761-9.828a43.4,43.4,0,0,0-5.548-1.773,19.052,19.052,0,0,0-7.83-.794,74.928,74.928,0,0,0-18.324,2.727c-5.61,1.554-10.429,2.377-12.267,2.093-2.854-.444-3.8-1.522-4.849-5.486-.793-2.978-.666-4.787.411-6.974a21.51,21.51,0,0,0,1.489-4.088,23.123,23.123,0,0,1,1.237-3.771,105.709,105.709,0,0,1,5.992-9.512c.379-.539,1.616-2.315,2.726-3.964s3.073-4.31,4.31-5.864c1.267-1.584,3.108-4.055,4.121-5.548,2.475-3.644,3.01-4.248,5.136-5.737,1.015-.7,2.981-2.093,4.375-3.138a50.436,50.436,0,0,1,5.293-3.327,66.263,66.263,0,0,0,5.864-3.68c6.119-4.372,9.417-5.77,14.52-6.148,1.394-.095,3.422-.255,4.47-.349a64.285,64.285,0,0,1,12.14,1.015,53.349,53.349,0,0,1,5.391,1.522c4.881,1.678,19.81,8.78,25.707,12.267,15.755,9.257,20.447,12.205,23.617,14.837,1.2,1.012,1.616,1.2,1.682.823.189-.823-.7-1.838-3.8-4.343-6.658-5.391-22.54-14.9-31.8-19.052-1.744-.793-4.437-2.06-6.024-2.821-10.364-5.071-18-6.5-30.115-5.642Z"
        transform="translate(-10.035 -134.695)" fill="#fff" fill-rule="evenodd" />
      <path id="Path_653" data-name="Path 653"
        d="M248.762,168.494c-8.813,1.332-16.643,4.754-22.38,9.828a98.316,98.316,0,0,0-14.52,16.326,16.834,16.834,0,0,1-1.966,2.534,16.782,16.782,0,0,0-2.028,3.17c-1.3,2.348-1.489,2.948-1.489,4.6a11.8,11.8,0,0,0,.379,3.076c.477,1.456,2.57,3.233,4.787,4.088,2.41.921,11,1.933,14.266,1.682,4.725-.349,13.5.7,20.287,2.406,10.272,2.6,17.531,6.752,21.113,12.049a111.866,111.866,0,0,1,5.93,12.362,127.255,127.255,0,0,1,3.837,15.693,62.262,62.262,0,0,0,2.6,10.84,31.206,31.206,0,0,0,4.31,9.384,17.38,17.38,0,0,0,5.675,5.482,14.043,14.043,0,0,0,7.735,2.38c2.06,0,3.105-.287,6.975-2.093a34.216,34.216,0,0,1,11.252-2.694c6.752-.637,8.434-1.46,10.272-5.009.349-.666.888-3.709,1.489-8.4.509-4.059,1.077-7.863,1.238-8.5.189-.634.666-2.854,1.077-4.914.444-2.093,1.2-5.293,1.744-7.1,2.6-8.653,3.866-18.765,2.916-23.14-1.711-7.987-9.7-22.125-15.755-27.895-3.455-3.265-19.434-14.236-24.378-16.741-5.009-2.5-19.526-7.732-23.428-8.431C265.121,168.462,252.726,167.923,248.762,168.494Zm14.615,2.41c5.42.379,8.525.918,11.729,2.093,1.238.411,3.422,1.172,4.914,1.646,2.821.921,11.125,4.346,13.727,5.613,1.711.888,6.655,3.993,15.278,9.7,8.973,5.926,10.968,8.019,16.643,17.309a58.325,58.325,0,0,1,6.054,12.2c1.3,3.552,1.3,3.552,1.332,8.307,0,5.263-.7,9.668-2.788,16.959a154.21,154.21,0,0,0-4.121,21.08,72.719,72.719,0,0,1-1.237,7.608c-1.11,2.664-3.3,3.68-9.067,4.281a43.81,43.81,0,0,0-9.381,1.776c-.6.251-2.031.888-3.138,1.394-3.585,1.649-5.358,2.028-7.484,1.616a13.807,13.807,0,0,1-5.959-2.566,21.778,21.778,0,0,1-7.291-9.224,85.763,85.763,0,0,1-4.183-15.314c-.349-2.25-.921-5.1-1.27-6.338s-.983-3.68-1.427-5.424c-.95-3.771-1.9-6.181-4.659-11.885-3.455-7.069-6.214-9.828-13.378-13.348-8.179-3.993-20.414-6.4-30.748-6.086-3.9.127-11.7-.539-13.315-1.172a12.492,12.492,0,0,1-4.47-3.993c-.855-2.093-.888-2.854-.029-4.692a82.081,82.081,0,0,1,7.1-11.19c2.537-3.265,11.033-11.761,13.221-13.221a49.845,49.845,0,0,1,21.586-7.543,114.323,114.323,0,0,1,12.365.411Z"
        transform="translate(0.762 -125.35)" fill="#fff" fill-rule="evenodd" />
      <path id="Path_654" data-name="Path 654"
        d="M236.921,172.391c-6.658,1.459-13.472,3.931-16.8,6.119a39.71,39.71,0,0,0-8.5,8.431c-1.27,1.936-1.489,2.475-1.587,4.248-.251,3.709,1.238,5.77,5.169,7.134a65.508,65.508,0,0,0,11.285,1.806,90.932,90.932,0,0,1,15.66,3.487c1.048.382,3.775,1.143,6.057,1.744,10.458,2.694,16.8,6.4,20.669,12.143a49.445,49.445,0,0,1,4.5,8.715c.317.888,1.11,3.775,1.744,6.406a38.558,38.558,0,0,1,1.394,10.458,48.654,48.654,0,0,0,.477,6.152,22.572,22.572,0,0,1,.7,4.215,26.3,26.3,0,0,0,1.107,5.358c1.175,2.694,6.214,6.847,9.257,7.608a13.654,13.654,0,0,0,8.307-.95c1.806-.826,3.105-1.143,6.942-1.649,5.2-.666,7.037-1.332,8.307-3.014.855-1.107.888-1.646.6-6.942a44.623,44.623,0,0,0-1.045-7.291,27.164,27.164,0,0,1-.826-7.608v-4.121l2.253-7.67c3.422-11.634,3.739-15.66,1.584-20.225-1.522-3.2-5.1-8.179-7.1-9.861-6.625-5.58-22.38-16.483-27.673-19.147a79.594,79.594,0,0,0-13.567-5.136l-3.713-.983-10.935-.062c-10.429-.095-11.1-.062-14.266.633Zm29.165,2.792a62.1,62.1,0,0,1,6.658,2.122c1.3.539,2.883,1.172,3.52,1.427,5.133,1.9,23.173,13.978,30.272,20.287a35.282,35.282,0,0,1,6.912,9.89c1.427,3.425,1.012,7.007-2,17.374-1.045,3.644-2.093,7.735-2.282,9.035a33.71,33.71,0,0,0,.823,11.885,36.618,36.618,0,0,1,.953,6.119c.095,1.682.251,3.553.349,4.091a3.451,3.451,0,0,1-.193,1.678c-.6,1.143-2.883,2.188-5.548,2.537-5.326.7-6.752,1.015-9.508,2.122-5.391,2.188-8.5,1.492-13.41-2.916-2.155-1.933-2.854-3.36-3.265-6.592-.16-1.427-.6-4.248-.95-6.246a20.38,20.38,0,0,1-.444-5.864c.255-2.759-.16-5.58-1.776-11.823a40.083,40.083,0,0,0-8.4-16.959c-3.327-3.931-10.112-7.546-17.72-9.417-1.584-.379-4.627-1.234-6.814-1.9-6.847-2.126-11.6-3.171-16.166-3.52-10.556-.793-14.36-2.093-14.2-4.754a8.3,8.3,0,0,0-.539-2.126c-.6-1.649-.6-1.678,0-2.85.888-1.62,5.009-5.9,7.291-7.513,3.425-2.442,9.858-4.914,17.276-6.625,3.236-.761,3.677-.761,14.109-.7l10.775.095,4.281,1.143ZM211.626,193c.095.411.029.7-.095.6-.287-.157-.415-1.394-.16-1.394C211.436,192.2,211.56,192.554,211.626,193Z"
        transform="translate(8.989 -117.518)" fill="#fff" fill-rule="evenodd" />
      <path id="Path_655" data-name="Path 655"
        d="M227.52,174.7a17.606,17.606,0,0,1-3.677.477c-3.709.284-4.947.728-7.768,2.789-2.788,2.028-3.517,4.281-1.966,6.086,1.016,1.2,4.535,2.916,7.735,3.771,1.3.349,4.881,1.143,7.925,1.776,6.69,1.362,19.562,5.486,23.712,7.608,5.136,2.566,9.828,5.9,12.016,8.463a26.406,26.406,0,0,1,4.277,7.419,103.881,103.881,0,0,1,3.109,14.645c.349,2.759.855,5.992,1.11,7.229.251,1.2.571,3.709.761,5.548a17.05,17.05,0,0,0,.918,4.754,17.284,17.284,0,0,0,4.6,5.708c2.41,1.489,8.434,2.028,11.6,1.077,2.031-.6,4.6-2.821,5.136-4.47.539-1.682.095-5.485-1.015-8.751a13.837,13.837,0,0,1-.95-5.577,42.133,42.133,0,0,1,2.6-13.5,17.921,17.921,0,0,0,1.522-6.658c.287-4.248-.252-7.007-1.773-9.512A40.015,40.015,0,0,0,283.345,189c-7.324-4.816-10.05-6.148-17.593-8.653-1.554-.506-4.914-1.649-7.451-2.537a30.833,30.833,0,0,0-8.558-1.933c-2.188-.222-5.1-.539-6.5-.7-3.265-.382-15.471-.761-15.725-.477Zm10.811,2.22c7.321.379,14.677,1.2,17.054,1.933a162.763,162.763,0,0,1,18.608,6.942c6.214,3.076,12.457,7.291,15.627,10.556,3.487,3.615,7.131,9.1,7.83,11.823.855,3.331.444,6.752-1.427,12.365a37.136,37.136,0,0,0-2.06,9c-.6,5.071-.379,7.735.95,11.03a16.34,16.34,0,0,1,.983,4.343c.193,2.188.127,2.5-.506,3.3-1.649,2.06-5.58,3.076-9.606,2.472-3.422-.539-5.26-1.522-6.876-3.644-1.9-2.537-2.57-4.5-2.854-8.751a33.963,33.963,0,0,0-.6-4.914c-.157-.7-.539-3.043-.79-5.228a62.282,62.282,0,0,0-2.475-12.176c-2.472-8.715-5.577-12.9-13-17.5-4.408-2.726-7.546-4.088-15.627-6.782a92.629,92.629,0,0,0-12.682-3.458c-7.768-1.522-11.889-2.723-13.851-4.121-2.315-1.616-2.442-1.933-1.459-3.422,1.267-1.933,3.582-3.011,7.226-3.33,1.649-.124,3.869-.379,4.914-.506a77.686,77.686,0,0,1,10.622.065Z"
        transform="translate(16.458 -110.984)" fill="#fff" fill-rule="evenodd" />
      <path id="Path_656" data-name="Path 656"
        d="M223.78,175.913a24.626,24.626,0,0,1-3.138.856c-3.076.666-4.852,1.584-4.692,2.41.317,1.649,6.432,3.582,17.688,5.642,6.72,1.238,7.386,1.394,10.906,2.759a47.55,47.55,0,0,1,10.808,5.482,32.829,32.829,0,0,1,7.957,6.246c3.615,3.739,4.787,5.453,6.308,9.192,2.126,5.231,2.792,9.8,2.664,18.579l-.095,6.243,1.078,2.537c1.551,3.677,4.215,6.243,7.321,7.131a4.085,4.085,0,0,0,4.091-1.2c.793-.983.761-1.584-.16-7.131a14.3,14.3,0,0,1-.029-6.658,72.022,72.022,0,0,1,1.616-7.036c.6-2.093,1.172-4.532,1.3-5.391a13.127,13.127,0,0,1,.633-2.661c.6-1.46.571-2.6-.222-5.231a18.374,18.374,0,0,0-3.138-6.37,49.023,49.023,0,0,0-9.352-8.718c-1.394-.953-3.138-2.188-3.837-2.759-2.759-2.22-6.72-4.248-13.822-7.069-7.641-3.043-9.541-3.549-21.335-5.864C232.116,176.07,224.224,175.436,223.78,175.913Zm10.808,2.537c14.171,2.788,13.916,2.726,23.617,6.53,5.708,2.217,7.768,3.233,10.334,4.976.95.666,3.109,2.093,4.754,3.2,7.007,4.725,11.128,9.322,12.777,14.266.855,2.57,1.045,4.535.506,5.93a24.114,24.114,0,0,0-.633,2.949,41.188,41.188,0,0,1-1.267,4.976,57.742,57.742,0,0,0-2.126,9.985,18.231,18.231,0,0,0,.539,4.6c1.176,5.515,1.176,5.453,0,5.7a6.018,6.018,0,0,1-2,.033c-1.3-.255-4.63-2.854-4.6-3.582a8.942,8.942,0,0,0-1.2-2.632l-1.237-2.06v-6.975c-.029-9.286-.568-13.09-2.6-18.543a26.686,26.686,0,0,0-6.909-10.334,29.978,29.978,0,0,0-7.135-5.42,56.188,56.188,0,0,0-11.1-5.58c-4.659-1.744-4.437-1.682-12.362-3.108-3.931-.7-8.114-1.551-9.352-1.933-7.513-2.25-7.925-2.534-4.849-3.076a22.764,22.764,0,0,0,2.948-.663C224.253,177.18,229.994,177.562,234.588,178.45Z"
        transform="translate(22.418 -108.39)" fill="#fff" fill-rule="evenodd" />
      <path id="Path_657" data-name="Path 657"
        d="M231.057,180.669a1.1,1.1,0,0,0-.571.731,12.227,12.227,0,0,0,2.028,2.439c2.57,2.6,8.5,11.444,9.005,13.345a61.367,61.367,0,0,1,1.966,12.016c.379,6.148.539,7.131,1.267,7.768.6.539.666.539,1.267,0a3.306,3.306,0,0,0,.794-1.714,33.9,33.9,0,0,1,.95-3.36,44.488,44.488,0,0,0,2.377-11.347c-.029-2.759-.728-4.63-3.233-8.467a17.631,17.631,0,0,0-6.148-6.181,23.7,23.7,0,0,1-3.331-2.566C235.051,181.083,232.262,179.941,231.057,180.669Zm4.819,3.647a18.411,18.411,0,0,0,2.85,2.282,17.856,17.856,0,0,1,6.818,7.069c2.628,4.375,2.978,5.231,3.043,7.513.062,1.871-.193,3.295-1.332,7.7-.95,3.582-1.172,4.5-1.427,5.548l-.222.95-.255-1.267a35.721,35.721,0,0,1-.251-4.5,35.4,35.4,0,0,0-.983-7.608c-1.27-5.77-1.711-7.069-3.3-9.414-.728-1.048-1.9-2.916-2.566-4.091a24.11,24.11,0,0,0-3.171-4.215c-1.27-1.267-1.682-1.838-1.143-1.584A11.02,11.02,0,0,1,235.877,184.316Z"
        transform="translate(55.367 -97.741)" fill="#fff" fill-rule="evenodd" />
      <path id="Path_658" data-name="Path 658"
        d="M220.862,198.166a4.283,4.283,0,0,1-2.377.349,18.5,18.5,0,0,0-4.343.571,25.4,25.4,0,0,0-6.181,2.6c-.506.284-1.744.888-2.694,1.329-3.171,1.525-7.2,5.646-7.99,8.179a30.43,30.43,0,0,0-.095,7.925c.349,2.919,1.362,6.09,3.677,11.7,3.171,7.7,7.324,18.576,8.685,22.824a95.058,95.058,0,0,1,3.964,17.593c1.554,10.749,1.3,16.3-1.11,24.57-1.554,5.355-5.2,20.763-6.148,26.118-3.236,17.785-2.57,29.991,2.534,47.012a42.049,42.049,0,0,0,7.229,14.615c1.554,2.188,4.532,6.465,6.625,9.508s4.088,5.835,4.4,6.184,2.158,2.566,4.091,4.911a81.827,81.827,0,0,1,8.747,12.522c1.143,1.9,2.664,4.47,3.393,5.675a60.636,60.636,0,0,1,5.42,11.317c2.031,6.152,2.948,13.887,2.282,18.99a22.086,22.086,0,0,0-.219,2.472c.284.349,1.14-.539,1.616-1.616.79-1.966.983-9.89.317-13.727-1.077-6.214-3.52-12.078-7.957-19.147-1.237-2-3.108-5.041-4.091-6.752a83.372,83.372,0,0,0-8.97-12.14c-1.711-2-4.059-5.041-5.264-6.723-1.172-1.678-4.026-5.737-6.338-9-2.282-3.265-4.885-7.131-5.708-8.558-2.25-3.931-5.009-12.806-6.785-21.811-.7-3.644-.855-5.388-.95-11.729-.255-12.839,1.016-20.763,7.229-44.7,3.232-12.522,3.487-16.166,1.871-27.388-.542-3.647-1.237-7.863-1.554-9.352-1.365-6.086-5.326-17.469-10.018-28.564-3.742-8.842-4.215-10.047-4.725-12.267a31.176,31.176,0,0,1-.506-5.58c0-3.043.062-3.422.983-5.26a17.186,17.186,0,0,1,5.485-6.181,68.356,68.356,0,0,1,12.424-4.121c9.162-1.809,20.1,1.678,28.721,9.064,3.108,2.664,5.708,8.529,8.845,19.908.539,2,1.394,5.136,1.933,6.975a91.547,91.547,0,0,1,2.949,14.044c.888,7.2,4.059,22.445,5.515,26.533,3.709,10.367,6.374,13.5,14.615,17.054,4.343,1.871,5.169,2.126,8.085,2.57a48.013,48.013,0,0,0,8.558.7,21.7,21.7,0,0,0,7.131-.983c4.47-1.172,8.245-2.978,10.4-4.914a46.314,46.314,0,0,0,3.931-4.372c2.854-3.647,8.431-10.3,8.813-10.527a12.946,12.946,0,0,0,1.551-2.312c2.41-4.091,5.74-7.451,10.971-11.033,1.394-.95,3.233-2.22,4.088-2.821,1.933-1.394,3.425-1.46,9.035-.284,4.849,1.012,8.274.95,10.4-.127a33.963,33.963,0,0,0,6.628-5.391c1.962-1.966,5.42-7.481,7.8-12.424,4.375-9.067,10.873-16.042,15.849-16.959,1.015-.193,1.3-.1,2.41.917a13.223,13.223,0,0,1,2.377,3.36c.633,1.2,1.776,3.233,2.537,4.5a69.8,69.8,0,0,1,6.909,15.533,82.409,82.409,0,0,1,1.744,14.615,23.87,23.87,0,0,0,.477,4.816c.127.095.473-.062.761-.379.506-.477.539-1.3.379-8.463-.157-8.434-.444-10.527-2-14.8a84.193,84.193,0,0,0-5.325-11.19c-1.078-1.649-2.632-4.281-4.124-6.912-.95-1.678-2.756-3.3-4.023-3.582-1.332-.284-4.346.382-6.5,1.427a22.324,22.324,0,0,0-4.153,2.981c-2.916,2.694-7.321,8.969-9.508,13.5-2.694,5.518-5.864,10.432-8.274,12.809a31.255,31.255,0,0,1-5.675,4.565c-1.078.568-3.393.444-7.863-.411-6.974-1.332-9.13-1.048-12.933,1.806-1.234.95-3.487,2.566-4.944,3.615a34.422,34.422,0,0,0-8.212,8.431,49.844,49.844,0,0,1-5.453,7.069c-1.045,1.2-3.327,4.026-5.071,6.246-3.455,4.343-4.976,5.675-8.591,7.386-2.948,1.394-9.067,3.01-11.412,3.01a57.55,57.55,0,0,1-10.716-1.267,31.748,31.748,0,0,1-12.806-6.942c-1.427-1.332-3.52-5.263-4.976-9.384-1.776-5.009-4.976-19.97-5.9-27.581a76.946,76.946,0,0,0-3.17-14.612c-.79-2.759-1.806-6.308-2.217-7.9-2.126-7.8-4.568-14.106-6.691-17.338-.823-1.238-3.677-3.677-6.752-5.8a10.151,10.151,0,0,1-2-1.649,4.52,4.52,0,0,0-1.424-1.012,103.53,103.53,0,0,0-13.315-4.343C224.32,197.689,221.371,197.659,220.862,198.166Z"
        transform="translate(-20.537 -58.43)" fill="#fff" fill-rule="evenodd" />
      <path id="Path_659" data-name="Path 659"
        d="M213.575,202.138a40.457,40.457,0,0,0-4.6,1.048c-.793.284-2.028.7-2.789.918-1.015.287-1.9.953-3.392,2.57-2.253,2.344-2.22,2.282-2.093,6.56.127,4.852,1.237,8.372,5.9,18.736a74.913,74.913,0,0,1,4.437,12.078c.284,1.3.633,2.759.793,3.3.157.506.539,2.5.823,4.437.7,4.819.444,18.863-.444,25.521-1.933,13.946-1.966,14.04-3.677,23.3-.444,2.315-1.616,9.606-2.41,14.742-.157,1.14-.7,5.42-1.14,9.508a84.822,84.822,0,0,0-.666,15.853c.157,7.164.317,9,.983,12.522a46.53,46.53,0,0,0,8.081,18.164c.921,1.172,2.981,4.026,4.568,6.37a48.27,48.27,0,0,0,5.61,6.974,33.349,33.349,0,0,1,3.866,4.47,31.576,31.576,0,0,0,2.475,3.17,28.89,28.89,0,0,1,2.09,2.534,44.042,44.042,0,0,0,4.186,4.343c5.864,5.486,8.336,9.861,13.694,24.254a9.212,9.212,0,0,0,1.332,2.788c.666,0-.382-3.742-3.076-10.968-3.105-8.274-5.2-11.634-10.429-16.77a54.37,54.37,0,0,1-4.281-4.6c-.6-.793-1.678-2.06-2.41-2.854a17.571,17.571,0,0,1-2.155-2.916,30.347,30.347,0,0,0-3.422-4.121,71.4,71.4,0,0,1-5.708-7.229c-1.711-2.534-3.739-5.388-4.5-6.338a51.025,51.025,0,0,1-5.9-10.589c-2.158-5.042-3.52-14.2-3.52-23.49,0-6.181,2.472-25.012,5.071-38.833.888-4.725,1.871-10.935,3.17-20.447.349-2.442.793-7.863,1.016-12.045.317-6.818.317-8.052-.189-11.572a76.553,76.553,0,0,0-6.374-22.19c-3.295-7.324-3.931-8.813-4.4-10.3a31.008,31.008,0,0,1-1.46-8.845c0-2.537.033-2.661,1.143-4.088,1.489-1.936,2.5-2.5,5.992-3.487,6.181-1.682,8.369-1.838,13.25-.826,3.549.731,4.565,1.175,8.241,3.582,2.664,1.744,3.771,3.108,7.291,9.067a33.974,33.974,0,0,1,3.9,11.285c.539,2.854,1.616,13.887,1.871,19.147a154.173,154.173,0,0,0,1.9,18.863c.473,2.093,2.883,9.574,3.9,12.045.79,1.966,2.377,5.515,3.422,7.608a93.252,93.252,0,0,0,7.579,9.985c2.377,2.632,8.4,5.992,13.534,7.513,2.632.793,3.425.888,7.7.888,5.169,0,6.723-.349,11.1-2.41,1.048-.506,3.014-1.329,4.408-1.868a30.58,30.58,0,0,0,8.019-4.5c.888-.761,2.916-2.377,4.47-3.647a26.059,26.059,0,0,0,6.5-7.226c5.3-7.925,15.63-17.531,20.319-18.863,2.158-.6,3.487-.222,6.341,1.744,3.393,2.282,5.959,3.3,9.195,3.582a13.714,13.714,0,0,0,8.653-1.522c3.138-1.551,5.263-3.517,9.352-8.653a29.648,29.648,0,0,0,5.486-9.639c1.107-3.138,3.01-6.4,4.343-7.481a2.245,2.245,0,0,1,2.315-.666c1.489.255,5.388,3.709,6.4,5.613.855,1.616,1.234,5.42,1.522,14.8.189,6.338.444,7.859,1.362,8.176.477.16.539-13.567.062-18.481-.411-4.215-1.172-5.7-4.31-8.5-2.472-2.155-4.4-3.073-6.53-3.073-2.093,0-4.819,3.677-7.386,9.952a27.165,27.165,0,0,1-5.26,8.908c-3.108,3.8-4.947,5.77-6.468,6.785a21.3,21.3,0,0,1-6.658,2.726c-3.17.477-7.892-1.045-10.968-3.487a11.187,11.187,0,0,0-6.246-2.377c-2.945.033-5.864,1.711-11.663,6.72a80.416,80.416,0,0,0-12.9,14.8,25.36,25.36,0,0,1-3.709,4.088c-1.14.953-3.043,2.57-4.277,3.615-3.014,2.57-5.675,4.121-10.684,6.152-7.9,3.265-8.307,3.389-12.333,3.549a15.888,15.888,0,0,1-6.5-.666,37.8,37.8,0,0,1-10.841-5.136c-1.616-1.234-5.074-5.1-8.685-9.825-1.175-1.492-4.535-9.417-6.308-14.775-2.41-7.321-3.076-11.507-3.775-23.9-.349-6.148-1.332-16.261-1.933-19.653a47.5,47.5,0,0,0-3.265-10.811,91.8,91.8,0,0,0-5.486-8.685A36.634,36.634,0,0,0,228.7,204.1a40.585,40.585,0,0,0-9.89-2.344,30.406,30.406,0,0,0-5.231.379Z"
        transform="translate(-12.203 -49.501)" fill="#fff" fill-rule="evenodd" />
      <path id="Path_660" data-name="Path 660"
        d="M212.237,203.678a13.964,13.964,0,0,0-2.854.888,18.317,18.317,0,0,0-5.2,5.293c-2.188,3.2-2.093,5.518.477,11.255a14.97,14.97,0,0,1,.918,2.537,23.748,23.748,0,0,0,.95,2.534,23.265,23.265,0,0,1,1.11,2.759,21.557,21.557,0,0,0,2.155,3.8c2.253,3.393,3.076,5.071,3.582,7.226.222.953.666,2.38.953,3.171.568,1.46,1.394,7.324,1.744,12.522.124,1.554.539,5.169.95,7.99.7,4.594.728,5.9.6,12.679-.222,10.367-1.394,23.49-2.632,29.576-.317,1.649-.761,4.153-.98,5.548-.349,2.475-1.015,6.024-1.587,8.561a97.286,97.286,0,0,0-2.377,13.946c-.444,4.47-.477,5.9-.16,8.4,1.175,9.479,2.22,14.233,4.153,19.02a113.3,113.3,0,0,0,6.974,13.822c.477.7,4.281,4.47,8.434,8.369,8.463,7.99,20.571,20.068,23.14,23.046a14.718,14.718,0,0,1,3.422,6.246c.193.855.382,1.143.761,1.077.382-.095.477-.411.415-1.522-.127-1.966-1.27-4.153-3.68-7.131-2.439-3.014-15.216-15.977-23.013-23.3-3.043-2.887-6.054-5.8-6.72-6.5-2.759-2.886-9.322-17.152-10.083-21.873a23.394,23.394,0,0,0-.473-2.41,106.447,106.447,0,0,1-1.554-10.873c-.189-3.742.7-11.572,2-17.691.7-3.233,1.522-7.291,1.773-9.035.287-1.711.859-4.881,1.27-7.069.95-4.816,1.2-6.814,2.217-16.894,1.016-10.145,1.078-19.781.193-25.994-.349-2.315-.793-6.057-.983-8.307-.6-6.592-1.2-11-1.744-12.489-.255-.793-.7-2.348-.983-3.487-.477-2.155-1.143-3.455-3.553-7.131a35.7,35.7,0,0,1-2.377-4.441A86.7,86.7,0,0,1,205.9,217.15a3.848,3.848,0,0,0-.477-1.427,1.056,1.056,0,0,1-.284-.633c0-.157.16-.095.317.16.189.284.317.317.317.095a.856.856,0,0,0-.349-.6c-.539-.317-.029-2.916.826-4.4a10.583,10.583,0,0,1,9.352-5.358c2.694.033,3.393.411,6.687,3.837,8.15,8.369,9.512,10.08,9.956,12.617.127.7.477,2.344.793,3.644,1.078,4.343,1.234,7.324,1.427,24.887.189,19.209.473,23.235,2.06,29,2.25,8.274,7.448,17.341,12.839,22.445a34.414,34.414,0,0,0,7.415,5.61,16.758,16.758,0,0,1,2.6,1.744c2.028,1.616,4.215,2.377,8.842,3.17,9.1,1.554,10.272,1.649,16.231,1.14A47.538,47.538,0,0,0,292,311.968c1.14-.349,3.265-.921,4.754-1.3,3.866-.983,6.942-2.726,11.983-6.752,6.086-4.914,8.209-6.847,11.441-10.527,6.374-7.193,14.68-14.739,16.264-14.739a20.435,20.435,0,0,1,4.186,2.028c3.961,2.315,5.832,2.886,8.209,2.632,3.742-.444,8.78-4.026,11.983-8.5a65.286,65.286,0,0,1,4.692-5.482c4.121-4.408,5.548-6.279,7.513-9.828,1.456-2.6,3.171-4.63,3.993-4.63.728,0,2.344,2.188,2.886,3.869.7,2.22.663,2.661-.127,7.291-.731,4.183-.633,5.264.666,10.08.346,1.3,1.711,6.5,3.011,11.572,3.2,12.489,3.742,14.233,4.343,14.36.444.095.444-.16.062-2.22-.983-5.577-3.422-16.388-4.787-21.335-1.678-6.086-1.868-8.525-1.078-14.266.415-2.945.415-3.327-.127-5.038a13.523,13.523,0,0,0-1.456-3.043,6.5,6.5,0,0,0-4.153-2.537c-1.332.033-3.52,2.472-5.263,5.9a34.266,34.266,0,0,1-4.277,4.914,63.027,63.027,0,0,0-6.181,7.259c-2.887,4.088-4.313,5.737-6.406,7.353-2.406,1.9-4.055,2.6-6.21,2.6a5.5,5.5,0,0,1-3.8-1.11,30.406,30.406,0,0,0-6.69-3.3,6.364,6.364,0,0,0-2.282.16c-2.188.568-9.29,7-17.848,16.228-5.42,5.77-14.55,13.188-18.132,14.677-.572.255-3.138,1.015-5.708,1.714a46.471,46.471,0,0,1-21.746,1.107c-6.308-.98-8.94-1.773-10.651-3.138a20.811,20.811,0,0,0-2.854-1.933,39.226,39.226,0,0,1-10.84-9.479A57.154,57.154,0,0,1,238.548,279c-1.584-5.77-2-10.272-2.155-24.6-.255-23.585-.287-24.316-1.2-28.215-.444-1.933-.983-4.31-1.172-5.293a8.767,8.767,0,0,0-1.871-3.771,37.327,37.327,0,0,1-2.253-3.331c-.95-1.744-5.228-6.37-6.148-6.658a2.286,2.286,0,0,1-.856-.411,19.251,19.251,0,0,0-4.121-2.537,10.6,10.6,0,0,0-6.53-.506Z"
        transform="translate(-7.726 -45.777)" fill="#fff" fill-rule="evenodd" />
      <path id="Path_661" data-name="Path 661"
        d="M184.067,205.861c-8.656,1.933-9.606,2.22-12.839,3.775a44.02,44.02,0,0,0-10.968,7.353c-2.792,2.759-7.164,9.289-10.968,16.293-2.475,4.565-6.6,13.443-6.341,13.665.473.473,1.14-.32,2.726-3.236,4.248-7.8,5.326-9.7,7.259-12.806,3.644-5.864,7.608-11.285,9.541-13.093,4.153-3.8,11.16-7.67,15.977-8.78,10.272-2.377,10.3-2.377,15.281-2.344a37.256,37.256,0,0,1,8.875.885c7.291,1.492,11.1,3.014,19.085,7.673,8.747,5.1,14.837,10.018,16.483,13.283.444.855,1.46,2.661,2.253,3.961,2.661,4.375,3.2,8.911,1.394,12.049-1.649,2.883-6.785,7.608-13.538,12.395-2.25,1.616-4.976,3.677-6.021,4.565s-3.33,2.726-5.074,4.026a52.945,52.945,0,0,0-10.269,10.207c-1.554,2.155-3.931,6.148-7.863,13.188-5.42,9.7-8.78,17.848-10.589,25.677a24.951,24.951,0,0,0-.633,7.608c.065,2.534.127,5.675.16,6.975a15.594,15.594,0,0,1-.222,3.072c-.222.6-.16.731.379.731,1.46,0,2-2.886,1.554-8.4-.506-6.625.633-12.333,4.343-21.4,2-4.885,3.866-8.591,8.813-17.247,6.308-11.128,8.907-14.2,17.626-20.953,1.806-1.394,4.437-3.425,5.864-4.535,1.394-1.078,3.771-2.821,5.264-3.833,5.071-3.487,10.3-8.369,12.267-11.382.95-1.456,1.11-2,1.267-4.277a13.567,13.567,0,0,0-1.616-7.83c-.379-.6-1.489-2.5-2.41-4.219a21.468,21.468,0,0,0-3.771-5.133c-6.086-5.962-20.257-14.266-27.738-16.326a58.156,58.156,0,0,0-15.725-2.38C188.632,204.944,188.126,204.973,184.067,205.861Z"
        transform="translate(-142.941 -42.097)" fill="#fff" fill-rule="evenodd" />
      <path id="Path_662" data-name="Path 662"
        d="M209.7,206.194a9.734,9.734,0,0,0-3.866,3.487,6.809,6.809,0,0,0-.16,6.308c1.27,3.043,5.136,10.935,6.5,13.312a47.168,47.168,0,0,1,5.708,17.753c.728,9,1.394,12.966,2.41,14.488.6.95,1.966.95,3.138.029,1.616-1.267,1.806-2.282,2.093-10.713.157-4.281.349-9.985.474-12.679a44.17,44.17,0,0,0-.317-8.718c-.983-7.007-3.389-14.775-5.42-17.6a24.138,24.138,0,0,0-5.61-5.038c-1.237-.7-3.931-1.078-4.947-.634Zm3.677,2.312a25.172,25.172,0,0,1,3.043,2.664,12.125,12.125,0,0,1,3.615,5.453,63.075,63.075,0,0,1,3.742,14.422,48.347,48.347,0,0,1,.317,9.512c-.095,3.138-.255,8.5-.287,11.885-.095,5.136-.219,6.374-.7,7.389-1.46,3.073-2.344-.415-3.33-13.093a30.873,30.873,0,0,0-1.234-7.134c-.921-2.978-3.233-8.813-3.837-9.508-.634-.793-5.77-11.19-6.341-12.871-1.172-3.487-.761-6.5,1.237-8.623a1.656,1.656,0,0,1,1.933-.7,8.318,8.318,0,0,1,1.838.6Z"
        transform="translate(-2.404 -39.859)" fill="#fff" fill-rule="evenodd" />
      <path id="Path_663" data-name="Path 663"
        d="M170.453,208.2c-.855.255-2.155.6-2.854.761a97.64,97.64,0,0,0-11.1,4.47c-2.534,1.584-6.5,6.687-7.608,9.828-.6,1.678-.6,1.584.127,1.584.379,0,1.045-.823,2.093-2.632a25.666,25.666,0,0,1,3.931-5.009c2.41-2.377,2.5-2.41,7.386-4.31a78.424,78.424,0,0,1,8.241-2.759l3.327-.823,8.212.317c9.224.349,10.651.6,17.531,3.01,7.131,2.475,9.508,4,15.216,9.639,3.455,3.422,4.248,5.1,4.281,9.224a7.961,7.961,0,0,1-.953,4.754c-1.678,3.487-5.355,6.814-13.916,12.522-2.632,1.711-6.56,4.565-8.78,6.341-2.188,1.744-4.787,3.771-5.737,4.532s-3.647,3.327-5.992,5.708c-5.136,5.2-7.418,8.525-9.668,14.044-1.714,4.183-2.22,6.243-3.265,13.724-.7,4.914-1.776,9.195-2.854,11.288-1.237,2.439-4.6,4.121-13.567,6.847a.305.305,0,0,0-.193.473c.539.888,8.369-.95,12.205-2.883s5.263-5.2,6.785-15.755c.444-3.108,1.077-6.723,1.394-8.052a50.214,50.214,0,0,1,5.326-11.856c2.093-3.043,9.574-10.494,14.36-14.266,2.188-1.711,4.6-3.647,5.388-4.281s2.824-2.028,4.568-3.105a74.553,74.553,0,0,0,12.013-8.907,16.465,16.465,0,0,0,4.121-5.358c1.2-2.472,1.332-2.886,1.3-5.1,0-4.725-1.551-7.513-6.782-12.267-5.453-4.947-7.8-6.308-15.219-8.845-7.83-2.664-9.763-2.981-19.493-3.17C173.558,207.761,171.753,207.826,170.453,208.2Z"
        transform="translate(-130.437 -35.722)" fill="#fff" fill-rule="evenodd" />
      <path id="Path_664" data-name="Path 664"
        d="M183.1,210.034c-.255.062-2.41.349-4.754.633s-5.136.666-6.181.823c-2.475.444-8.529,2.981-13.188,5.548-2,1.11-4.313,2.315-5.136,2.664a11.635,11.635,0,0,0-2.472,1.522c-1.11.921-2.821,3.425-2.821,4.088,0,.826,1.234.415,1.868-.633,1.081-1.773,1.966-2.377,8.023-5.453,10.68-5.388,12.489-6.021,20.381-7,5.835-.731,10.3-.7,14.014.127,3.549.79,4.816,1.424,8.463,4.248,4.4,3.36,5.26,4.881,5.26,9.446,0,3.393-.444,4.692-2.534,7.735-2.919,4.215-5.93,6.625-13.093,10.524-6.181,3.36-8.558,4.881-12.395,7.987a44.889,44.889,0,0,0-5.041,4.663c-2.6,3.232-5.388,10.524-6.88,17.972-1.518,7.513-2.661,11.317-3.866,13.031-1.332,1.868-5.136,2.694-8.241,1.744a6.247,6.247,0,0,1-3.931-4.568c-.382-2.6-1.394-2.628-1.394-.062a6.038,6.038,0,0,0,4.47,5.93c3.931,1.172,8.114.633,10.174-1.365,1.587-1.522,2.348-3.393,3.582-8.685.633-2.566,1.492-6.181,1.9-8.052,1.744-7.386,4.47-13.694,6.909-16.042A61.654,61.654,0,0,1,191.5,246.173c2.282-1.175,5.136-2.792,6.338-3.582,4.47-2.886,9.227-8.369,10.462-12.111a12.751,12.751,0,0,0,.411-4.852c-.157-4.689-.823-5.8-5.8-9.636-4.343-3.36-6.214-4.281-10.367-5.2A41.159,41.159,0,0,0,183.1,210.034Z"
        transform="translate(-130.243 -30.894)" fill="#fff" fill-rule="evenodd" />
      <path id="Path_665" data-name="Path 665"
        d="M269.446,211.954a14.083,14.083,0,0,0-5.388,5.959,34.578,34.578,0,0,1-3.455,5.547,41.173,41.173,0,0,1-7.324,6.88c-.793.477-2.22,1.362-3.171,2.028-.95.637-3.866,2.253-6.5,3.615-2.6,1.365-4.914,2.57-5.071,2.727-.193.127-1.492.666-2.854,1.2-1.394.506-4.375,1.806-6.658,2.883-2.25,1.081-5.642,2.664-7.481,3.487a52.847,52.847,0,0,0-5.231,2.632,38.793,38.793,0,0,1-5.042,2.282c-4.31,1.616-4.914,1.933-11.252,6.119a48.093,48.093,0,0,0-9.512,7.641c-6.625,6.658-12.584,14.171-14.9,18.736a111.284,111.284,0,0,0-4.944,13.156c-.983,3.517-2.981,18.987-2.981,22.791a129.394,129.394,0,0,1-2.41,14.138c-.571,2.57-3.455,7.9-4.47,8.274-.888.317-.95.921-.095.921,1.238,0,2.22-.761,3.455-2.664a20.807,20.807,0,0,0,3.487-8.94c.317-1.9.888-5.166,1.27-7.258.346-2.093.95-6.88,1.3-10.618.823-8.274,1.424-12.682,2.25-15.915a104.579,104.579,0,0,1,4.881-13.41c2.028-4.183,7.768-11.445,14.3-18.1,3.265-3.3,4.565-4.343,9.8-7.83,4.659-3.108,6.749-4.281,9.348-5.3,1.842-.7,4.251-1.744,5.391-2.344,1.14-.571,2.916-1.489,3.964-2.031s3.2-1.551,4.754-2.25c1.584-.7,4.819-2.122,7.2-3.2,2.377-1.048,4.881-2.126,5.548-2.348A162.692,162.692,0,0,0,252.9,232.59a51.641,51.641,0,0,0,5.012-3.582,38.933,38.933,0,0,0,7.481-9.541c2.093-3.771,3.171-5.071,5.577-6.563a5.679,5.679,0,0,1,3.52-1.172c3.52,0,8.845,3.869,11.889,8.656,1.744,2.694,2,3.484,3.2,9.414,1.077,5.231,1.11,5.58,1.11,12.744,0,7.131-.033,7.513-.918,10.873-1.871,7.069-2.854,9.7-7.484,20.447-3.611,8.431-4.944,17.815-4.976,35.506-.033,18.448.633,22.664,4.881,31,2.315,4.565,3.236,6.21,7.546,13.534.823,1.394,1.838,3.171,2.217,3.964a138.857,138.857,0,0,0,7.863,11.951c2.886,3.866,9.766,17.371,12.395,24.283.761,1.962,1.332,7.164,1.27,11.317-.095,6.687-.065,6.971.633,6.971.823,0,.983-.568,1.332-4.594.761-9.446.189-12.46-4.375-22.318a124.02,124.02,0,0,0-9.13-16.2,114.864,114.864,0,0,1-10.05-15.852c-1.394-2.5-2.916-5.133-3.392-5.864a86.458,86.458,0,0,1-7.1-14.422c-1.492-5.2-1.649-7.353-1.649-23.3,0-13.662.062-15.311.7-19.97,1.143-8.179,2.188-11.666,6.374-21.4,3.043-6.971,5.675-15.438,6.119-19.493a65.639,65.639,0,0,0,.029-9.195c-.666-13.884-3.517-21.08-10.364-26.151-3.141-2.315-4.787-2.949-7.928-3.108l-2.851-.127Z"
        transform="translate(-104.055 -29.898)" fill="#fff" fill-rule="evenodd" />
      <path id="Path_666" data-name="Path 666"
        d="M180.7,212.978a94.432,94.432,0,0,0-10.778,3.742c-5.231,2.694-9.067,5.482-11.794,8.558a124.24,124.24,0,0,0-8.274,11.35c-1.172,1.933-3.073,6.432-2.821,6.687.349.349.826-.222,2.158-2.661,3.422-6.308,10.458-14.964,14.706-18.1a50.273,50.273,0,0,1,12.205-6.246c6.214-2.155,7.134-2.312,12.682-2.312,5.894,0,7.481.411,9,2.282.888,1.14.983,1.424.983,3.487a9.9,9.9,0,0,1-2.759,7.353,54.06,54.06,0,0,1-10.269,8.241,44.216,44.216,0,0,0-8.689,6.436c-6.054,5.486-6.814,6.4-8.715,10.334a49.234,49.234,0,0,0-2.57,6.753,36.229,36.229,0,0,1-4.787,10.618c-1.332,1.966-1.584,2.158-2.41,2.031-.7-.127-.888-.033-.79.379.062.382.473.571,1.424.633,1.27.095,1.365.033,2.948-1.9a31.185,31.185,0,0,0,5.2-10.746A44.464,44.464,0,0,1,171.7,249.4c1.456-2.25,10.142-9.828,13.851-12.111,5.518-3.327,10.367-7.226,12.839-10.269a12.939,12.939,0,0,0,2.442-7.481,5.127,5.127,0,0,0-.921-3.425c-1.172-1.871-1.838-2.282-4.787-3.076-3.171-.888-11.063-.918-14.422-.062Z"
        transform="translate(-133.713 -25.469)" fill="#fff" fill-rule="evenodd" />
      <path id="Path_667" data-name="Path 667"
        d="M178.493,214.908a18.028,18.028,0,0,0-7.611,3.458,48.973,48.973,0,0,0-10.24,8.747c-8.4,9.162-12.107,16.835-13.913,28.786-.349,2.25-.255,3.2.251,2.694.127-.095.888-2.664,1.744-5.675,3.108-11.19,5.93-16.421,12.933-24.156,4.121-4.565,4.787-5.136,10.207-8.813,3.709-2.5,4.219-2.759,7.356-3.52,3.582-.918,7.353-1.107,9.479-.539,1.522.444,1.933,1.554,1.489,4.059-.7,3.709-1.616,4.976-6.468,8.656-1.551,1.2-3.771,2.978-4.911,3.961s-3.363,2.664-4.947,3.771a32.29,32.29,0,0,0-9.13,9.766c-2.093,3.517-2.472,4.437-3.677,9.1-.855,3.3-.855,3.327-1.871,3.425-1.362.124-1.11.823.349.95,1.711.157,2.25-.6,3.265-4.375a30.154,30.154,0,0,1,12.806-18.292c1.649-1.14,4.215-3.105,5.7-4.343,1.492-1.267,3.458-2.821,4.346-3.455,2.851-2.06,5.388-5.041,5.926-6.942,1.143-4.059.855-6.086-.95-7.04a24.721,24.721,0,0,0-7.324-1.107,27.6,27.6,0,0,0-4.816.885Z"
        transform="translate(-134.83 -21.694)" fill="#fff" fill-rule="evenodd" />
      <path id="Path_668" data-name="Path 668"
        d="M168.574,216.45a37.059,37.059,0,0,0-4.659,2.854c-8.718,5.894-16.042,16.548-14.52,21.142a2,2,0,0,0,1.27,1.492c1.14.411,2.09-.287,4.375-3.33,3.327-4.4,10.4-10.651,14.517-12.839,2-1.045,5.293-4.248,5.93-5.737.663-1.522.568-2.821-.255-3.393C174.47,216.1,170.16,215.973,168.574,216.45Zm5.453,1.744c0,1.871-2.348,4.437-6.024,6.658A60.629,60.629,0,0,0,153.3,238.385a12.115,12.115,0,0,1-2.093,2.472c-.539,0-.349-3.105.317-4.881.888-2.377,2.756-5.133,6.119-9.13,2.948-3.549,4.565-5.009,5.482-5.009a9.957,9.957,0,0,0,2.664-1.744c2.661-2.188,3.8-2.661,6.276-2.694C173.964,217.4,174.026,217.433,174.026,218.194Z"
        transform="translate(-128.779 -16.863)" fill="#fff" fill-rule="evenodd" />
      <path id="Path_669" data-name="Path 669"
        d="M263.016,218.408c-3.615,1.012-7.419,3.073-14.55,7.83a57.6,57.6,0,0,1-7.608,4.4c-1.492.634-4.47,2.06-6.658,3.171a25.531,25.531,0,0,1-7.134,2.694,35.7,35.7,0,0,0-6.5,2.22c-1.838.823-4.248,1.838-5.358,2.25-2.472.888-10.618,5.737-14.328,8.529a51.281,51.281,0,0,0-12.522,13.789c-6.054,9.923-7,12.013-9.668,21.746-1.045,3.9-2.472,9.035-3.138,11.379s-1.522,5.835-1.9,7.768a137.147,137.147,0,0,1-3.647,14.266c-.728,2.439-1.682,5.992-2.06,7.925-.666,3.36-2.377,11.033-3.993,17.91-.731,3.014-1.809,7.007-2.253,8.117-.095.284.065.444.349.444,1.015,0,2.694-4.757,5.548-15.853.888-3.389,1.966-7.892,2.41-10.018s1.554-6.4,2.5-9.508,2.155-7.83,2.694-10.429c1.332-6.308,2.726-11.572,7.037-26.471a50.289,50.289,0,0,1,5.551-12.173c5.832-9.7,9-13.377,16.071-18.546a89.9,89.9,0,0,1,12.107-7.131c1.237-.506,3.774-1.616,5.646-2.442a43.459,43.459,0,0,1,6.338-2.217,28.8,28.8,0,0,0,8.783-3.487,43.308,43.308,0,0,1,4.277-2.028c3.393-1.332,4.408-1.9,9.352-5.231,6.69-4.47,10.622-6.563,13.982-7.484a23.372,23.372,0,0,1,4.248-.761c1.172,0,1.489.16,2.472,1.238a25.9,25.9,0,0,1,4.215,7.673c.731,2.09.856,2.945.983,8.209l.189,5.864-2,6.818c-1.933,6.749-4.153,13.472-7.229,22.03-2.315,6.436-3.8,14.393-4.944,26.788-.826,8.5-.921,11.951-.539,16.483a47.161,47.161,0,0,0,2.439,12.333,42.955,42.955,0,0,0,7.04,13c1.646,2.188,4.15,5.708,5.547,7.8s4.565,6.5,7.037,9.825c5.926,8.023,7.164,10.083,9.192,15.314.921,2.439,2.632,6.338,3.742,8.653a54.212,54.212,0,0,1,2.41,5.515c.444,1.616.444,5.074.029,5.9-.284.477-.219.6.222.6,1.27,0,1.9-2.7,1.365-5.74a34.815,34.815,0,0,0-2.25-6.148c-1.048-2.282-2.7-6.308-3.68-9-2.06-5.646-3.295-7.8-8.5-14.87-2.09-2.821-5.45-7.543-7.481-10.462-1.995-2.916-4.914-7-6.436-9.1-8.937-12.173-10.651-23.046-7.608-48.09a89.178,89.178,0,0,1,2.948-14.9c.509-1.456,2.22-6.341,3.8-10.873s3.775-11.1,4.882-14.582L278.421,243v-6.5c0-6.021-.062-6.658-.761-8.718-1.773-5.26-4.816-9.668-6.974-10.08A16.913,16.913,0,0,0,263.016,218.408Z"
        transform="translate(-100.509 -13.779)" fill="#fff" fill-rule="evenodd" />
      <path id="Path_670" data-name="Path 670"
        d="M233.293,224.692a18.65,18.65,0,0,0-6.119,1.554c-1.773.728-4.277,1.584-5.548,1.933-4.627,1.267-7.353,2.537-9.8,4.5-1.267,1.045-3.517,2.726-5.009,3.739-3.837,2.664-6.782,5.486-12.551,12.049-5.041,5.8-6.942,8.274-7.83,10.429-1.11,2.6-3.458,8.4-5.136,12.711-.983,2.537-2.472,6.308-3.331,8.4a53.454,53.454,0,0,0-4.121,15.216c-2.41,18.638-3.993,25.867-7.83,35-.728,1.806-1.362,3.425-1.362,3.582s.284.127.633-.062c1.587-.855,6.181-12.555,7.291-18.546.382-2.093.95-5.231,1.267-6.975s.888-5.515,1.237-8.4c.379-2.886.921-6.53,1.172-8.085a65.372,65.372,0,0,1,3.553-11.412c.251-.539,1.012-2.377,1.646-4.121,2.348-6.246,6.723-16.835,7.673-18.514a38.027,38.027,0,0,1,2.916-3.964C199.5,245.044,204.383,240.2,208.5,237.5c1.267-.823,3.36-2.344,4.659-3.389,2.759-2.188,3.837-2.7,8.973-4.219,2.06-.633,5.071-1.616,6.625-2.217,2.5-.983,3.422-1.172,7.575-1.46,5.61-.444,6.72-.251,11,1.838,3.582,1.744,5.038,3.138,6.5,6.214a10.735,10.735,0,0,1,1.015,7.863c-.888,5.166-1.871,7.575-7.134,17.56a45.666,45.666,0,0,0-5.515,17.786c-.983,7.448-.855,11.412.444,17.625,2.22,10.524,4.565,15.722,11.794,25.962,12.3,17.436,14.2,20.479,18.448,29.325,1.871,3.833,2.06,4.5,3.043,10.3,1.11,6.308.823,10.746-.855,14.8-1.365,3.233-3.52,6.752-4.408,7.131-.95.444-.983.888-.029.888,2.406,0,5.959-4.5,7.608-9.668a36.434,36.434,0,0,0,1.012-8.94c-.062-.473-.441-2.821-.823-5.166-1.015-6.4-1.806-8.339-7.513-18.229-2.948-5.1-4.281-7.1-10.524-15.689-9.828-13.475-11.823-17.057-13.982-25.044-2.883-10.746-3.105-15.248-1.332-25.994a55.526,55.526,0,0,1,7.04-18.164c3.327-5.42,5.864-14.9,5.1-18.99a16.214,16.214,0,0,0-3.647-7.2c-1.678-1.773-5.548-3.928-9.414-5.228-2.6-.888-4.947-.983-10.873-.509Z"
        transform="translate(-93.737 1.839)" fill="#fff" fill-rule="evenodd" />
      <path id="Path_671" data-name="Path 671"
        d="M352.829,227.4c-2.155.666-6.276,3.961-10.9,8.747-3.331,3.425-3.582,3.615-5.263,3.964-2,.382-3.615.127-6.181-.95a16.377,16.377,0,0,0-3.17-.983,19.943,19.943,0,0,0-8.463.917c-1.933.856-6.818,5.169-10.746,9.479a23.843,23.843,0,0,1-3.775,3.109,41.19,41.19,0,0,0-5.009,4.088c-4.532,4.281-11.791,7.83-17.309,8.463-1.522.16-3.422.444-4.248.633-1.9.444-11.823.444-16.8,0-9-.823-19.973-4.976-25.455-9.668-4.565-3.9-5.959-5.737-9.923-13.185-2.981-5.613-4.725-8.339-5.9-9.352-1.9-1.62-3.265-1.842-4.343-.7-2.093,2.22-3.582,11.379-4.787,28.91-.157,2.442-.666,6.942-1.11,9.985-2.06,14.393-2.184,15.758-2,21.24.251,7.481,1.678,12.14,5.388,17.531.888,1.3,6.88,7.575,15.82,16.453l14.36,14.36,2.632,4.215a130.927,130.927,0,0,1,10.968,22.03c.666,1.809,1.329,1.809,1.2.033-.349-3.9-5.074-14.55-10.112-22.7-3.076-4.976-2.031-3.9-24.316-25.838-9.286-9.162-10.84-11.285-12.868-17.593-1.27-4.059-1.62-11.223-.793-17.054.284-1.838.7-5.2.95-7.451.284-2.282.793-5.959,1.14-8.241.349-2.25.761-6.625.921-9.7.506-9.89,1.776-19.369,3.076-23.425,1.234-3.742,2.661-2.315,7.863,7.765a83.075,83.075,0,0,0,4.372,7.546,42.432,42.432,0,0,0,8.434,8.052,89.44,89.44,0,0,0,12.078,5.547c.444.095,2.5.633,4.594,1.172a77.221,77.221,0,0,0,21.367,1.682c7.7-.637,10.938-1.238,14.932-2.824a33.624,33.624,0,0,0,11.507-6.971,52.571,52.571,0,0,1,5.453-4.375A24.708,24.708,0,0,0,310.7,248.6c2.883-3.327,7.637-7.575,9.381-8.369a9.526,9.526,0,0,1,4.441-.826,9.421,9.421,0,0,1,5.355,1.015,10.43,10.43,0,0,0,5.231,1.078c3.455.033,4.659-.411,6.563-2.439,7.1-7.608,11.856-11.16,14.171-10.556a16.079,16.079,0,0,1,3.073,2.472c4.091,3.964,4.375,5.293,5.962,28.149.124,2.188.222,5.009.189,6.246-.065,2.377.095,2.694.823,1.773.6-.7.633-19.431.033-24.091-.761-6.086-2.567-10.716-4.754-12.427a29.531,29.531,0,0,1-2.315-1.966,6.266,6.266,0,0,0-6.024-1.267Z"
        transform="translate(3.049 7.98)" fill="#fff" fill-rule="evenodd" />
      <path id="Path_672" data-name="Path 672"
        d="M221.011,227.7a39.124,39.124,0,0,0-6.152,1.11c-3.866,1.234-7.7,3.677-11.856,7.513-8.62,7.987-10.808,10.112-12.078,11.729-1.616,2.122-10.047,16.421-11.19,19.02a110.2,110.2,0,0,0-5.482,16.231c-.571,2.537-1.492,6.243-2.06,8.241s-1.332,4.852-1.682,6.341c-.379,1.489-.888,3.615-1.172,4.754a25.753,25.753,0,0,0-1.015,9.668,36.926,36.926,0,0,0,.826,6.975c.983,3.931,1.329,6.53.95,7.036-.477.539-.095,4.565.666,7.546.918,3.615,3.422,9.319,4.881,11.255.728.95,2.028,2.821,2.883,4.121.826,1.3,1.936,2.948,2.475,3.611,2.6,3.3,13.851,8.845,22.252,10.971,3.393.888,4.627,1.012,11.19,1.3,9.668.411,12.427.157,18.8-1.744,2.7-.826,5.835-1.776,6.974-2.093,4.408-1.332,8.591-4.692,10.178-8.241,1.551-3.425,1.966-5.74,1.551-8.783a43.639,43.639,0,0,0-2.5-9.129,108.618,108.618,0,0,0-7.291-13,175.947,175.947,0,0,1-9.825-15.249c-2.6-5.071-4.725-11.856-6.785-21.524a33.33,33.33,0,0,1-.666-8.875,54.591,54.591,0,0,1,.539-8.274,39.415,39.415,0,0,1,4.026-11.066A88.933,88.933,0,0,0,234.8,244.4c1.427-4.343,1.649-8.907.666-11.918-.95-2.788-1.394-3.265-3.931-4.186C228.747,227.284,226.05,227.124,221.011,227.7Zm9.384,1.744c1.584.539,2.028,1.045,2.821,3.233.634,1.744.7,2.315.506,5.136a21.716,21.716,0,0,1-1.584,7.131,69.942,69.942,0,0,1-5.041,11.572,37,37,0,0,0-4.186,11.539c-.633,4.153-.633,12.839.033,16.231a137.5,137.5,0,0,0,3.964,15.565c2.155,6.465,4.4,10.556,11.379,20.541,6.024,8.623,9.319,15.405,10.746,21.968,1.015,4.692.826,6.814-1.045,10.713-1.587,3.392-5.77,6.341-10.651,7.579-1.492.349-4.186,1.139-6.024,1.744-4.281,1.362-9.384,1.966-12.584,1.456a46.631,46.631,0,0,0-5.58-.346c-5.737,0-14.106-2.537-22.223-6.752-5.77-3.014-6.942-4-9.92-8.467-1.492-2.184-3.014-4.31-3.393-4.754-.826-.918-1.143-1.489-3.233-5.832-.826-1.744-1.365-3.2-1.175-3.265.222-.095.193-.95-.095-2.726-.251-1.427-.6-4.186-.793-6.086a63.838,63.838,0,0,0-.95-6.341,33.689,33.689,0,0,1-.7-7.608c-.033-5.263.317-7.164,3.105-17.276.761-2.694,1.966-7.419,2.664-10.462a84.277,84.277,0,0,1,3.2-10.589,64.694,64.694,0,0,1,6.436-13.185c1.394-2.348,3.265-5.486,4.121-6.945,2.25-3.771,4.787-6.655,10.145-11.474,8.525-7.7,10.367-9.067,14.9-10.873C218.824,229.439,227.859,228.584,230.4,229.439Z"
        transform="translate(-85.576 8.537)" fill="#fff" fill-rule="evenodd" />
      <path id="Path_673" data-name="Path 673"
        d="M208.713,230.523a27.14,27.14,0,0,0-8.591,6.847,40.752,40.752,0,0,1-4.663,4.313,24.554,24.554,0,0,0-3.8,3.644,63.854,63.854,0,0,1-4.215,4.852c-3.3,3.517-7.386,9.319-8.623,12.235a117.916,117.916,0,0,0-5.832,21.368,215.258,215.258,0,0,0-1.554,25.361c.444,8.748,1.587,14.2,3.964,19.082,4.532,9.13,11.412,16.581,18.67,20.225,1.649.826,3.487,1.809,4.121,2.22a31.65,31.65,0,0,0,5.58,1.933c4.343,1.172,4.565,1.172,11.317,1.332,11.856.222,13.5-.287,16.071-4.914.761-1.362,1.714-2.981,2.093-3.582,2.282-3.615,2.759-5.8,2.315-10.24a32.055,32.055,0,0,0-.728-4.532c-.477-1.616-3.709-7.641-8.689-16.231-6.72-11.539-10.778-21.3-12.395-29.863-2.122-11.1-2.312-13.789-1.427-20.127.731-5.264.983-6.152,3.8-12.839,3.331-7.83,4.313-10.938,4.535-14.044.317-5.2-1.966-7.83-7.069-8.052a7.06,7.06,0,0,0-4.882,1.012Zm7.448,1.077a6.389,6.389,0,0,1,1.744,1.809c1.649,2.694.761,7.226-3.393,17.149-2.661,6.4-3.233,8.179-3.8,11.983-1.329,8.875-1.234,10.746.983,21.492a92.308,92.308,0,0,0,8.591,23.65c1.9,3.709,2.5,4.819,5.358,9.541.571.953,1.584,2.821,2.25,4.121.637,1.3,1.492,2.886,1.871,3.487,3.2,5.136,4.281,8.434,4.281,13.031a11.861,11.861,0,0,1-2.472,7c-.509.761-1.46,2.348-2.093,3.582a9.688,9.688,0,0,1-2.5,3.171l-1.332.95H209.153l-4.088-1.077a33.132,33.132,0,0,1-8.431-3.36,36.208,36.208,0,0,1-11.445-8.653,46.256,46.256,0,0,1-8.179-12.048c-3.043-6.116-4.153-15.755-3.36-29.322.255-4.215.633-9.1.823-10.84.793-7.356,4.091-20.1,6.468-25.044,1.3-2.726,6.276-9.479,8.209-11.128a43.229,43.229,0,0,0,3.52-3.866,27.555,27.555,0,0,1,4.437-4.375,34.184,34.184,0,0,0,4.63-4.31c3.9-4.5,4.754-5.136,9.479-7.167A6.822,6.822,0,0,1,216.16,231.6Z"
        transform="translate(-78.475 13.284)" fill="#fff" fill-rule="evenodd" />
      <path id="Path_674" data-name="Path 674"
        d="M204.737,232.347c-2.6.7-4.725,2.315-10.05,7.673-3.993,3.993-5.169,5.388-6.625,7.892-.983,1.682-2.472,4.059-3.3,5.293a102.3,102.3,0,0,0-7.386,14.932c-.473,1.394-1.11,3.742-1.456,5.231-.317,1.489-.983,4.343-1.46,6.341-2.25,9.479-2.282,14.994-.317,27.421,1.649,10.269,6.119,20.319,11.507,25.929,2.22,2.282,7.863,5.169,13.283,6.752,5.548,1.649,6.4,1.776,10.018,1.616,2.948-.157,3.709-.317,5.485-1.14,3.455-1.616,4.721-2.886,6.465-6.5,1.838-3.807,2.093-5.358,1.616-9.606-.411-3.615-.918-5.58-3.171-12.933-2.566-8.245-3.709-10.939-7.1-16.613-3.869-6.5-6.152-11.412-7.608-16.355a51.976,51.976,0,0,1-1.966-10.207c-.222-1.776.444-6.974,1.3-10.494a89.913,89.913,0,0,1,2.978-8.78c4.219-10.684,4.5-12.238,2.57-14.233a3.622,3.622,0,0,1-.983-1.554c0-.317-.382-.7-.826-.855C206.765,231.776,206.892,231.776,204.737,232.347Zm1.584,1.394a.357.357,0,0,0,.382.317,3.019,3.019,0,0,1,1.267.856c1.682,1.587,1.2,3.709-3.2,14.36-4.47,10.716-4.911,18.958-1.711,29.958,1.522,5.264,3.8,10.018,8.558,17.815,2.348,3.8,3.236,6.246,7.546,20.13A39.149,39.149,0,0,1,221,327.766c.033,2.377-.062,2.759-1.332,5.42-2.377,4.976-4.627,6.468-10.014,6.625-4.852.16-10.116-1.234-16.548-4.343-4.663-2.282-6.308-3.709-9.067-7.8-4.281-6.4-6.53-12.489-8.147-21.841-1.809-10.462-1.649-18.135.506-26.758.411-1.646.983-4.055,1.238-5.355a47.416,47.416,0,0,1,1.394-5.074,101.4,101.4,0,0,1,7.481-15.089c.888-1.394,2.377-3.742,3.3-5.231a31.334,31.334,0,0,1,4.4-5.388c1.522-1.492,3.552-3.552,4.5-4.565C201.6,235.328,206.321,232.442,206.321,233.741Z"
        transform="translate(-75.483 18.784)" fill="#fff" fill-rule="evenodd" />
      <path id="Path_675" data-name="Path 675"
        d="M195.774,235.194a46.227,46.227,0,0,0-7.543,5.9c-1.522,2.155-6.024,9.289-6.847,10.938a39.545,39.545,0,0,0-2.537,7.608c-.16.633-.571,1.933-.921,2.851a95.76,95.76,0,0,0-3.2,14.138c-.222,1.682-.382,5.642-.382,8.783a39.021,39.021,0,0,0,1.11,11.317c2.5,12.013,5.515,18.987,9.985,23.075a19.962,19.962,0,0,0,7.673,4.408,13.649,13.649,0,0,0,6.214,1.077c3.233,0,6.181-.571,7.575-1.489a9.9,9.9,0,0,0,3.076-5.2,31.98,31.98,0,0,0,.411-5.3,16.1,16.1,0,0,0-1.045-6.658c-2.886-8.715-4.757-13.09-10.494-24.724-2.06-4.186-4.183-8.908-4.725-10.462-1.9-5.642-2.406-13.123-1.172-16.959a128.132,128.132,0,0,1,4.914-11.951,11.516,11.516,0,0,0,.382-6.53A1.872,1.872,0,0,0,195.774,235.194Zm.983,2.537c.477,2.439.317,2.948-3.295,10.589a24.908,24.908,0,0,0-2.41,16.1c.761,5.133,2.377,9.7,6.214,17.5a168.943,168.943,0,0,1,9.7,22.824l2.126,6.341-.189,3.327c-.349,6.086-1.714,8.558-5.136,9.384a14.4,14.4,0,0,1-9.417-.761c-3.833-1.427-6.308-2.948-8.4-5.263-3.615-3.993-6.5-11.157-8.623-21.619-1.238-5.959-1.3-6.658-1.3-11.7,0-8.875.571-12.107,3.866-22.824.7-2.282,1.554-5.038,1.9-6.181.7-2.282,1.11-3.105,4.819-9.035a40.092,40.092,0,0,1,3.833-5.388c1.394-1.427,5.2-4.219,5.74-4.248C196.378,236.749,196.63,237.193,196.757,237.731Z"
        transform="translate(-71.816 25.922)" fill="#fff" fill-rule="evenodd" />
      <path id="Path_676" data-name="Path 676"
        d="M183.093,239.867c-.79.79-2.756,5.737-4.215,10.491-2.566,8.463-3.549,18.419-2.537,26.187,1.332,10.618,4.091,20.032,7.229,24.724a15.979,15.979,0,0,0,7.925,6.468,6.535,6.535,0,0,0,6.341-.127c3.961-1.966,4.4-4.47,2.25-11.918-1.012-3.615-1.966-5.708-4.721-10.589-4.124-7.324-8.907-18.292-10.334-23.65a32.073,32.073,0,0,1-.826-6.465,24.191,24.191,0,0,1,.7-8.052c.761-3.553.95-6.5.444-7.007A2.207,2.207,0,0,0,183.093,239.867Zm.731,5.388a25.742,25.742,0,0,0-1.11,9.257,24.343,24.343,0,0,0,.728,6.975c1.267,4.944,6.246,16.61,9.384,22.03,5.959,10.305,8.558,19.023,6.465,21.684a6.421,6.421,0,0,1-4.055,2.093,13.03,13.03,0,0,1-3.582-1.237c-4.441-2.028-6.818-5.136-9.668-12.489a99.31,99.31,0,0,1-3.775-15.281c-1.11-6.72-.539-17.433,1.3-24.567a78.79,78.79,0,0,1,3.709-10.651c.983-2.093,1.016-2.155,1.143-1.172A12.734,12.734,0,0,1,183.825,245.254Z"
        transform="translate(-68.17 36.214)" fill="#fff" fill-rule="evenodd" />
      <path id="Path_677" data-name="Path 677"
        d="M178.12,247.293c-1.554.793-1.616,5.9-.127,11.51.444,1.74,1.11,4.343,1.427,5.832.6,2.566.921,3.709,3.615,12.111,1.427,4.532,2.726,6.5,5.482,8.4,2.57,1.744,3.964,1.838,5.453.349.953-.95,1.016-1.11.888-2.916-.222-3.105-1.744-6.468-6.181-13.694a95.454,95.454,0,0,1-6.912-15.216c-1.107-3.647-2.028-6.057-2.5-6.436C179.008,247.009,178.626,247.042,178.12,247.293Zm1.871,5.93c.539,1.649,1.14,3.517,1.332,4.121.379,1.11,1.962,4.627,3.961,8.718.571,1.2,2.06,3.771,3.265,5.642,3.01,4.722,4.914,9.068,4.947,11.317v1.744l-1.237.095c-2.537.222-5.959-3.138-7.448-7.229-2.38-6.654-6.086-21.681-6.279-25.485C178.374,248.753,178.6,248.909,179.991,253.223Z"
        transform="translate(-65.985 53.195)" fill="#fff" fill-rule="evenodd" />
      <path id="Path_678" data-name="Path 678"
        d="M344.668,231.3a112.05,112.05,0,0,0-9.636,6.5c-2.126,1.936-4.663,2.315-9.227,1.332a15.274,15.274,0,0,0-9.035.921,98.516,98.516,0,0,0-12.806,8.685c-3.422,2.788-5.071,3.8-7.765,4.787a128.888,128.888,0,0,0-12.839,5.992,16.712,16.712,0,0,1-3.807,1.522c-1.3.346-3.455.983-4.754,1.427-3.233,1.078-5.832,1.424-14.612,1.838a91.651,91.651,0,0,1-12.205.029,26.457,26.457,0,0,1-9.005-1.806c-5.642-1.966-7.67-2.949-10.142-5.009a38.7,38.7,0,0,1-6.818-7.83,7.552,7.552,0,0,0-2.756-3.36,14.391,14.391,0,0,0-5.9-.255c-1.11.317-1.838,2.093-2.759,6.818-.823,4.055-.855,4.816-1.012,17.083-.193,13.443-.033,16.231,1.14,19.846a18.764,18.764,0,0,0,4.153,7.259c1.045,1.2,2.661,3.236,3.644,4.5.953,1.267,3.68,4.31,6.057,6.815a125.956,125.956,0,0,1,12.3,14.488,90.256,90.256,0,0,0,11.157,11.761c.633.539,2.694,2.377,4.535,4.088,1.838,1.744,3.928,3.615,4.627,4.153a10.192,10.192,0,0,1,1.838,1.933c.6.888,1.489,1.27,1.489.571,0-.95-3.677-4.754-13.472-13.884a56.25,56.25,0,0,1-8.525-9.541,130.93,130.93,0,0,0-13.41-15.63,54.718,54.718,0,0,1-4.408-5.1c-1.456-1.933-3.455-4.437-4.437-5.58a17.164,17.164,0,0,1-3.961-7.8c-.6-2.217-.7-3.615-.826-11.856-.222-13.377.6-24.218,2.155-27.992.349-.855.444-.885,2.475-.79l2.09.095.953,1.489c.539.793,1.3,2.06,1.744,2.821a44.786,44.786,0,0,0,8.558,8.591,59.167,59.167,0,0,0,12.679,4.881c2.537.666,11.827.888,19.5.477,7.957-.411,11-.793,13.949-1.776,1.237-.379,3.36-1.045,4.754-1.427a20.611,20.611,0,0,0,4.281-1.711,128.415,128.415,0,0,1,12.427-5.832,26.477,26.477,0,0,0,8.842-5.326c3.8-3.108,10.589-7.608,12.9-8.561,2.155-.885,4.594-.983,7.83-.284,4.4.921,7.513.444,9.858-1.554a73.1,73.1,0,0,1,9.639-6.4c1.678-.634,2.122-.539,3.484.728,1.427,1.27,3.487,5.2,4.124,7.863.918,3.837.95,14.9.062,21.3-.255,1.776-.222,2,.255,2,.7,0,1.394-2.344,2.09-7.007a49.58,49.58,0,0,0,.349-9.476c-.127-6.628-.379-7.928-2.344-11.827a13.817,13.817,0,0,0-4.248-4.849A10.052,10.052,0,0,0,344.668,231.3Z"
        transform="translate(7.884 16.791)" fill="#fff" fill-rule="evenodd" />
      <path id="Path_679" data-name="Path 679"
        d="M341.439,234.876a16.179,16.179,0,0,0-3.265,2.5c-2.821,2.664-3.866,3.043-6.243,2.377-5.358-1.456-5.42-1.489-8.307-1.267a25.528,25.528,0,0,0-13.538,4.5c-1.329.983-5.42,2.916-13.123,6.148-1.616.7-4.248,1.933-5.864,2.821a51,51,0,0,1-6.308,2.726,33.908,33.908,0,0,0-7.925,3.677,127.485,127.485,0,0,1-17.5,6.912c-6.53,1.711-15.471,1.554-22.762-.444-6.912-1.871-7.324-2.06-15.311-7.9-3.552-2.6-4.947-3.36-6.181-3.36-2.824,0-3.615,1.809-3.8,8.656-.222,7.83.411,11.569,3.2,18.608,2.5,6.37,3.36,7.8,6.942,11.761,1.776,1.995,4.535,5.071,6.057,6.877,2.723,3.17,9.952,9.988,20.1,19.023,6.465,5.737,8.94,8.336,11.507,12.2a13.851,13.851,0,0,0,2.442,3.076c.728,0,.761-.633.095-1.933-2.537-4.947-5.9-8.718-15.216-17.025-3.043-2.726-6.436-5.864-7.546-6.909-1.078-1.078-2.537-2.442-3.2-3.043-1.489-1.3-5.926-6.057-9.7-10.4-1.554-1.806-3.615-4.121-4.535-5.133-1.838-2.031-2.948-4.248-5.231-10.24a33.354,33.354,0,0,1-2.726-11.317c-.473-6.279-.062-12.173.921-12.777.506-.317,2.821,1.078,7.419,4.535,5.231,3.928,7.419,5.1,11.761,6.243,1.744.477,4.026,1.11,5.071,1.394,1.522.415,3.392.509,9.195.477,9.286,0,10.618-.284,21.08-4.248A53.263,53.263,0,0,0,279.4,258.62a45.95,45.95,0,0,1,6.338-2.821c2-.728,5.486-2.22,7.768-3.327,4.277-2.093,9.035-4.248,13.155-5.93a36.163,36.163,0,0,0,4.914-2.661c3.265-2.158,5.071-2.949,8.052-3.487,3.833-.666,6.37-.571,9.162.379a9.255,9.255,0,0,0,4.467.7c2.664-.193,3.8-.793,6.5-3.36l2.155-2.093.79.918c2,2.41,2.948,5.77,3.615,13a62.591,62.591,0,0,1-1.646,20.6c-1.048,3.964-1.048,3.964-.509,3.964,1.048,0,3.425-7.67,4.215-13.632.983-7.543.033-18.07-2.06-22.347-1.489-3.014-3.043-4.186-4.881-3.647Z"
        transform="translate(11.84 25.258)" fill="#fff" fill-rule="evenodd" />
      <path id="Path_680" data-name="Path 680"
        d="M313.444,237.915a52.944,52.944,0,0,0-11.255,6.148,36.351,36.351,0,0,1-4.372,2.6c-1.62.826-4.281,2.38-5.93,3.458a122.9,122.9,0,0,1-14.739,8.052c-1.4.6-3.775,1.678-5.264,2.439-3.582,1.838-4.627,2.188-10.272,3.487-7.925,1.809-11.379,2.126-21.4,1.9-8.875-.222-9.067-.222-16.9-1.936q-4.374-.95-6.086.571a8.846,8.846,0,0,0-1.584,2.916,14.35,14.35,0,0,0-.793,5.74c0,4.088.382,5.672,2.442,9.8,1.9,3.771,2.661,4.689,6.782,8.081,1.9,1.587,4.914,4.375,6.723,6.214a60.27,60.27,0,0,0,11.885,9.861c9.766,5.8,13.188,9,16.359,15.311a46.134,46.134,0,0,1,3.17,7.419,4.269,4.269,0,0,0,1.11,2.028c1.329.444-1.048-7.9-3.487-12.173-2.694-4.725-7.9-9.384-14.455-12.966-4.153-2.25-7.262-4.725-12.933-10.3-2.442-2.377-5.518-5.2-6.818-6.214-3.9-3.043-5.009-4.375-6.942-8.339l-1.776-3.644V273.61c0-4.535.065-4.881.888-6.625l.855-1.809h1.522a13.915,13.915,0,0,1,3.171.477c3.931,1.172,8.179,1.678,15.755,1.9a77.308,77.308,0,0,0,22.667-2.217c6.341-1.46,7.448-1.838,11.255-3.742,1.74-.856,4.277-2.06,5.672-2.632a125.5,125.5,0,0,0,14.138-7.67c1.492-.95,4.375-2.664,6.468-3.771a49.277,49.277,0,0,0,4.914-2.919,65.458,65.458,0,0,1,7.641-4.5c1.962-1.016,2.217-1.078,5.1-1.016a30.772,30.772,0,0,1,6.338.856c3.236.761,3.33.826,4.914,2.537a9.646,9.646,0,0,1,2.472,4.215c.731,2.282.793,2.887.793,8.336a59.677,59.677,0,0,1-.477,8.813c-.539,3.043-.411,3.869.382,2.759,1.238-1.678,2-7.226,2.028-14.739,0-3.171-.095-3.964-.823-5.93-1.045-2.821-3.647-6.054-5.453-6.687-3.837-1.365-11.317-2.093-13.694-1.332Z"
        transform="translate(19.96 31.731)" fill="#fff" fill-rule="evenodd" />
      <path id="Path_681" data-name="Path 681"
        d="M304.97,240.528c-2.821.571-6.406,2.821-10.622,6.69-1.427,1.3-3.833,3.265-5.355,4.4s-4.6,3.487-6.85,5.2c-5.231,4.059-8.558,6.308-10.808,7.356-2.7,1.2-8.117,2.534-13.538,3.327a56.619,56.619,0,0,1-18.83-.506c-5.77-1.172-13.407-.983-16.355.474-4.659,2.253-5.518,7.1-2.377,13.221a16.623,16.623,0,0,0,3.265,4.47,170.162,170.162,0,0,0,14.36,11.379c1.551,1.078,3.8,2.854,5.005,3.9a44.106,44.106,0,0,0,4.914,3.52c1.492.921,3.68,2.377,4.914,3.233a52.825,52.825,0,0,0,9.734,5.009c.95.317,1.3.317,1.584.033.539-.539.255-.728-3.866-2.759a58.18,58.18,0,0,1-6.658-3.961c-1.649-1.172-3.993-2.792-5.231-3.582-1.2-.793-2.5-1.714-2.854-2.031a74.944,74.944,0,0,0-7.2-5.832,153.948,153.948,0,0,1-12.646-10.05,14.837,14.837,0,0,1-4.914-9.574c-.222-2.948.349-4.183,2.439-5.482,1.332-.826,1.776-.888,5.708-1.078a27.093,27.093,0,0,1,9.067.823,38.516,38.516,0,0,0,10.364.983c9.512,0,19.085-1.838,25.077-4.787a59.5,59.5,0,0,0,7.321-4.627c9.133-6.785,13.093-9.861,15.98-12.427,6.592-5.864,10.334-7.164,14.073-4.976,1.744,1.012,3.043,2.949,4.281,6.338,1.3,3.615,1.678,6.6,1.806,14.138.095,5.93.033,6.785-.633,9.668a24.549,24.549,0,0,0-.666,3.265c.666.731,2.6-3.611,3.36-7.575.477-2.537.444-9.828-.029-14.2-.539-4.787-2.158-9.035-4.375-11.51S309.058,239.734,304.97,240.528Z"
        transform="translate(27.928 37.676)" fill="#fff" fill-rule="evenodd" />
      <path id="Path_682" data-name="Path 682"
        d="M293.27,242.627c-2.442.379-4.121,1.616-10.494,7.863-3.327,3.233-6.909,6.592-7.957,7.481-1.045.855-2.09,1.773-2.312,1.995-1.744,1.649-7.83,4.979-10.684,5.9-1.492.444-4.819,1.11-11.572,2.22a97.436,97.436,0,0,1-15.5,1.11c-2.537,0-5.041,0-5.518.029a7.339,7.339,0,0,0-3.706,1.649c-.921.728-3.487,4.63-3.487,5.326A7.125,7.125,0,0,0,224,280.444c1.238,1.427,13.6,11.572,16.8,13.76a114.44,114.44,0,0,0,16.137,7.8c3.265.983,3.138.983,3.138.255,0-.666-.728-1.048-3.964-2.155a39.191,39.191,0,0,1-5.231-2.475c-1.646-.95-3.928-2.155-5.071-2.726-2.981-1.489-5.166-3.043-11.255-7.892-8.653-6.942-10.935-9.195-10.935-10.873,0-1.11,1.522-3.233,2.948-4.121,1.489-.953,1.649-.953,8.369-.921a108.1,108.1,0,0,0,22.762-2.41c8.842-1.678,13.629-4.787,25.39-16.45,3.141-3.141,6.308-6.086,7.007-6.563a9.8,9.8,0,0,1,3.011-1.237,4.52,4.52,0,0,1,3.3.222c4.787,1.838,7.007,7.007,6.468,15.216-.32,4.947-.888,6.912-2.5,8.94-1.809,2.25-4.568,4.819-4.346,4.059a47.939,47.939,0,0,0,1.616-12.839c0-4.947-.029-5.326-.79-6.814-.855-1.744-2.472-3.014-3.771-3.014-1.46.033-3.552,1.2-5.391,3.108-1.806,1.9-2.6,3.073-5.515,8.209-3.425,6.057-5.962,8.434-12.143,11.35-7.957,3.8-10.014,4.153-21.364,3.644-7.863-.346-8.623-.317-9.668.193-1.427.663-3.109,3.36-2.854,4.532.634,2.661,7.99,9.162,13.472,11.918,5.61,2.821,8.241,3.709,12.649,4.281,4.594.6,5.42.539,5.42-.317,0-.666-.033-.666-5.515-1.587a25.877,25.877,0,0,1-7.99-2.5c-6.53-2.919-12.267-7.007-15.249-10.844-1.2-1.554-1.329-1.871-1.078-2.6.571-1.522.983-1.554,10.24-1.172,10.746.474,12.235.317,17.975-1.966,9.606-3.771,13.25-7.036,18.448-16.486,2.06-3.706,3.677-5.7,5.613-6.942,2.6-1.649,4.372-1.045,5.42,1.809.572,1.489.633,2.25.506,6.214-.222,7.954-2.217,16.006-5.263,21.332a10.951,10.951,0,0,0-1.394,2.948c.477.477,3.68-4.47,4.947-7.608.918-2.282,1.2-2.661,3.487-4.565,5.009-4.183,6.308-7.353,6.308-15.533,0-5.263-1.172-9.351-3.487-11.951-2.126-2.442-4.6-3.455-7.386-3.043Z"
        transform="translate(36.235 42.9)" fill="#fff" fill-rule="evenodd" />
      <path id="Path_683" data-name="Path 683"
        d="M269.279,247.955a35.338,35.338,0,0,0-3.487,5.133,50.865,50.865,0,0,1-5.737,7.9c-4.819,5.326-7.069,7-12.111,8.907-2.726,1.045-2.788,1.078-8.052,1.045-4.881-.029-5.42.033-6.782.666a3.6,3.6,0,0,0-2.031,2,3.5,3.5,0,0,0-.411,1.773c.728,2.031,3.993,4.5,7.069,5.264a50.075,50.075,0,0,0,11.572,1.267c3.043-.157,6.815-1.2,6.815-1.933,0-.411-.222-.473-1.172-.317a52.655,52.655,0,0,1-11.128.222,36.428,36.428,0,0,1-7.8-1.838c-1.238-.633-3.993-3.233-3.993-3.771,0-.222.473-.666,1.045-.983.888-.509,1.711-.571,6.086-.477,5.708.095,7.448-.255,11.7-2.344,3.389-1.714,4.627-2.7,8.653-6.945,3.549-3.739,4.692-5.355,8.241-11.347a12.57,12.57,0,0,1,1.838-2.664,2.685,2.685,0,0,1,1.394.382c1.175.6,1.237.095-.633,8.3a39.769,39.769,0,0,1-4.849,13.093c-3.331,6.024-5.293,10.651-3.709,8.78.6-.761,5.388-9.446,6.909-12.584A63.448,63.448,0,0,0,272.8,252.9l.571-3.2-.953-.921c-1.139-1.143-2.282-1.427-3.138-.823Z"
        transform="translate(55.724 54.47)" fill="#fff" fill-rule="evenodd" />
    </g>
  </g>
</svg>