<svg xmlns="http://www.w3.org/2000/svg" width="430.465"
  height="430.465"
  viewBox="0 0 324.515 324.934">
  <g id="Group_810" data-name="Group 810" style="isolation: isolate">
    <path id="Path_120" data-name="Path 120"
      d="M75.934,273.128c-2.835-1.291-3.85-4.271-2.051-5.986,2.073-1.988,5.5-1,6.811,1.947.973,2.22.76,3.533-.719,4.145A6.287,6.287,0,0,1,75.934,273.128Z"
      transform="translate(70.087 51.416)" fill="#e4e47a" fill-rule="evenodd" />
    <path id="Path_121" data-name="Path 121"
      d="M91.632,270.628c0-1.84-1.671-3.724-3.935-4.443a3.1,3.1,0,0,0-3.342.571c-.973.847-1.078,1.671-.424,3.152a5.37,5.37,0,0,0,2.5,2.983C88.692,273.928,91.632,272.638,91.632,270.628Zm-4.082-.254c-.465-.508-.443-.678.043-.678.465,0,.952.53.76.847S87.932,270.8,87.549,270.374Z"
      transform="translate(91.46 51.23)" fill="#e4e47a" fill-rule="evenodd" />
    <path id="Path_122" data-name="Path 122"
      d="M92.3,272.071a2.233,2.233,0,0,1-1.608-1.545,3.308,3.308,0,0,1,.233-2.983,2.918,2.918,0,0,1,3.7-.8,6.07,6.07,0,0,1,2.116,3.429c.126.591.041.782-.593,1.416-.678.678-.845.741-1.968.719A7.124,7.124,0,0,1,92.3,272.071Z"
      transform="translate(105.097 51.775)" fill="#e4e47a" fill-rule="evenodd" />
    <path id="Path_123" data-name="Path 123"
      d="M69.331,271.046c-1.1-.063-1.4-.169-1.736-.634a3.144,3.144,0,0,1-.634-2.707c.487-1.714,2.349-2.094,4.654-.889,1.608.826,2.242,1.714,1.968,2.729C73.2,270.857,72.123,271.237,69.331,271.046Z"
      transform="translate(57.423 51.425)" fill="#e4e47a" fill-rule="evenodd" />
    <path id="Path_124" data-name="Path 124"
      d="M102.043,270.068a1.67,1.67,0,0,0,.55-1.756,5.728,5.728,0,0,0-2.685-4.211c-1.566-.8-2.772-.465-4.082,1.143a2.471,2.471,0,0,0-.784,2.051c0,1.905.973,3.09,3.174,3.85A4.069,4.069,0,0,0,102.043,270.068Zm-2.792-1.734c-.593-.022-1.247-.361-1.247-.637,0-.38.993-.211,1.373.213C99.76,268.313,99.738,268.334,99.252,268.334Z"
      transform="translate(114.745 48.575)" fill="#e4e47a" fill-rule="evenodd" />
    <path id="Path_125" data-name="Path 125"
      d="M81.014,270.934a5.025,5.025,0,0,1-2.349-2.666,2.277,2.277,0,0,1-.211-1.947,5.146,5.146,0,0,1,2.559-2.855,2.652,2.652,0,0,1,2.5,1.078,9,9,0,0,1,.889,3.85A2.624,2.624,0,0,1,81.014,270.934Z"
      transform="translate(80.499 48.28)" fill="#e4e47a" fill-rule="evenodd" />
    <path id="Path_126" data-name="Path 126"
      d="M62.2,270.046c-2.433-1.036-4.082-4.61-3.024-6.557,1.206-2.22,4.591-1.819,6.325.741a6.9,6.9,0,0,1,.91,4.315c-.317,1.206-.869,1.586-2.392,1.649A5.841,5.841,0,0,1,62.2,270.046Z"
      transform="translate(41.263 46.65)" fill="#e4e47a" fill-rule="evenodd" />
    <path id="Path_127" data-name="Path 127"
      d="M68.63,268.042c-1.417-.867-3.109-3.363-3.109-4.591,0-1.332,1.058-2.01,3.153-2.01,1.162,0,1.225.044,2.2,1.037a5.012,5.012,0,0,1,1.545,3.978A2.573,2.573,0,0,1,68.63,268.042Z"
      transform="translate(54.708 45.946)" fill="#e4e47a" fill-rule="evenodd" />
    <path id="Path_128" data-name="Path 128"
      d="M91.32,267.3c-1.777-.908-2.92-3.172-2.327-4.61a6.359,6.359,0,0,1,1.438-1.608c1.015-.826,1.291-.952,1.882-.867,2.223.358,4.3,4.167,3.47,6.346C95.337,267.749,92.969,268.129,91.32,267.3Z"
      transform="translate(102.035 44.485)" fill="#e4e47a" fill-rule="evenodd" />
    <path id="Path_129" data-name="Path 129"
      d="M105.447,267.3c-1.4-.615-3.448-2.666-3.724-3.68-.889-3.322,2.942-5.036,5.586-2.518a4.746,4.746,0,0,1,1.523,3.809c0,1.5-.022,1.586-.7,2.177C107.328,267.8,106.652,267.847,105.447,267.3Z"
      transform="translate(127.945 44.132)" fill="#e4e47a" fill-rule="evenodd" />
    <path id="Path_130" data-name="Path 130"
      d="M83.33,266.471a5.9,5.9,0,0,1-3.574-5.162,1.911,1.911,0,0,1,.823-1.925c.867-.826.889-.826,3.893-1.184a1.474,1.474,0,0,1,1.712.591c1,1,1.228,2.264.889,4.612-.274,1.8-.508,2.475-1.015,2.9A3.416,3.416,0,0,1,83.33,266.471Z"
      transform="translate(83.683 42.082)" fill="#e4e47a" fill-rule="evenodd" />
    <path id="Path_131" data-name="Path 131"
      d="M52.593,264.4c-2.39-1.31-3.765-4.569-2.5-5.986a3.557,3.557,0,0,1,2.92-.4,5.266,5.266,0,0,1,2.622,3.046c.613,1.651.591,2.75-.085,3.407C54.876,265.16,53.946,265.138,52.593,264.4Z"
      transform="translate(22.407 41.763)" fill="#e4e47a" fill-rule="evenodd" />
    <path id="Path_132" data-name="Path 132"
      d="M74.156,264.742a8.232,8.232,0,0,1-3.215-4.76,2.832,2.832,0,0,1,1.523-2.792A2.247,2.247,0,0,1,75,256.977a9.826,9.826,0,0,1,3.489,3.365,3.836,3.836,0,0,1,.065,3.3A3.521,3.521,0,0,1,74.156,264.742Z"
      transform="translate(65.819 40.363)" fill="#e4e47a" fill-rule="evenodd" />
    <path id="Path_133" data-name="Path 133"
      d="M97.286,263.57a5.253,5.253,0,0,1-2.794-4.337c-.233-3.024,3-3.85,5.458-1.395,1.629,1.649,2.053,3.639,1,4.971A2.79,2.79,0,0,1,97.286,263.57Z"
      transform="translate(113.465 40.032)" fill="#e4e47a" fill-rule="evenodd" />
    <path id="Path_134" data-name="Path 134"
      d="M110.368,262.3a4.721,4.721,0,0,1-2.961-3.809,3.2,3.2,0,0,1,2.114-2.833c2.835-.847,5.9,2.707,4.547,5.288A3.591,3.591,0,0,1,110.368,262.3Z"
      transform="translate(139.669 39.017)" fill="#e4e47a" fill-rule="evenodd" />
    <path id="Path_135" data-name="Path 135"
      d="M66.044,262.853a8.487,8.487,0,0,1-3.956-4.738,2.227,2.227,0,0,1,0-1.882,2.911,2.911,0,0,1,4.082-1.206c1.651,1.015,3.809,4.695,3.6,6.114a2.29,2.29,0,0,1-2.327,1.925A4.8,4.8,0,0,1,66.044,262.853Z"
      transform="translate(47.46 37.957)" fill="#e4e47a" fill-rule="evenodd" />
    <path id="Path_136" data-name="Path 136"
      d="M57.883,262.5a5.708,5.708,0,0,1-2.54-2.855c-.465-1.4-.422-3.216.128-3.913a3.227,3.227,0,0,1,4.1-.8,4.917,4.917,0,0,1,2.644,4.463C62.22,261.883,60.062,263.447,57.883,262.5Z"
      transform="translate(33.449 37.828)" fill="#e4e47a" fill-rule="evenodd" />
    <path id="Path_137" data-name="Path 137"
      d="M90.305,262.107c-1.608-.383-2.707-1.353-3.68-3.3a4.627,4.627,0,0,1-.274-4.041c.506-1.671,1.225-2.475,2.475-2.707a4.536,4.536,0,0,1,3.722,1.629c3,3.066,2.92,7.254-.189,8.313a5.541,5.541,0,0,1-1.1.317C91.194,262.3,90.751,262.211,90.305,262.107Z"
      transform="translate(96.686 34.896)" fill="#e4e47a" fill-rule="evenodd" />
    <path id="Path_138" data-name="Path 138"
      d="M51.4,259.581c-1.291-.656-1.651-2.244-.952-4.3.506-1.564.971-2.01,2.262-2.179,2.179-.274,3.893,2.961,2.688,5.034A3.47,3.47,0,0,1,51.4,259.581Z"
      transform="translate(23.309 36.153)" fill="#e4e47a" fill-rule="evenodd" />
    <path id="Path_139" data-name="Path 139"
      d="M47,260a4.183,4.183,0,0,1-1.608-2.138,4.4,4.4,0,0,1-.063-3.85c.656-1.46,1.375-2.114,2.349-2.114.676,0,.973.169,1.84,1.015,2.327,2.242,2.136,5.816-.361,7.107A1.9,1.9,0,0,1,47,260Z"
      transform="translate(12.867 34.758)" fill="#e4e47a" fill-rule="evenodd" />
    <path id="Path_140" data-name="Path 140"
      d="M121.429,257.785c.8-1.482-.063-3.787-1.8-4.76a5.742,5.742,0,0,0-3.85-.465,3.069,3.069,0,0,0-1.988,2.157c-.106.593.022.91.593,1.756a7.549,7.549,0,0,0,3.426,2.644A3.349,3.349,0,0,0,121.429,257.785Zm-3.385-1.608c-.063-.126.022-.148.191-.085.189.063.337.17.337.211C118.572,256.473,118.17,256.388,118.044,256.177Z"
      transform="translate(167.02 35.347)" fill="#e4e47a" fill-rule="evenodd" />
    <path id="Path_141" data-name="Path 141"
      d="M102.98,258.119A3.811,3.811,0,0,1,100.144,254c.191-1.905.932-2.581,2.751-2.581a5.76,5.76,0,0,1,3.278,1.332,4.434,4.434,0,0,1,1.312,2.961c0,1.121-.656,1.821-2.2,2.349A2.681,2.681,0,0,1,102.98,258.119Z"
      transform="translate(125 34.187)" fill="#e4e47a" fill-rule="evenodd" />
    <path id="Path_142" data-name="Path 142"
      d="M83.837,256.63a1.978,1.978,0,0,0,.106-1.712,5.673,5.673,0,0,0-4.1-4.041,2.136,2.136,0,0,0-2.5.7,4.418,4.418,0,0,0,.445,3.68,4.7,4.7,0,0,0,2.22,2.5A2.789,2.789,0,0,0,83.837,256.63Zm-3.087-1.269c-.3-.593-.276-.867.106-.867.337,0,.76.826.591,1.121C81.277,255.889,80.982,255.785,80.749,255.361Z"
      transform="translate(78.207 33.434)" fill="#e4e47a" fill-rule="evenodd" />
    <path id="Path_143" data-name="Path 143"
      d="M70.33,256.281a4.137,4.137,0,0,1-2.092-3.552c-.022-2.179,1.818-3.893,3.659-3.448,2.136.506,4.019,2.622,4.019,4.5a3.508,3.508,0,0,1-2.286,2.5A5.77,5.77,0,0,1,70.33,256.281Z"
      transform="translate(60.336 31.603)" fill="#e4e47a" fill-rule="evenodd" />
    <path id="Path_144" data-name="Path 144"
      d="M111.046,254.792c-1.586-.995-3.153-3.216-3.153-4.443a2.061,2.061,0,0,1,.508-1.015c1.671-1.947,6.262,1.184,6.262,4.274C114.663,255.341,112.844,255.954,111.046,254.792Z"
      transform="translate(140.586 31.042)" fill="#e4e47a" fill-rule="evenodd" />
    <path id="Path_145" data-name="Path 145"
      d="M95.129,255.824c-.782-.38-3.066-4.019-3.383-5.373a2.786,2.786,0,0,1,1.564-3.109c1.121-.508,1.46-.508,2.94-.085a6.268,6.268,0,0,1,3.872,4.082c.656,2.327-.063,4.315-1.627,4.547C96.632,256.185,95.785,256.163,95.129,255.824Z"
      transform="translate(108.199 13.096)" fill="#e4e47a" fill-rule="evenodd" />
    <path id="Path_146" data-name="Path 146"
      d="M40.583,254.035a3.846,3.846,0,0,1-1.821-1.84,2.768,2.768,0,0,1,2.559-4.189,3.785,3.785,0,0,1,3.491,2.751,2.418,2.418,0,0,1-.53,2.855,2.372,2.372,0,0,1-1.84.678A3.381,3.381,0,0,1,40.583,254.035Z"
      transform="translate(-11.07 30.191)" fill="#e4e47a" fill-rule="evenodd" />
    <path id="Path_147" data-name="Path 147"
      d="M62.5,254.592c-1.712-.7-3.385-3.111-3.153-4.591.319-1.968,3.111-3.068,4.823-1.9,1.567,1.036,2.518,3.7,1.884,5.223A2.845,2.845,0,0,1,62.5,254.592Z"
      transform="translate(42.148 13.816)" fill="#e4e47a" fill-rule="evenodd" />
    <path id="Path_148" data-name="Path 148"
      d="M52.918,254.359a11.351,11.351,0,0,1-2.518-3.637c-.443-1.651.55-3.3,1.988-3.3,2.559,0,5.121,2.581,4.719,4.76a2.383,2.383,0,0,1-2.053,2.01c-.506.1-1.121.232-1.354.317A1.013,1.013,0,0,1,52.918,254.359Z"
      transform="translate(23.819 13.395)" fill="#e4e47a" fill-rule="evenodd" />
    <path id="Path_149" data-name="Path 149"
      d="M121.253,253.679c-1.438-.424-1.84-2.305-.91-4.145a2.08,2.08,0,0,1,1.4-1.312c.782-.274.93-.274,1.417.043a4.808,4.808,0,0,1,1.523,2.855c.128.782.065.932-.676,1.692A2.462,2.462,0,0,1,121.253,253.679Z"
      transform="translate(174.154 30.208)" fill="#e4e47a" fill-rule="evenodd" />
    <path id="Path_150" data-name="Path 150"
      d="M84.129,251.309a4.365,4.365,0,0,0-1.9-4.739,2.211,2.211,0,0,0-2.264-.169,4.014,4.014,0,0,1-1.206.276c-1.988.02-1.947,4.167.063,5.584a4.545,4.545,0,0,0,1.419.634C82.057,253.34,83.686,252.684,84.129,251.309ZM80.6,249.384c-.339-.128-.358-.7-.063-.7.126,0,.274.148.358.317C81.04,249.406,80.935,249.51,80.6,249.384Z"
      transform="translate(78.584 10.766)" fill="#e4e47a" fill-rule="evenodd" />
    <path id="Path_151" data-name="Path 151"
      d="M117.987,252.179a6.965,6.965,0,0,1-3.131-2.136,3.551,3.551,0,0,1-1.121-2.6,1.77,1.77,0,0,1,.763-1.608,3.9,3.9,0,0,1,3.215-1.29c2.177.232,3.891,2.455,3.869,5.014,0,1.545-.358,2.22-1.395,2.666C119.3,252.581,119.149,252.581,117.987,252.179Z"
      transform="translate(166.992 7.775)" fill="#e4e47a" fill-rule="evenodd" />
    <path id="Path_152" data-name="Path 152"
      d="M86.043,251.215c-.7-.339-1.438-.678-1.627-.741-.487-.148-1.629-2.431-1.777-3.574-.38-2.792,2.157-3.934,5.056-2.305a4.454,4.454,0,0,1,2.5,3.279,3.148,3.148,0,0,1-.615,3.087C88.752,251.956,87.694,252.04,86.043,251.215Z"
      transform="translate(89.512 6.394)" fill="#e4e47a" fill-rule="evenodd" />
    <path id="Path_153" data-name="Path 153"
      d="M105.862,251.237c-2.305-.719-4.8-2.855-5.266-4.484-.235-.847-.235-1.08.063-1.629a3.133,3.133,0,0,1,.8-.973,3.927,3.927,0,0,1,3.3.085,2.894,2.894,0,0,0,1.523.3,3.2,3.2,0,0,1,2.685,1.458,6.178,6.178,0,0,1,.7,1.736C110.261,250.285,108.378,252,105.862,251.237Z"
      transform="translate(126.179 6.25)" fill="#e4e47a" fill-rule="evenodd" />
    <path id="Path_154" data-name="Path 154"
      d="M45.1,249.985a3.578,3.578,0,0,1-1.818-2.453c-.128-.847.274-1.671,1.291-2.644a1.777,1.777,0,0,1,1.5-.7,3.733,3.733,0,0,1,3.152,2.305,2.782,2.782,0,0,1-2.477,4.082A3.813,3.813,0,0,1,45.1,249.985Z"
      transform="translate(-5.354 6.613)" fill="#e4e47a" fill-rule="evenodd" />
    <path id="Path_155" data-name="Path 155"
      d="M96.873,248.006c-1.334-1.121-1.356-3.363-.022-3.913,1.247-.528,2.983.424,3.554,1.968C101.1,247.924,98.481,249.362,96.873,248.006Z"
      transform="translate(115.645 5.572)" fill="#e4e47a" fill-rule="evenodd" />
    <path id="Path_156" data-name="Path 156"
      d="M126.148,248.852a9.3,9.3,0,0,0,2.327-2.412c1.123-2.157-1.586-3.935-3.4-2.22a2.154,2.154,0,0,0-.867,1.734,2.769,2.769,0,0,0,1.162,2.792A1.1,1.1,0,0,0,126.148,248.852Zm1.165-3.215a.435.435,0,0,1-.339-.211c-.063-.106-.041-.213.085-.213a.492.492,0,0,1,.339.213C127.46,245.552,127.438,245.636,127.312,245.636Z"
      transform="translate(179.244 4.968)" fill="#e4e47a" fill-rule="evenodd" />
    <path id="Path_157" data-name="Path 157"
      d="M76.167,248.794a4.709,4.709,0,0,1-2.961-2.939,2.938,2.938,0,0,1,2.707-3.3,6.566,6.566,0,0,1,3.068,1.184,3.264,3.264,0,0,1,1.1,4.315C79.361,249.472,78.324,249.682,76.167,248.794Z"
      transform="translate(70.28 3.416)" fill="#e4e47a" fill-rule="evenodd" />
    <path id="Path_158" data-name="Path 158"
      d="M67.672,249.166a5,5,0,0,1-3.3-4.3,2.113,2.113,0,0,1,.741-1.734c1.46-1.608,2.92-1.84,4.591-.763,1.586,1.058,2.5,4.274,1.586,5.671A2.964,2.964,0,0,1,67.672,249.166Z"
      transform="translate(52.428 1.983)" fill="#e4e47a" fill-rule="evenodd" />
    <path id="Path_159" data-name="Path 159"
      d="M59.073,248.231c1.755,0,3.257-1.206,3.257-2.622,0-2.032-.847-3.448-2.433-4.041a2.239,2.239,0,0,0-2.707.487c-1.651,1.567-1.566,3.426.254,5.288C58.141,248.04,58.48,248.231,59.073,248.231Zm.465-3.913c-.065.063-.232-.022-.382-.211s-.232-.382-.169-.424c.065-.063.235.022.382.211S59.6,244.274,59.538,244.318Z"
      transform="translate(35.354 0.957)" fill="#e4e47a" fill-rule="evenodd" />
    <path id="Path_160" data-name="Path 160"
      d="M38.939,247.292a3.393,3.393,0,0,1-2.053-3.068c-.339-3,1.818-4.591,4.145-3.068a4.238,4.238,0,0,1,1.777,3.872c0,1.4-.041,1.564-.613,2.157C41.392,248.012,40.462,248.053,38.939,247.292Z"
      transform="translate(-12.874 -0.46)" fill="#e4e47a" fill-rule="evenodd" />
    <path id="Path_161" data-name="Path 161"
      d="M110.979,247.336a6.587,6.587,0,0,0-.782-.191c-2.116-.465-3.342-3.659-2.305-5.986a2.154,2.154,0,0,1,2.516-1.482,2.362,2.362,0,0,1,1.862,1.058c2.094,2.305,1.736,5.881-.656,6.557A1.388,1.388,0,0,1,110.979,247.336Z"
      transform="translate(139.627 -2.197)" fill="#e4e47a" fill-rule="evenodd" />
    <path id="Path_162" data-name="Path 162"
      d="M55.187,245.6c1.184-1.143.867-2.961-.847-4.676-1.417-1.417-2.94-1.46-4.23-.085-1.036,1.08-1.291,1.8-1.058,2.877a3.726,3.726,0,0,0,2.814,2.688A3.346,3.346,0,0,0,55.187,245.6Zm-3.024-2.37c-.382-.317-.445-.465-.254-.656.169-.189.317-.126.591.3C52.986,243.588,52.816,243.758,52.162,243.227Z"
      transform="translate(21.145 -2.122)" fill="#e4e47a" fill-rule="evenodd" />
    <path id="Path_163" data-name="Path 163"
      d="M121.357,245.913c-1.712-.634-2.409-2.073-1.988-4.061a3.188,3.188,0,0,1,3.7-2.518c1.332.317,2.6,2.39,2.6,4.21a2.943,2.943,0,0,1-2.54,2.581A4.976,4.976,0,0,1,121.357,245.913Z"
      transform="translate(173.458 -3.238)" fill="#e4e47a" fill-rule="evenodd" />
    <path id="Path_164" data-name="Path 164"
      d="M95.35,245.907a10.81,10.81,0,0,1-3.787-2.39,2.342,2.342,0,0,1-.867-1.8c-.3-3.511,4.421-3.68,6.918-.232a2.77,2.77,0,0,1,.634,2.094,2.267,2.267,0,0,1-.465,1.755A2.353,2.353,0,0,1,95.35,245.907Z"
      transform="translate(105.889 -3.735)" fill="#e4e47a" fill-rule="evenodd" />
    <path id="Path_165" data-name="Path 165"
      d="M89.7,245.514c1.523-.8,1.354-5.012-.276-6.24a2.212,2.212,0,0,0-2.6-.17c-1.521.719-2.073,2.581-1.354,4.528.508,1.354.932,1.818,2.053,2.2A2.219,2.219,0,0,0,89.7,245.514Zm-1.714-3.172c-.063.465-.063.465-.424.063-.337-.358-.337-.465-.085-.826.276-.359.317-.359.445-.041A1.652,1.652,0,0,1,87.982,242.342Z"
      transform="translate(94.221 -4.131)" fill="#e4e47a" fill-rule="evenodd" />
    <path id="Path_166" data-name="Path 166"
      d="M33.926,245.014a2.049,2.049,0,0,1-.443-.8c0-.126-.339-.506-.763-.845a3.879,3.879,0,0,1-.952-4.717c.7-1.523,2.073-1.8,3.576-.7a4.619,4.619,0,0,1,1.649,5.988C36.189,245.607,34.773,246.094,33.926,245.014Z"
      transform="translate(-19.305 -6.834)" fill="#e4e47a" fill-rule="evenodd" />
    <path id="Path_167" data-name="Path 167"
      d="M104.824,244.052a2.483,2.483,0,0,1-1.8-2.305,7.989,7.989,0,0,1,.55-2.073c.424-1.036.719-1.482,1.186-1.714,1.395-.719,2.644.106,3.235,2.136a3.009,3.009,0,0,1-1.417,3.724A1.811,1.811,0,0,1,104.824,244.052Z"
      transform="translate(130.249 -6.499)" fill="#e4e47a" fill-rule="evenodd" />
    <path id="Path_168" data-name="Path 168"
      d="M72.494,241.312c0-2.37-1.734-4.232-3.448-3.681-1.162.4-1.46.889-1.629,2.729-.189,1.966.15,2.9,1.143,3.342A2.725,2.725,0,0,0,72.494,241.312Zm-3.046-.55c-.063.085-.126-.044-.106-.276,0-.232.065-.3.128-.126A.432.432,0,0,1,69.448,240.763Z"
      transform="translate(58.172 -6.859)" fill="#e4e47a" fill-rule="evenodd" />
    <path id="Path_169" data-name="Path 169"
      d="M45.533,242.788a3.188,3.188,0,0,0-1.271-.085c-.867.148-1.48-.317-1.9-1.482-1.417-3.68,3.426-5.712,6.177-2.559a2.252,2.252,0,0,1,.55,2.814A2.825,2.825,0,0,1,45.533,242.788Z"
      transform="translate(-6.712 -7.889)" fill="#e4e47a" fill-rule="evenodd" />
    <path id="Path_170" data-name="Path 170"
      d="M100.783,243.914a5.839,5.839,0,0,1-3.661-4.3c-.232-2.685,2.857-4.717,5.438-3.554,1.417.637,2.538,2.814,2.538,4.908A3.038,3.038,0,0,1,100.783,243.914Z"
      transform="translate(119.051 -9.952)" fill="#e4e47a" fill-rule="evenodd" />
    <path id="Path_171" data-name="Path 171"
      d="M82.089,242.357a4.3,4.3,0,0,1-1.225-1.247c-1.777-2.666.085-5.9,2.792-4.865a3.087,3.087,0,0,1,1.882,2.2C86.51,241.49,84.459,243.795,82.089,242.357Z"
      transform="translate(84.137 -9.782)" fill="#e4e47a" fill-rule="evenodd" />
    <path id="Path_172" data-name="Path 172"
      d="M127.461,242.166c-.424-.169-.76-.593-1.228-1.608-1.1-2.368-1.078-3.6.085-4.293a3.715,3.715,0,0,1,3.661.1,3.2,3.2,0,0,1,1.184,4.528A3.76,3.76,0,0,1,127.461,242.166Z"
      transform="translate(180.703 -10.3)" fill="#e4e47a" fill-rule="evenodd" />
    <path id="Path_173" data-name="Path 173"
      d="M113.408,241.853a5.63,5.63,0,0,1-1.036-3.511,2.793,2.793,0,0,1,3.511-2.855c2.412.613,3.978,1.734,4.421,3.15.148.508-.232,1.736-.55,1.736-.106,0-.317.274-.487.613-.571,1.08-1.291,1.375-3.4,1.4C114.086,242.4,113.917,242.362,113.408,241.853Z"
      transform="translate(165.394 -11.038)" fill="#e4e47a" fill-rule="evenodd" />
    <path id="Path_174" data-name="Path 174"
      d="M72.942,241.186c-1.651-1.693-2.01-3.872-.889-5.267a2.068,2.068,0,0,1,3.024-.191,4.955,4.955,0,0,1,1.947,3.976c-.065.932-.15,1.08-.973,1.714C74.739,242.414,74.063,242.349,72.942,241.186Z"
      transform="translate(66.419 -11.506)" fill="#e4e47a" fill-rule="evenodd" />
    <path id="Path_175" data-name="Path 175"
      d="M63.58,241.4a2.594,2.594,0,0,1-1.354-1.332c-.445-.845-.445-1.015-.232-2.538.252-1.777.676-2.644,1.438-2.92a5.114,5.114,0,0,1,3.109.487c1.228.8,1.714,3.47.91,5.077a3.292,3.292,0,0,1-2.5,1.627A4.652,4.652,0,0,1,63.58,241.4Z"
      transform="translate(47.147 -12.71)" fill="#e4e47a" fill-rule="evenodd" />
    <path id="Path_176" data-name="Path 176"
      d="M56.844,240.7c-1.586-.8-2.305-1.736-2.305-2.942a2.867,2.867,0,0,1,4.187-2.729c2.92,1.482,3.746,5.1,1.375,6.073C59.043,241.547,58.282,241.463,56.844,240.7Z"
      transform="translate(32.438 -12.535)" fill="#e4e47a" fill-rule="evenodd" />
    <path id="Path_177" data-name="Path 177"
      d="M89.826,240.463a3.164,3.164,0,0,1-2.2-.93,5.111,5.111,0,0,1-1.482-3.891,2.773,2.773,0,0,1,.424-1.947c1.482-1.988,5.288-.952,6.707,1.819.676,1.375.719,2.073.148,3.194A3.812,3.812,0,0,1,89.826,240.463Z"
      transform="translate(96.693 -16.351)" fill="#e4e47a" fill-rule="evenodd" />
    <path id="Path_178" data-name="Path 178"
      d="M107.935,239.533a4.582,4.582,0,0,1-2.963-3.743,3.043,3.043,0,0,1,1.673-2.581,1.668,1.668,0,0,1,1.8-.022,5.849,5.849,0,0,1,1.8,1.291c.845.91.867.973.867,2.433,0,1.734-.191,2.2-1.058,2.644A2,2,0,0,1,107.935,239.533Z"
      transform="translate(134.477 -16.047)" fill="#e4e47a" fill-rule="evenodd" />
    <path id="Path_179" data-name="Path 179"
      d="M39.937,238.465c-1.649-.4-3.216-2.094-3.216-3.513a3.893,3.893,0,0,1,.973-2.22,3.49,3.49,0,0,1,2.518.022c1.395.465,3,3,2.77,4.337C42.772,238.232,41.438,238.823,39.937,238.465Z"
      transform="translate(-13.026 -17.131)" fill="#e4e47a" fill-rule="evenodd" />
    <path id="Path_180" data-name="Path 180"
      d="M122.343,239.748a7.427,7.427,0,0,1-2.54-3.087,4.016,4.016,0,0,1-.126-3.661c.591-1.162,1.121-1.543,2.114-1.564,1.736-.022,3.491,1.947,3.765,4.23.15,1.354-.4,3.3-1.056,3.746A2.707,2.707,0,0,1,122.343,239.748Z"
      transform="translate(173.511 -18.69)" fill="#e4e47a" fill-rule="evenodd" />
    <path id="Path_181" data-name="Path 181"
      d="M52.43,237.962a2.432,2.432,0,0,0,1.5-3.511,3.319,3.319,0,0,0-4.148-1.671,2.371,2.371,0,0,0-1.712,2.5,3.621,3.621,0,0,0,1.627,2.876A4.359,4.359,0,0,0,52.43,237.962Zm-1.269-2.349c-.4-.4-.3-.634.169-.38.232.128.424.317.424.424C51.755,235.952,51.457,235.911,51.162,235.613Z"
      transform="translate(19.26 -17.117)" fill="#e4e47a" fill-rule="evenodd" />
    <path id="Path_182" data-name="Path 182"
      d="M99.736,236.8a3.063,3.063,0,0,1-1-2.579c0-1.777.317-2.412,1.5-3,2.622-1.354,5.054-.107,5.054,2.559,0,.656-.148.93-.886,1.629-1.419,1.31-2.053,1.627-3.237,1.627A3.765,3.765,0,0,1,99.736,236.8Z"
      transform="translate(121.974 -20.79)" fill="#e4e47a" fill-rule="evenodd" />
    <path id="Path_183" data-name="Path 183"
      d="M33.947,236.515a4.816,4.816,0,0,1-1.186-.55c-1.649-1.206-1.945-4.232-.506-4.971,2.262-1.186,5.075,1.121,4.569,3.743A2.12,2.12,0,0,1,33.947,236.515Z"
      transform="translate(-19.347 -20.874)" fill="#e4e47a" fill-rule="evenodd" />
    <path id="Path_184" data-name="Path 184"
      d="M79.715,236.368c-2.051-.506-3.787-2.5-3.385-3.869.741-2.477,2.031-3.237,3.872-2.307a5.23,5.23,0,0,1,3,4.1,2.41,2.41,0,0,1-1.395,1.947A2.638,2.638,0,0,1,79.715,236.368Z"
      transform="translate(76.51 -22.439)" fill="#e4e47a" fill-rule="evenodd" />
    <path id="Path_185" data-name="Path 185"
      d="M113.475,236.941a8.634,8.634,0,0,1-2.433-2.835,5.039,5.039,0,0,1,.339-3.385,2.824,2.824,0,0,1,4.547-.634,3.742,3.742,0,0,1,1.1,3.344,4.261,4.261,0,0,1-1.63,3.341C114.575,237.321,114.216,237.365,113.475,236.941Z"
      transform="translate(146.468 -23.316)" fill="#e4e47a" fill-rule="evenodd" />
    <path id="Path_186" data-name="Path 186"
      d="M131.935,235.378c-1.9-1.162-2.305-1.734-2.39-3.257a2.642,2.642,0,0,1,4.7-2.094c1.756,1.818,1.882,5.245.211,6.007C133.649,236.415,133.521,236.373,131.935,235.378Z"
      transform="translate(185.514 -24.017)" fill="#e4e47a" fill-rule="evenodd" />
    <path id="Path_187" data-name="Path 187"
      d="M99.139,232.3a3.747,3.747,0,0,0-1.775-2.368c-2.223-1.5-4.019-.763-4.676,1.947-.3,1.269,1.058,3.109,2.729,3.7A2.834,2.834,0,0,0,99.139,232.3Zm-2.748.784c-.254,0-.53-.424-.382-.571s.571.126.571.38A.19.19,0,0,1,96.39,233.083Z"
      transform="translate(109.631 -23.777)" fill="#e4e47a" fill-rule="evenodd" />
    <path id="Path_188" data-name="Path 188"
      d="M46.367,235.253c-2.368-.869-3.976-3.809-3.046-5.627a3.736,3.736,0,0,1,2.688-1.482,4.922,4.922,0,0,1,3.47,1.862,3.534,3.534,0,0,1,.1,3.743C48.863,235.272,47.8,235.759,46.367,235.253Z"
      transform="translate(-5.601 -25.664)" fill="#e4e47a" fill-rule="evenodd" />
    <path id="Path_189" data-name="Path 189"
      d="M69.051,234.478a3.915,3.915,0,0,1-2.368-2.073,3.258,3.258,0,0,1,4.632-4.061c2.92,1.375,3.659,5.075,1.228,6.262A3.558,3.558,0,0,1,69.051,234.478Z"
      transform="translate(56.471 -26.27)" fill="#e4e47a" fill-rule="evenodd" />
    <path id="Path_190" data-name="Path 190"
      d="M125.533,234.2a2.567,2.567,0,0,1-1.818-1.692c-1-2.053-.191-4.549,1.586-4.886.869-.169,2.349.634,3.194,1.756,1.44,1.925,1.4,3.806-.126,4.654A3.025,3.025,0,0,1,125.533,234.2Z"
      transform="translate(178.188 -26.879)" fill="#e4e47a" fill-rule="evenodd" />
    <path id="Path_191" data-name="Path 191"
      d="M59.736,233.323a2.9,2.9,0,0,1-.93-1.162,1.881,1.881,0,0,1-.232-1.734c.613-2.032,3.448-3.048,5.479-1.968a2.579,2.579,0,0,1,1.332,2.349,1.773,1.773,0,0,1-.678,1.649,4.279,4.279,0,0,1-1.291.889A7.706,7.706,0,0,1,59.736,233.323Z"
      transform="translate(40.382 -26.354)" fill="#e4e47a" fill-rule="evenodd" />
    <path id="Path_192" data-name="Path 192"
      d="M88.444,232.949a2.651,2.651,0,0,1-1.523-2.307,2.8,2.8,0,0,1,3.194-2.622,3.287,3.287,0,0,1,2.286,2.264A2.614,2.614,0,0,1,88.444,232.949Z"
      transform="translate(97.785 -26.48)" fill="#e4e47a" fill-rule="evenodd" />
    <path id="Path_193" data-name="Path 193"
      d="M53.281,234.046a2.144,2.144,0,0,1-1.354-1.8,5.21,5.21,0,0,0-.339-1.438,2.646,2.646,0,0,1,1.608-3.683c2.516-.76,5.605,2.223,5.2,4.993-.211,1.4-1.184,2.094-3.068,2.158A4.906,4.906,0,0,1,53.281,234.046Z"
      transform="translate(25.993 -27.975)" fill="#e4e47a" fill-rule="evenodd" />
    <path id="Path_194" data-name="Path 194"
      d="M108.184,233.361a4.773,4.773,0,0,1-1.121-.465,4.115,4.115,0,0,1-1.312-2.644,4.322,4.322,0,0,1,1.523-2.685,3.924,3.924,0,0,1,4.38.126c1.608,1.482,1.375,4.632-.4,5.542A5.207,5.207,0,0,1,108.184,233.361Z"
      transform="translate(136.307 -28.249)" fill="#e4e47a" fill-rule="evenodd" />
    <path id="Path_195" data-name="Path 195"
      d="M31.771,233.609c.613-.445.741-1.269.38-2.855-.169-.763-.38-1.758-.443-2.223a3.157,3.157,0,0,0-2.39-2.431,1.894,1.894,0,0,0-1.947,1.31c-.93,1.818-.063,4.315,1.966,5.753C30.543,233.989,31.073,234.1,31.771,233.609Zm-2.116-3.215c-.1.317-.569-.55-.569-1.058.02-.274.1-.233.337.213A1.661,1.661,0,0,1,29.655,230.393Z"
      transform="translate(-24.427 -29.69)" fill="#e4e47a" fill-rule="evenodd" />
    <path id="Path_196" data-name="Path 196"
      d="M87.553,231.629c2.029-1.269,1.162-5.119-1.334-5.944-1.458-.487-4.039.254-4.78,1.4-1.08,1.627-.317,3.426,1.881,4.462A4.949,4.949,0,0,0,87.553,231.629Zm-1.566-2.412c-.232-.276-.232-.424-.063-.593s.276-.148.38.107C86.516,229.3,86.3,229.6,85.986,229.218Z"
      transform="translate(86.169 -31.148)" fill="#e4e47a" fill-rule="evenodd" />
    <path id="Path_197" data-name="Path 197"
      d="M102.724,231.6c-1.291-.359-2.242-1.545-3.046-3.806a1.657,1.657,0,0,1-.022-1.545c.952-2.286,3.956-2.073,5.605.38a2.557,2.557,0,0,1,.593,2.305,2.416,2.416,0,0,1-.719,1.862A2.585,2.585,0,0,1,102.724,231.6Z"
      transform="translate(123.426 -32.813)" fill="#e4e47a" fill-rule="evenodd" />
    <path id="Path_198" data-name="Path 198"
      d="M38.3,230.52c-2.412-2.029-1.058-5.944,1.86-5.308a3.38,3.38,0,0,1,2.16,2.283,3.667,3.667,0,0,1-.784,2.813,1.878,1.878,0,0,1-1.523.656A1.747,1.747,0,0,1,38.3,230.52Z"
      transform="translate(-12.635 -32.099)" fill="#e4e47a" fill-rule="evenodd" />
    <path id="Path_199" data-name="Path 199"
      d="M118.617,230.92a5.315,5.315,0,0,1-2.644-3.322,2.772,2.772,0,0,1,.274-2.792,1.11,1.11,0,0,1,1.1-.487,6.376,6.376,0,0,1,3.385,1.693c1.586,1.671,1.627,4.4.041,5.056C119.845,231.448,119.695,231.448,118.617,230.92Z"
      transform="translate(169.345 -33.497)" fill="#e4e47a" fill-rule="evenodd" />
    <path id="Path_200" data-name="Path 200"
      d="M96.64,230.184a3.36,3.36,0,0,1-1.523-2.283,2.544,2.544,0,0,1,.569-2.707c.678-.8,1.46-.847,2.666-.191,1.438.826,1.777,2.073,1.036,3.828C98.754,230.312,97.781,230.777,96.64,230.184Z"
      transform="translate(113.862 -33.299)" fill="#e4e47a" fill-rule="evenodd" />
    <path id="Path_201" data-name="Path 201"
      d="M75.042,230.771a4.875,4.875,0,0,1-3.131-2.327c-1.1-2.2-.7-4.465.91-5.268,1.1-.528,2.073-.233,3.552,1.08,1.143,1.036,2.518,3.47,2.518,4.463a2.34,2.34,0,0,1-1,1.821A4.582,4.582,0,0,1,75.042,230.771Z"
      transform="translate(66.525 -36.091)" fill="#e4e47a" fill-rule="evenodd" />
    <path id="Path_202" data-name="Path 202"
      d="M95.051,227.434a3.89,3.89,0,0,0-3.109-5.458,1.522,1.522,0,0,0-1.608.508c-2.031,1.8-1.46,5.816,1,6.937C92.724,230.079,94.162,229.3,95.051,227.434Zm-3.235-1.714c-.106.339-.382-.041-.382-.528.022-.4.022-.424.232-.063A.872.872,0,0,1,91.816,225.72Z"
      transform="translate(102.377 -38.177)" fill="#e4e47a" fill-rule="evenodd" />
    <path id="Path_203" data-name="Path 203"
      d="M129.691,227.612a7.365,7.365,0,0,0-.784-.189c-1.184-.276-1.9-2.751-1.121-3.872.656-.952,2.92-.8,3.893.233a2.705,2.705,0,0,1,.591,1.46,1.482,1.482,0,0,1-.487,1.586A2.4,2.4,0,0,1,129.691,227.612Z"
      transform="translate(183.085 -36.86)" fill="#e4e47a" fill-rule="evenodd" />
    <path id="Path_204" data-name="Path 204"
      d="M65.42,228.228c1.438-.043,1.777-.128,2.327-.571a3.136,3.136,0,0,0,.91-1.227c.506-1.438-.634-4.378-1.9-4.908a3.988,3.988,0,0,0-3.152.361c-.8.613-1.08,1.269-1.08,2.729,0,1.775.169,2.516.741,3.131C63.708,228.206,63.876,228.247,65.42,228.228Zm.38-3.533c-.189,0-.252-.128-.189-.317.085-.169.148-.319.189-.319s.106.15.191.319C66.055,224.567,65.992,224.695,65.8,224.695Z"
      transform="translate(48.533 -39.555)" fill="#e4e47a" fill-rule="evenodd" />
    <path id="Path_205" data-name="Path 205"
      d="M33.663,227.64a4.248,4.248,0,0,1-1.905-1.755,5.16,5.16,0,0,1-.317-3.257,2.1,2.1,0,0,1,2.073-1.4,4.288,4.288,0,0,1,3,2.179c.678,1.46.571,2.032-.571,3.153C34.888,227.558,34.382,227.81,33.663,227.64Z"
      transform="translate(-19.38 -39.882)" fill="#e4e47a" fill-rule="evenodd" />
    <path id="Path_206" data-name="Path 206"
      d="M58.984,227.394a2.963,2.963,0,0,0,1.46-2.286c0-2.094-2.751-4.274-4.739-3.724a2.152,2.152,0,0,0-1.692,2.37c.022,1.46.38,2.073,1.755,3.109C57.016,227.8,57.9,227.944,58.984,227.394Zm-1.5-2.559c0-.169.1-.254.211-.191a.259.259,0,0,1,.106.339C57.609,225.278,57.483,225.215,57.483,224.835Z"
      transform="translate(31.317 -39.755)" fill="#e4e47a" fill-rule="evenodd" />
    <path id="Path_207" data-name="Path 207"
      d="M122.322,226.776a2.946,2.946,0,0,1-1.966-2.54c0-1.86,1.141-2.833,3.109-2.685a3.01,3.01,0,0,1,2.77,1.862c.889,1.777.4,2.918-1.48,3.489C123.38,227.3,123.38,227.3,122.322,226.776Z"
      transform="translate(174.756 -39.444)" fill="#e4e47a" fill-rule="evenodd" />
    <path id="Path_208" data-name="Path 208"
      d="M108.1,227.252a3.88,3.88,0,0,1-2.286-2.433,3.024,3.024,0,0,1,1.671-2.983,3.624,3.624,0,0,1,5.1.763c1.543,2.368.3,4.569-2.729,4.8A5.536,5.536,0,0,1,108.1,227.252Z"
      transform="translate(136.52 -40.126)" fill="#e4e47a" fill-rule="evenodd" />
    <path id="Path_209" data-name="Path 209"
      d="M46.78,227.42a2.738,2.738,0,0,1-1.758-2.5c-.1-1.417.487-3.257,1.271-3.828a3.519,3.519,0,0,1,3.342-.191,4.28,4.28,0,0,1,1.375,5.332A3.432,3.432,0,0,1,46.78,227.42Z"
      transform="translate(13.077 -41.066)" fill="#e4e47a" fill-rule="evenodd" />
    <path id="Path_210" data-name="Path 210"
      d="M115.273,225.978a7.064,7.064,0,0,1-2.751-3.194c-.421-1.417-.317-2.094.467-2.961a1.84,1.84,0,0,1,1.86-.782,4.049,4.049,0,0,1,3.259,1.819C120.307,223.843,118.319,227.482,115.273,225.978Z"
      transform="translate(165.285 -44.14)" fill="#e4e47a" fill-rule="evenodd" />
    <path id="Path_211" data-name="Path 211"
      d="M78.427,225.879a3.083,3.083,0,0,1-1.545-3.363,4.635,4.635,0,0,1,1.84-3.47c2.242-1.162,5.1.847,5.14,3.617C83.9,225.86,81.072,227.55,78.427,225.879Z"
      transform="translate(77.694 -44.695)" fill="#e4e47a" fill-rule="evenodd" />
    <path id="Path_212" data-name="Path 212"
      d="M135.624,224.754A3.689,3.689,0,0,0,137.4,222a4,4,0,0,0-1.312-2.729c-2.453-1.756-5.942,1.058-5.054,4.063a2.38,2.38,0,0,0,1.247,1.458A2.541,2.541,0,0,0,135.624,224.754Zm-.993-3.131c-.106,0-.148-.085-.085-.211.063-.106.169-.213.232-.213.041,0,.085.106.085.213A.218.218,0,0,1,134.631,221.623Z"
      transform="translate(187.113 -44.899)" fill="#e4e47a" fill-rule="evenodd" />
    <path id="Path_213" data-name="Path 213"
      d="M97.484,224.309a6.845,6.845,0,0,1-1.586-1.184,1.837,1.837,0,0,1-.7-1.693c.022-1.036.317-1.438,1.777-2.5,1.4-1.036,2.031-1.228,2.814-.91a2.946,2.946,0,0,1,1.734,2.031C102.665,223.335,100.382,225.747,97.484,224.309Z"
      transform="translate(114.808 -46.578)" fill="#e4e47a" fill-rule="evenodd" />
    <path id="Path_214" data-name="Path 214"
      d="M40.042,222.79c-1.438-1.545-1.86-2.349-1.86-3.574,0-.869.085-.954,1.056-1.143.3-.063.932-.232,1.44-.38a1.659,1.659,0,0,1,1.671.148,2.746,2.746,0,0,1,1.627,2.918c-.02,1.947-.654,2.983-1.966,3.237C41.376,224.122,41.228,224.037,40.042,222.79Z"
      transform="translate(-11.313 -47.354)" fill="#e4e47a" fill-rule="evenodd" />
    <path id="Path_215" data-name="Path 215"
      d="M125.987,222.6c-1.312-1.395-1.671-2.751-1.036-3.976a2.548,2.548,0,0,1,2.264-1.482,3.346,3.346,0,0,1,2.664,1.354,2.928,2.928,0,0,1,.656,3.026c-.424,1.078-1.162,1.564-2.644,1.69C126.685,223.319,126.622,223.3,125.987,222.6Z"
      transform="translate(179.786 -48.238)" fill="#e4e47a" fill-rule="evenodd" />
    <path id="Path_216" data-name="Path 216"
      d="M30.621,223.021c1.058-.973,1.162-2.707.274-4.463a2.993,2.993,0,0,0-3.806-1.692c-1.884.782-1.629,4.145.443,6.029A2.064,2.064,0,0,0,30.621,223.021Zm-2.2-2.814c-.339-.443-.487-1-.274-1.121.232-.148,1.056.719,1.056,1.1C29.2,220.547,28.7,220.547,28.42,220.208Z"
      transform="translate(-25.815 -49.038)" fill="#e4e47a" fill-rule="evenodd" />
    <path id="Path_217" data-name="Path 217"
      d="M70.073,223.451a4.244,4.244,0,0,1-2.029-3.024,3.484,3.484,0,0,1,.845-3.787c.678-.676.8-.719,1.692-.613a3.317,3.317,0,0,1,2.707,1.925,4.816,4.816,0,0,1,.571,3.765A2.729,2.729,0,0,1,70.073,223.451Z"
      transform="translate(59.3 -50.252)" fill="#e4e47a" fill-rule="evenodd" />
    <path id="Path_218" data-name="Path 218"
      d="M86.3,223.243a3.253,3.253,0,0,1-1.925-2.77c-.465-2.6.634-4.421,2.685-4.421a4.81,4.81,0,0,1,3.152,1.882,6.623,6.623,0,0,1,.763,1.884,2.3,2.3,0,0,1-.235,2.094A3.107,3.107,0,0,1,86.3,223.243Z"
      transform="translate(92.719 -50.135)" fill="#e4e47a" fill-rule="evenodd" />
    <path id="Path_219" data-name="Path 219"
      d="M103.672,221.889a4.923,4.923,0,0,1-1.523-2.92,2.935,2.935,0,0,1,2.538-2.9,3.516,3.516,0,0,1,2.412,1.755c.656,1.419.276,3.85-.676,4.358A2.736,2.736,0,0,1,103.672,221.889Z"
      transform="translate(128.517 -50.358)" fill="#e4e47a" fill-rule="evenodd" />
    <path id="Path_220" data-name="Path 220"
      d="M53.142,222.332a11,11,0,0,1-1.225-.826,2.215,2.215,0,0,0-1-.506c-1.036,0-1.438-2.305-.613-3.68,1.564-2.666,5.119-2.01,6.049,1.121.445,1.564.3,3.341-.358,3.869A3.075,3.075,0,0,1,53.142,222.332Z"
      transform="translate(22.944 -51.064)" fill="#e4e47a" fill-rule="evenodd" />
    <path id="Path_221" data-name="Path 221"
      d="M60.624,222.04c-2.92-1.46-3.85-6.748-1.184-6.748a5.717,5.717,0,0,1,3.172,1.523,6.718,6.718,0,0,1,1.566,3.385,1.927,1.927,0,0,1-.571,1.417A2.3,2.3,0,0,1,60.624,222.04Z"
      transform="translate(39.104 -51.785)" fill="#e4e47a" fill-rule="evenodd" />
    <path id="Path_222" data-name="Path 222"
      d="M120.922,220.191c-2.559-.4-2.877-.487-3.172-.932-1.1-1.564.889-4.356,3.109-4.356,2.581,0,4.38,3.215,2.729,4.886C122.931,220.424,122.742,220.465,120.922,220.191Z"
      transform="translate(171.334 -52.905)" fill="#e4e47a" fill-rule="evenodd" />
    <path id="Path_223" data-name="Path 223"
      d="M45.474,220.44a7.379,7.379,0,0,1-2.242-2.518,4.142,4.142,0,0,1,.15-2.792,2.732,2.732,0,0,1,2.877-1.63c2.453.467,3.743,5.988,1.671,7.109A2.816,2.816,0,0,1,45.474,220.44Z"
      transform="translate(-5.597 -55.443)" fill="#e4e47a" fill-rule="evenodd" />
    <path id="Path_224" data-name="Path 224"
      d="M114.209,219.869a1.835,1.835,0,0,0,1.777-.741c.741-.76.76-.823.676-2.008a3.421,3.421,0,0,0-2.01-2.963,4.288,4.288,0,0,0-3.7-.041A2.81,2.81,0,0,0,109.6,216.8c.15,1.206.719,1.842,2.264,2.477A7.1,7.1,0,0,0,114.209,219.869Zm-.8-2.305c-.424-.169-.826-.8-.634-1,.211-.233.93.191,1.143.678C114.166,217.818,114.1,217.859,113.405,217.564Z"
      transform="translate(144.113 -55.167)" fill="#e4e47a" fill-rule="evenodd" />
    <path id="Path_225" data-name="Path 225"
      d="M99.164,218.9a2.256,2.256,0,0,1-1.141-1.288c-1.375-3.152,1.86-5.458,4.271-3.046,1.354,1.354,1.312,3.213-.063,4.1A3.7,3.7,0,0,1,99.164,218.9Z"
      transform="translate(119.595 -55.587)" fill="#e4e47a" fill-rule="evenodd" />
    <path id="Path_226" data-name="Path 226"
      d="M94.159,219.2c-1.69-.3-3.32-2.39-3.066-3.935.465-2.792,2.792-3.828,4.758-2.116,1.842,1.608,2.01,4.4.339,5.564A2.167,2.167,0,0,1,94.159,219.2Z"
      transform="translate(106.354 -57.846)" fill="#e4e47a" fill-rule="evenodd" />
    <path id="Path_227" data-name="Path 227"
      d="M34.845,218.015a4.8,4.8,0,0,1-1.417-1.269,2.618,2.618,0,0,1-.7-1.882c0-.847.106-1.058.847-1.8.8-.8.908-.845,1.818-.741,1.184.128,1.925.782,2.707,2.39.7,1.419.593,2.37-.337,3.152A2.594,2.594,0,0,1,34.845,218.015Z"
      transform="translate(-17.707 -58.077)" fill="#e4e47a" fill-rule="evenodd" />
    <path id="Path_228" data-name="Path 228"
      d="M131.51,217.675a4.916,4.916,0,0,1-1.419-1.755,2.247,2.247,0,0,1-.274-2.157c.506-2.01,1.9-2.305,3.6-.782a3.746,3.746,0,0,1,1.417,2.855,2.317,2.317,0,0,1-1.078,2.16C132.886,218.415,132.462,218.374,131.51,217.675Z"
      transform="translate(185.665 -58.594)" fill="#e4e47a" fill-rule="evenodd" />
    <path id="Path_229" data-name="Path 229"
      d="M78.159,218.413c-1.692-.593-2.77-2.559-2.22-4a7.163,7.163,0,0,1,2.9-2.879c1.523-.487,2.94.91,3.426,3.385.317,1.63.022,2.6-.993,3.3A3.183,3.183,0,0,1,78.159,218.413Z"
      transform="translate(75.478 -59.564)" fill="#e4e47a" fill-rule="evenodd" />
    <path id="Path_230" data-name="Path 230"
      d="M64.207,219.1c-1.671-.91-1.966-4.465-.593-6.959a2.378,2.378,0,0,1,3.83-.763,3.932,3.932,0,0,1,1.48,2.751C69.389,217.279,66.471,220.368,64.207,219.1Z"
      transform="translate(48.981 -60.783)" fill="#e4e47a" fill-rule="evenodd" />
    <path id="Path_231" data-name="Path 231"
      d="M123.408,215.577c-1.291-1.269-1.4-1.438-1.4-2.283a2.542,2.542,0,0,1,.274-1.249,3.9,3.9,0,0,1,1.947-1.036,6.65,6.65,0,0,1,2.751,1.5,2.148,2.148,0,0,1,.191,3.131C125.861,217.4,125.268,217.4,123.408,215.577Z"
      transform="translate(176.697 -60.691)" fill="#e4e47a" fill-rule="evenodd" />
    <path id="Path_232" data-name="Path 232"
      d="M56.178,217.792a5.262,5.262,0,0,1-2.39-5.077,4.8,4.8,0,0,1,1.84-3.765c.889-.615,1.375-.615,2.455,0,1.2.656,1.8,1.947,1.818,3.85.022.826.041,1.966.041,2.538a2.4,2.4,0,0,1-1.438,2.518A2.109,2.109,0,0,1,56.178,217.792Z"
      transform="translate(30.801 -65.123)" fill="#e4e47a" fill-rule="evenodd" />
    <path id="Path_233" data-name="Path 233"
      d="M71.1,216.3a5.211,5.211,0,0,1-2.305-2.835,3.039,3.039,0,0,1,1.395-3.278c1.291-.93,2.138-1.036,3.046-.4a5.025,5.025,0,0,1,1.673,4.823C74.591,216.49,72.9,217.231,71.1,216.3Z"
      transform="translate(61.054 -63.734)" fill="#e4e47a" fill-rule="evenodd" />
    <path id="Path_234" data-name="Path 234"
      d="M106.657,215.793a4.684,4.684,0,0,1-2.688-2.877,2.848,2.848,0,0,1,2.857-3.3,3.035,3.035,0,0,1,1.819.719c1.523,1.1,1.882,1.692,1.882,3.172,0,1.058-.085,1.312-.569,1.8A3.591,3.591,0,0,1,106.657,215.793Z"
      transform="translate(132.507 -63.433)" fill="#e4e47a" fill-rule="evenodd" />
    <path id="Path_235" data-name="Path 235"
      d="M40.767,215.351a5.568,5.568,0,0,1-2.581-2.264,3.7,3.7,0,0,1-.3-1.438,2.539,2.539,0,0,1,3.511-2.114,5.785,5.785,0,0,1,2.622,2.453,2.678,2.678,0,0,1-1.312,3.448C41.907,215.731,41.781,215.709,40.767,215.351Z"
      transform="translate(-11.655 -63.93)" fill="#e4e47a" fill-rule="evenodd" />
    <path id="Path_236" data-name="Path 236"
      d="M84.131,214.611c-1.417-1.162-1.649-1.523-1.649-2.559a1.811,1.811,0,0,1,.591-1.545,4.417,4.417,0,0,1,2.857-1.056,2.911,2.911,0,0,1,2.9,2.877c0,.993-.382,1.586-1.545,2.431A2.184,2.184,0,0,1,84.131,214.611Z"
      transform="translate(88.979 -63.848)" fill="#e4e47a" fill-rule="evenodd" />
    <path id="Path_237" data-name="Path 237"
      d="M116.293,215.364a3.677,3.677,0,0,1-1.925-1.693,4.773,4.773,0,0,1,.676-4,2.619,2.619,0,0,1,2.92-.847,3.321,3.321,0,0,1,2.538,2.179,2.7,2.7,0,0,1-.085,2.688A3.578,3.578,0,0,1,116.293,215.364Z"
      transform="translate(167.502 -65.203)" fill="#e4e47a" fill-rule="evenodd" />
    <path id="Path_238" data-name="Path 238"
      d="M50.389,215.742a4.545,4.545,0,0,1-2.666-3.872,4.173,4.173,0,0,1,1.566-3.087l.908-.91.424.53a2.224,2.224,0,0,0,.867.654c1.586.508,2.581,4.337,1.482,5.734a3.877,3.877,0,0,1-1.9,1.143C51.023,215.933,50.728,215.827,50.389,215.742Z"
      transform="translate(18.514 -66.666)" fill="#e4e47a" fill-rule="evenodd" />
    <path id="Path_239" data-name="Path 239"
      d="M98.8,214.35a3.413,3.413,0,0,1-1.905-3.172,2.217,2.217,0,0,1,1.271-2.286c1.1-.571,1.671-.4,2.77.719a3.22,3.22,0,0,1,1.162,3.09A2.5,2.5,0,0,1,98.8,214.35Z"
      transform="translate(117.883 -65.622)" fill="#e4e47a" fill-rule="evenodd" />
    <path id="Path_240" data-name="Path 240"
      d="M32.224,213.855a2.966,2.966,0,0,0,.719-3.109,5.058,5.058,0,0,0-1.881-2.349,3.48,3.48,0,0,0-4.506,1.08c-.8,1.586.571,4,2.622,4.654A5.254,5.254,0,0,0,32.224,213.855Zm-3.172-3.172c-.213-.53-.191-.571.38-.571.634,0,.867.3.867,1.184C30.3,212.247,29.5,211.845,29.052,210.683Z"
      transform="translate(-25.219 -66.754)" fill="#e4e47a" fill-rule="evenodd" />
    <path id="Path_241" data-name="Path 241"
      d="M133.9,212.808c-1.821-.952-2.961-3.363-2.223-4.758.508-.91,2.477-1.334,3.683-.784.889.4,1.141,1.017,1.184,2.942.063,2.305.085,2.157-.615,2.579A1.741,1.741,0,0,1,133.9,212.808Z"
      transform="translate(187.762 -68.736)" fill="#e4e47a" fill-rule="evenodd" />
    <path id="Path_242" data-name="Path 242"
      d="M91.443,212.374a3.334,3.334,0,0,1-1.545-1.419c-1.184-1.712-1.036-2.961.445-3.954,1.9-1.291,4.971.317,5.245,2.748C95.842,211.991,93.9,213.219,91.443,212.374Z"
      transform="translate(102.44 -69.702)" fill="#e4e47a" fill-rule="evenodd" />
    <path id="Path_243" data-name="Path 243"
      d="M76.451,212.02a3.245,3.245,0,0,1-1.775-3.237,5.3,5.3,0,0,1,2.283-2.877c.719-.317,1.651-.041,3.024.889,3.111,2.138,2.307,5.184-1.458,5.605A2.808,2.808,0,0,1,76.451,212.02Z"
      transform="translate(73.252 -71.154)" fill="#e4e47a" fill-rule="evenodd" />
    <path id="Path_244" data-name="Path 244"
      d="M127.206,211.987A3.631,3.631,0,0,1,125.6,210c-.128-1.945,1.184-3.954,2.6-3.954a3.311,3.311,0,0,1,2.223,1.734c.676,1.29.339,3.237-.634,3.872A3.5,3.5,0,0,1,127.206,211.987Z"
      transform="translate(180.894 -70.721)" fill="#e4e47a" fill-rule="evenodd" />
    <path id="Path_245" data-name="Path 245"
      d="M34.553,211.242c-1.629-1.1-2.116-1.84-2.116-3.2a2.682,2.682,0,0,1,1.269-2.579c1.228-.634,2.455-.213,3.6,1.247,1.419,1.819,1.545,4.274.235,5.056C36.6,212.32,36.013,212.214,34.553,211.242Z"
      transform="translate(-18.049 -72.325)" fill="#e4e47a" fill-rule="evenodd" />
    <path id="Path_246" data-name="Path 246"
      d="M113.292,209.741a2.866,2.866,0,0,0-.847-4.421,2.835,2.835,0,0,0-4.315,2.961,3.457,3.457,0,0,0,2.116,2.748C111.239,211.475,112.445,210.988,113.292,209.741Zm-2.412-1.714a.233.233,0,0,1-.213-.233c0-.106.106-.148.213-.085.126.063.211.17.211.233C111.092,207.983,111.007,208.027,110.881,208.027Z"
      transform="translate(140.649 -73.013)" fill="#e4e47a" fill-rule="evenodd" />
    <path id="Path_247" data-name="Path 247"
      d="M61.819,211.275c-.847-.656-1.1-1.692-.782-3.235.421-2.223,1.247-3.407,2.811-4.063,3.153-1.31,5.542,3.237,3.174,6.051C65.773,211.507,62.962,212.164,61.819,211.275Z"
      transform="translate(45.363 -75.076)" fill="#e4e47a" fill-rule="evenodd" />
    <path id="Path_248" data-name="Path 248"
      d="M121.077,210.589a5.72,5.72,0,0,1-2.305-2.942,2.621,2.621,0,0,1,2.053-3.109c1.458-.254,3.6,1.417,3.891,3.024A2.841,2.841,0,0,1,121.077,210.589Z"
      transform="translate(172.849 -73.793)" fill="#e4e47a" fill-rule="evenodd" />
    <path id="Path_249" data-name="Path 249"
      d="M84.373,210.28a7.276,7.276,0,0,1-1.438-1.332,1.934,1.934,0,0,1-.487-1.905,6.381,6.381,0,0,1,.445-1.712,1.929,1.929,0,0,1,2.136-.952,7.289,7.289,0,0,0,1.46.169c.889.02.889.02,1.671,1.882.867,2.053-.126,4.061-2.157,4.315A2.184,2.184,0,0,1,84.373,210.28Z"
      transform="translate(88.759 -74.142)" fill="#e4e47a" fill-rule="evenodd" />
    <path id="Path_250" data-name="Path 250"
      d="M103.1,210.109c-1.564-.91-2.116-1.736-2.116-3.2a2.609,2.609,0,0,1,3.322-2.579c1.354.38,2.455,1.819,2.9,3.828a2.182,2.182,0,0,1-.93,2.283C105.3,211.1,104.682,211.039,103.1,210.109Z"
      transform="translate(126.431 -74.287)" fill="#e4e47a" fill-rule="evenodd" />
    <path id="Path_251" data-name="Path 251"
      d="M45.7,210.9a2.247,2.247,0,0,0,1.9-.869,1.874,1.874,0,0,0,.763-1.9c0-1.395-.634-2.327-2.286-3.4-1.945-1.312-3.913-1.165-4.676.317-.465.889-.4,1.523.3,3.024a4.6,4.6,0,0,0,2.242,2.559A3.27,3.27,0,0,0,45.7,210.9Zm-1.417-3.957a.677.677,0,0,1-.552-.211c-.063-.107.065-.213.3-.213a.736.736,0,0,1,.55.213C44.646,206.861,44.52,206.946,44.287,206.946Z"
      transform="translate(-7.878 -75.041)" fill="#e4e47a" fill-rule="evenodd" />
    <path id="Path_252" data-name="Path 252"
      d="M97.267,208.9c-2.664-.826-3.533-3.131-1.734-4.613,1.586-1.29,4.908.169,4.908,2.16A2.432,2.432,0,0,1,97.267,208.9Z"
      transform="translate(113.374 -75.39)" fill="#e4e47a" fill-rule="evenodd" />
    <path id="Path_253" data-name="Path 253"
      d="M68.155,209.081a3.434,3.434,0,0,1-1.058-2.01,2.618,2.618,0,0,1,.126-2.2,2.722,2.722,0,0,1,2.562-1.905,3.526,3.526,0,0,1,3.448,1.777c1.543,2.412.952,4.063-1.673,4.782C69.593,210.076,69.085,210.013,68.155,209.081Z"
      transform="translate(57.578 -76.856)" fill="#e4e47a" fill-rule="evenodd" />
    <path id="Path_254" data-name="Path 254"
      d="M56.019,207.348a2.654,2.654,0,0,1-.339-3.954c1.036-1.228,2.942-1.629,3.809-.826a5.591,5.591,0,0,1,.93,1.375l.487.973-.508.952a3.264,3.264,0,0,1-2.729,1.947A1.763,1.763,0,0,1,56.019,207.348Z"
      transform="translate(33.17 -78.659)" fill="#e4e47a" fill-rule="evenodd" />
    <path id="Path_255" data-name="Path 255"
      d="M30.081,208.038a3.65,3.65,0,0,1-2.644-2.01,3.77,3.77,0,0,1,.3-3.257,4.651,4.651,0,0,1,3.213-1.651c1.46.213,1.99,1.165,2.242,4.167.128,1.482.106,1.651-.358,2.179C32.282,208.1,31.52,208.249,30.081,208.038Z"
      transform="translate(-24.197 -80.563)" fill="#e4e47a" fill-rule="evenodd" />
    <path id="Path_256" data-name="Path 256"
      d="M49.356,208.052c-1-.552-1.438-1.567-1.438-3.259,0-1.84.38-2.833,1.312-3.4,2.029-1.227,4.208.528,4.271,3.467a3.392,3.392,0,0,1-.4,2.01A2.905,2.905,0,0,1,49.356,208.052Z"
      transform="translate(18.898 -80.755)" fill="#e4e47a" fill-rule="evenodd" />
    <path id="Path_257" data-name="Path 257"
      d="M40.841,207.522a2.628,2.628,0,0,0,.823-.889A2.437,2.437,0,0,0,42,204.687c-.169-1.9-1.4-4.019-2.622-4.484-1.651-.613-3.259.191-4.443,2.22-.91,1.566.782,4.421,3.068,5.2A3.484,3.484,0,0,0,40.841,207.522Zm-2.581-3.893c-.148-.317-.148-.443,0-.443.126,0,.274.148.358.317C38.81,204.031,38.534,204.115,38.26,203.629Z"
      transform="translate(-15.41 -82.69)" fill="#e4e47a" fill-rule="evenodd" />
    <path id="Path_258" data-name="Path 258"
      d="M134.167,203.2a6.12,6.12,0,0,0-1.269-1.543c-2.138-1.884-4.719-1.566-5.269.676-.106.382,0,.656.38,1.017a3.678,3.678,0,0,1,.741,1.373,3.587,3.587,0,0,0,2.031,2.433C133.216,208.275,135.373,205.759,134.167,203.2Zm-3.554,1.186c-.041,0-.126-.191-.191-.424s-.02-.424.085-.424.191.191.191.424S130.656,204.384,130.613,204.384Z"
      transform="translate(183.24 -81.962)" fill="#e4e47a" fill-rule="evenodd" />
    <path id="Path_259" data-name="Path 259"
      d="M76.925,207.156c-.7-.38-1.354-1.8-1.777-3.765-.593-2.792,1.438-4.293,3.806-2.792,1.629,1.058,2.518,3.639,1.714,5.119C79.991,206.987,77.984,207.749,76.925,207.156Z"
      transform="translate(73.835 -82.757)" fill="#e4e47a" fill-rule="evenodd" />
    <path id="Path_260" data-name="Path 260"
      d="M90.979,206.574c-2.37-1.247-2.622-3.659-.487-4.739a10.137,10.137,0,0,0,1.482-.93,2.816,2.816,0,0,1,4.61,2.327C96.585,205.729,93.2,207.758,90.979,206.574Z"
      transform="translate(102.54 -82.395)" fill="#e4e47a" fill-rule="evenodd" />
    <path id="Path_261" data-name="Path 261"
      d="M108.32,205.007a2.965,2.965,0,0,1-1.692-2.855,2.763,2.763,0,0,1,2.981-2.855c1.99.085,4.421,2.346,4.421,4.1a2.617,2.617,0,0,1-.823,1.271c-.8.8-.847.824-2.37.824A4.917,4.917,0,0,1,108.32,205.007Z"
      transform="translate(138.213 -84.365)" fill="#e4e47a" fill-rule="evenodd" />
    <path id="Path_262" data-name="Path 262"
      d="M115.941,204.871a3.687,3.687,0,0,1-1.821-2.559c-.424-1.332-.317-1.819.465-2.136.317-.148.8-.38,1.1-.55a2.789,2.789,0,0,1,3.448.93,2.716,2.716,0,0,1-.741,4A2.287,2.287,0,0,1,115.941,204.871Z"
      transform="translate(167.157 -84.337)" fill="#e4e47a" fill-rule="evenodd" />
    <path id="Path_263" data-name="Path 263"
      d="M84.53,206.034a4.439,4.439,0,0,0,2.516-4.315c0-3.533-3.342-5.458-4.843-2.792a5.411,5.411,0,0,0-.613,3.637,10.64,10.64,0,0,1,.274,1.5,2.415,2.415,0,0,0,1.228,2.051C83.727,206.373,83.727,206.373,84.53,206.034Zm-.656-5.1c-.106.063-.211-.063-.211-.3,0-.252.1-.443.211-.443.126,0,.211.126.211.3A.536.536,0,0,1,83.874,200.937Z"
      transform="translate(86.778 -87.303)" fill="#e4e47a" fill-rule="evenodd" />
    <path id="Path_264" data-name="Path 264"
      d="M101.647,203.777a3.324,3.324,0,0,1-1.882-2.453,3.1,3.1,0,0,1,1.143-2.562,10.615,10.615,0,0,1,2.22-.167c1.84,0,1.882.02,2.475.654a2.8,2.8,0,0,1-.847,4.484A3.084,3.084,0,0,1,101.647,203.777Z"
      transform="translate(124.03 -85.868)" fill="#e4e47a" fill-rule="evenodd" />
    <path id="Path_265" data-name="Path 265"
      d="M67.376,202.855a3.593,3.593,0,0,0,.7-2.327c.085-1.269.022-1.5-.424-2.01-1.31-1.523-4.886-.569-6.007,1.588a3.336,3.336,0,0,0,1.947,4.421C65.027,204.972,66.255,204.422,67.376,202.855ZM64.2,200.742c-.126-.233.7-.763.889-.571a.522.522,0,0,1,0,.443A.532.532,0,0,1,64.2,200.742Z"
      transform="translate(46.244 -87.348)" fill="#e4e47a" fill-rule="evenodd" />
    <path id="Path_266" data-name="Path 266"
      d="M125.5,204.036a5.738,5.738,0,0,0,1.5-3.109,3.1,3.1,0,0,0-2.433-2.814,2.9,2.9,0,0,0-3,2.559,4,4,0,0,0,1.228,3.174A2.366,2.366,0,0,0,125.5,204.036Zm-.993-3.131c-.763-.254-.784-.613-.043-.719a1,1,0,0,1,1.058.847C125.525,201.222,125.44,201.222,124.51,200.905Z"
      transform="translate(176.144 -86.802)" fill="#e4e47a" fill-rule="evenodd" />
    <path id="Path_267" data-name="Path 267"
      d="M71.034,203.652c-1.015-.552-1.375-1.291-1.84-3.872-.233-1.375,1.438-2.814,2.961-2.518a3.79,3.79,0,0,1,2.475,1.608,3.715,3.715,0,0,1-.148,3.491C73.552,203.608,72.027,204.158,71.034,203.652Z"
      transform="translate(61.932 -88.504)" fill="#e4e47a" fill-rule="evenodd" />
    <path id="Path_268" data-name="Path 268"
      d="M43.339,203.253a3.437,3.437,0,0,1-1.078-1.206,5.707,5.707,0,0,1-.128-3.7,2.278,2.278,0,0,1,1.988-1.162,8.662,8.662,0,0,1,3.893,1.925,4.138,4.138,0,0,1-.445,3.489A3.287,3.287,0,0,1,43.339,203.253Z"
      transform="translate(-6.973 -88.591)" fill="#e4e47a" fill-rule="evenodd" />
    <path id="Path_269" data-name="Path 269"
      d="M54.509,203.109c-2.031-1.058-2.814-3.47-1.673-5.012a3.406,3.406,0,0,1,2.327-1.206,4.973,4.973,0,0,1,3.6,2.644,2.393,2.393,0,0,1-.087,2.412A3.233,3.233,0,0,1,54.509,203.109Z"
      transform="translate(27.896 -89.186)" fill="#e4e47a" fill-rule="evenodd" />
    <path id="Path_270" data-name="Path 270"
      d="M33.9,201.813a3.394,3.394,0,0,1-2.877-2.2,3.624,3.624,0,0,0-.53-1.165,1.826,1.826,0,0,1-.083-2.136c.7-1.332,2.833-1.692,4.463-.741C38.235,197.541,37.473,202.449,33.9,201.813Z"
      transform="translate(-20.78 -92.906)" fill="#e4e47a" fill-rule="evenodd" />
    <path id="Path_271" data-name="Path 271"
      d="M99.817,200.491a3.824,3.824,0,0,0-1.545-5.2,3.748,3.748,0,0,0-5.373,3.279c0,1.692.656,2.368,2.857,2.918C97.829,201.992,98.991,201.7,99.817,200.491Zm-3.385-1.862c-.254-.232-.167-.487.169-.487a.325.325,0,0,1,.317.317C96.918,198.8,96.664,198.883,96.432,198.629Z"
      transform="translate(110.35 -93.146)" fill="#e4e47a" fill-rule="evenodd" />
    <path id="Path_272" data-name="Path 272"
      d="M48.351,199.98c-.676-.634-1.438-1.356-1.692-1.588-1.291-1.1.106-4.337,2.073-4.865,1.482-.4,3.046.719,3.787,2.688,1.017,2.729.043,4.928-2.2,4.928C49.7,201.142,49.368,200.931,48.351,199.98Z"
      transform="translate(15.43 -96.03)" fill="#e4e47a" fill-rule="evenodd" />
    <path id="Path_273" data-name="Path 273"
      d="M82.326,199.07a2.5,2.5,0,0,0,.339-1.734c-.085-.763-.022-1.164.211-1.419.465-.528.191-1.353-.634-1.8-1.036-.571-3.935-.53-4.739.063a3.693,3.693,0,0,0-1.545,2.559,4.257,4.257,0,0,0,2.751,3.617A3.26,3.26,0,0,0,82.326,199.07Zm-3.174-1.608a.446.446,0,0,1,.106-.678c.3-.232.38-.211.634.128a1.4,1.4,0,0,1,.3.676C80.19,198.012,79.386,197.906,79.152,197.463Z"
      transform="translate(75.913 -95.595)" fill="#e4e47a" fill-rule="evenodd" />
    <path id="Path_274" data-name="Path 274"
      d="M87.546,200.35a3.422,3.422,0,0,1-1.586-2.2,5.846,5.846,0,0,1,.252-3.467,3.32,3.32,0,0,1,2.581-1.1c1.8,0,3.109,1.5,3.109,3.554A3.326,3.326,0,0,1,87.546,200.35Z"
      transform="translate(95.668 -95.844)" fill="#e4e47a" fill-rule="evenodd" />
    <path id="Path_275" data-name="Path 275"
      d="M130.05,199.474a3.748,3.748,0,0,0-1.1-.424c-2.264-.506-2.431-3.891-.254-5.012a2.166,2.166,0,0,1,1.925-.191,2.044,2.044,0,0,1,1.588,1.143c.908,1.417.93,3.489.063,4.358A1.974,1.974,0,0,1,130.05,199.474Z"
      transform="translate(182.726 -95.687)" fill="#e4e47a" fill-rule="evenodd" />
    <path id="Path_276" data-name="Path 276"
      d="M41.975,198.224a4.517,4.517,0,0,0-1.1-4.484c-.91-.719-1.862-.593-2.877.4a4.987,4.987,0,0,1-1.036.845c-.213,0-.826,1.375-.826,1.884a3.848,3.848,0,0,0,1.566,2.685C39.394,200.275,41.384,199.662,41.975,198.224Zm-2.412-.952c-.189.063-.274-.043-.211-.254.063-.4.487-.465.487-.085A.439.439,0,0,1,39.563,197.272Z"
      transform="translate(-13.711 -96.495)" fill="#e4e47a" fill-rule="evenodd" />
    <path id="Path_277" data-name="Path 277"
      d="M116.566,199.432c2.22,0,3.087-2.5,1.777-5.16-.847-1.756-2.349-2.223-3.554-1.121a7.018,7.018,0,0,0-1.736,3.383,3.723,3.723,0,0,0,2.012,2.581A4.209,4.209,0,0,0,116.566,199.432Zm-.678-2.453c-.359-.3-.359-.317-.022-.211a3.051,3.051,0,0,0,.593.126.209.209,0,0,1,.191.211C116.651,197.4,116.375,197.359,115.888,196.979Z"
      transform="translate(166.193 -97.929)" fill="#e4e47a" fill-rule="evenodd" />
    <path id="Path_278" data-name="Path 278"
      d="M57.557,198.978c-1.523-.826-1.988-1.968-1.566-3.787.487-2.116,1.291-2.877,3.026-2.877a3.39,3.39,0,0,1,2.685,5.14A3.325,3.325,0,0,1,57.557,198.978Z"
      transform="translate(35.015 -98.414)" fill="#e4e47a" fill-rule="evenodd" />
    <path id="Path_279" data-name="Path 279"
      d="M121.706,197.983a2.825,2.825,0,0,1-1.545-2.707,1.912,1.912,0,0,1,.719-1.755c.845-.847,1.649-.932,2.983-.319,2.685,1.206,2.666,4.126-.022,4.867A2.411,2.411,0,0,1,121.706,197.983Z"
      transform="translate(174.528 -97.598)" fill="#e4e47a" fill-rule="evenodd" />
    <path id="Path_280" data-name="Path 280"
      d="M109.868,197.5c1.734-.932,2.092-2.54.889-3.978a2.9,2.9,0,0,0-3.724-.823,2.45,2.45,0,0,0-1.184,2.305,3.089,3.089,0,0,0,1.015,2.433C107.561,198.18,108.578,198.2,109.868,197.5Zm-1.482-2.223c-.317-.591-.276-.7.276-.613a.589.589,0,0,1,.528.55C109.275,195.811,108.7,195.853,108.387,195.281Z"
      transform="translate(136.097 -98.534)" fill="#e4e47a" fill-rule="evenodd" />
    <path id="Path_281" data-name="Path 281"
      d="M65.81,198.068a2.962,2.962,0,0,1-1.4-2.622c-.189-1.947.889-3.617,2.327-3.617,1.758,0,3.533,2.2,3.576,4.421a1.555,1.555,0,0,1-.656,1.542c-.571.509-.826.593-1.988.593A5.4,5.4,0,0,1,65.81,198.068Z"
      transform="translate(52.271 -99.445)" fill="#e4e47a" fill-rule="evenodd" />
    <path id="Path_282" data-name="Path 282"
      d="M100.147,196.1a2.757,2.757,0,0,1-1.523-3.722,7.365,7.365,0,0,1,3.661-2.094,2.256,2.256,0,0,1,1.5.719c2.688,2.283,1.692,5.414-1.714,5.395A6.829,6.829,0,0,1,100.147,196.1Z"
      transform="translate(121.301 -102.632)" fill="#e4e47a" fill-rule="evenodd" />
    <path id="Path_283" data-name="Path 283"
      d="M42.834,196.405c-1.228-.552-1.905-2.983-1.269-4.634a2.731,2.731,0,0,1,2.453-2.114,2.533,2.533,0,0,1,1.438.421,4.514,4.514,0,0,1,1.523,3.281C46.98,195.853,44.97,197.335,42.834,196.405Z"
      transform="translate(-7.631 -103.795)" fill="#e4e47a" fill-rule="evenodd" />
    <path id="Path_284" data-name="Path 284"
      d="M36.93,195.22c1.078-.065,1.332-.17,1.819-.719a2.849,2.849,0,0,0,.424-3.281,4.026,4.026,0,0,0-3.046-2.855,3.319,3.319,0,0,0-2.983,1.121c-.634.973-.3,2.666.889,4.378a4.573,4.573,0,0,0,1.1,1.121A3.707,3.707,0,0,0,36.93,195.22Zm.083-2.92-.063.487-.571-.571c-.93-.93-.719-1.564.254-.782A.882.882,0,0,1,37.013,192.3Z"
      transform="translate(-17.591 -106.48)" fill="#e4e47a" fill-rule="evenodd" />
    <path id="Path_285" data-name="Path 285"
      d="M77.184,193.646c1.673-2.729-1.712-6.453-4.378-4.8-1.48.908-1.734,2.559-.676,4.378a4.566,4.566,0,0,0,1.31,1.523A2.692,2.692,0,0,0,77.184,193.646Zm-2.092-1.121c-.254.148-.508-.254-.339-.53.189-.317.528-.254.528.085A.627.627,0,0,1,75.092,192.525Z"
      transform="translate(66.667 -106.303)" fill="#e4e47a" fill-rule="evenodd" />
    <path id="Path_286" data-name="Path 286"
      d="M92.418,194.6c-1.291-1.08-1.693-4.613-.7-6.3.869-1.48,2.92-.634,3.978,1.673A4.09,4.09,0,0,1,95.8,193.6C95.1,195.125,93.581,195.57,92.418,194.6Z"
      transform="translate(106.243 -108.007)" fill="#e4e47a" fill-rule="evenodd" />
    <path id="Path_287" data-name="Path 287"
      d="M126.857,194.864c-.91-.4-2.412-2.94-2.412-4.061a4,4,0,0,1,1.523-3.046c.889-.53,1.291-.53,2.39.022a4.521,4.521,0,0,1,2.2,4C130.6,194.04,128.653,195.668,126.857,194.864Z"
      transform="translate(179.551 -108.383)" fill="#e4e47a" fill-rule="evenodd" />
    <path id="Path_288" data-name="Path 288"
      d="M83.721,193.925c-.126-.022-.465-.107-.782-.169-1.206-.276-1.84-2.518-1.121-3.913a3.323,3.323,0,0,1,2.136-1.714,3.6,3.6,0,0,1,3.259,2.518A1.809,1.809,0,0,1,87,192.339a2.965,2.965,0,0,1-.845,1.078A6.86,6.86,0,0,1,83.721,193.925Z"
      transform="translate(86.909 -107.018)" fill="#e4e47a" fill-rule="evenodd" />
    <path id="Path_289" data-name="Path 289"
      d="M52.136,193.881a3.25,3.25,0,0,1-2.01-2.283,3.2,3.2,0,0,1,.571-3.342c.55-.552.782-.615,1.884-.615,2.346,0,3.574,1.017,3.722,3.046A2.991,2.991,0,0,1,52.136,193.881Z"
      transform="translate(23.006 -107.935)" fill="#e4e47a" fill-rule="evenodd" />
    <path id="Path_290" data-name="Path 290"
      d="M112.105,191.706a2.985,2.985,0,0,1-.467-2.983c.741-2.833,4.085-3.087,4.993-.38a2.018,2.018,0,0,1-.106,1.629,2.994,2.994,0,0,1-2.748,2.2C112.74,192.255,112.57,192.214,112.105,191.706Z"
      transform="translate(147.354 -110.423)" fill="#e4e47a" fill-rule="evenodd" />
    <path id="Path_291" data-name="Path 291"
      d="M119.56,191.295a3.093,3.093,0,0,1-.973-4.167c.4-.55,1.651-.528,2.39.022a3.785,3.785,0,0,1,1.545,2.453,1.956,1.956,0,0,1-.719,1.354C120.977,191.781,120.618,191.823,119.56,191.295Z"
      transform="translate(172.167 -109.939)" fill="#e4e47a" fill-rule="evenodd" />
    <path id="Path_292" data-name="Path 292"
      d="M69.655,190.565a1.769,1.769,0,0,0,.487-1.693,4.676,4.676,0,0,0-1.8-3.068,4.253,4.253,0,0,0-3.513.106,3.01,3.01,0,0,0-1.225,4.252,3.1,3.1,0,0,0,2.157,1.671A3.737,3.737,0,0,0,69.655,190.565ZM66.165,189.4a2.076,2.076,0,0,1,.4-.678l.4-.506.232.465a.822.822,0,0,1,.126.656C67.18,189.591,66.165,189.633,66.165,189.4Z"
      transform="translate(50.013 -112.328)" fill="#e4e47a" fill-rule="evenodd" />
    <path id="Path_293" data-name="Path 293"
      d="M57.919,191.1a2.435,2.435,0,0,1-1.482-2.559c0-1.017.085-1.334.53-1.8,1.121-1.206,2.2-1.438,3.342-.741a3.436,3.436,0,0,1,1.417,4.1A2.759,2.759,0,0,1,57.919,191.1Z"
      transform="translate(36.125 -112.105)" fill="#e4e47a" fill-rule="evenodd" />
    <path id="Path_294" data-name="Path 294"
      d="M109.55,190.807c2.286-1.184,1.777-3.6-.993-4.949a4.716,4.716,0,0,0-3.259-.443,2.367,2.367,0,0,0-.908.886,2.681,2.681,0,0,0-.361,1.905,2.629,2.629,0,0,0,1.671,2.56A8.165,8.165,0,0,0,109.55,190.807Zm-1.69-2.114c-.91-.169-1.1-.254-1.206-.552-.085-.189-.107-.38-.044-.421.148-.148,1.4.55,1.4.782C108.008,188.628,107.942,188.693,107.86,188.693Z"
      transform="translate(132.773 -112.78)" fill="#e4e47a" fill-rule="evenodd" />
    <path id="Path_295" data-name="Path 295"
      d="M39.154,190.79a4.694,4.694,0,0,1-2.433-3.83c0-2.877,3.743-4.187,6.007-2.094,1.4,1.312,1.884,4.019.889,5.014C42.709,190.768,40.106,191.318,39.154,190.79Z"
      transform="translate(-13.026 -115.585)" fill="#e4e47a" fill-rule="evenodd" />
    <path id="Path_296" data-name="Path 296"
      d="M79.4,190.765a4.461,4.461,0,0,1-1.291-1.608c-1.269-2.477-.424-4.7,1.988-5.332a2.086,2.086,0,0,1,1.988.191c1.354.676,1.884,1.86,1.714,3.976-.128,1.777-.361,2.286-1.269,2.835A2.982,2.982,0,0,1,79.4,190.765Z"
      transform="translate(78.918 -115.91)" fill="#e4e47a" fill-rule="evenodd" />
    <path id="Path_297" data-name="Path 297"
      d="M97.276,190.263a2.467,2.467,0,0,1-1.354-1.375c-.613-1.291-.465-2.305.443-2.855a3.411,3.411,0,0,0,.952-.847A3.412,3.412,0,0,1,99.942,184a3.088,3.088,0,0,1,2.327,3.068,3.639,3.639,0,0,1-2.666,3.4A2.694,2.694,0,0,1,97.276,190.263Z"
      transform="translate(115.554 -115.341)" fill="#e4e47a" fill-rule="evenodd" />
    <path id="Path_298" data-name="Path 298"
      d="M46.221,190.3c-1.48-.654-1.712-1.564-1.228-4.441.361-2.094,1.334-2.518,3.111-1.4a2.782,2.782,0,0,1,1.417,3.363c-.3,1.46-.719,2.094-1.608,2.475C47.046,190.661,47.025,190.661,46.221,190.3Z"
      transform="translate(-3.593 -115.584)" fill="#e4e47a" fill-rule="evenodd" />
    <path id="Path_299" data-name="Path 299"
      d="M87.471,189.405a5.425,5.425,0,0,1-1.247-3.746,2.556,2.556,0,0,1,1.564-2.346c.7-.3.8-.3,1.736.167a3.146,3.146,0,0,1,1.923,2.751,1.721,1.721,0,0,1-.782,1.566,18.737,18.737,0,0,0-1.925,1.86C88.359,190.144,88.105,190.081,87.471,189.405Z"
      transform="translate(96.265 -117.093)" fill="#e4e47a" fill-rule="evenodd" />
    <path id="Path_300" data-name="Path 300"
      d="M70.326,188.4c-1.586-.7-2.051-2.792-1.058-4.739.7-1.354,1.249-1.818,2.179-1.8,2.157.063,3.913,3.383,2.92,5.542a2.361,2.361,0,0,1-.869,1.056A5.25,5.25,0,0,1,70.326,188.4Z"
      transform="translate(61.085 -119.61)" fill="#e4e47a" fill-rule="evenodd" />
    <path id="Path_301" data-name="Path 301"
      d="M51.809,186.625c-1-1.058-1.165-1.353-1.165-2.031a2.926,2.926,0,0,1,1.247-2.453c1.545-1.1,3.428-.022,4.148,2.346A2.091,2.091,0,0,1,56,186.371a2.253,2.253,0,0,1-2.262,1.46C53.1,187.831,52.8,187.64,51.809,186.625Z"
      transform="translate(24.414 -119.987)" fill="#e4e47a" fill-rule="evenodd" />
    <path id="Path_302" data-name="Path 302"
      d="M118.9,186.815a2.053,2.053,0,0,0,1.354-2.051c0-1.586-1.712-3.743-3-3.743-.826,0-1.714.845-2.157,2.092a2.711,2.711,0,0,0,1.206,3.617A2.535,2.535,0,0,0,118.9,186.815Zm-1.671-2.516a.335.335,0,0,1,.063-.424c.128-.085.213.063.213.3C117.509,184.7,117.381,184.743,117.233,184.3Z"
      transform="translate(168.295 -121.379)" fill="#e4e47a" fill-rule="evenodd" />
    <path id="Path_303" data-name="Path 303"
      d="M122.67,186.4a4.668,4.668,0,0,1-1.438-2.644,2.777,2.777,0,0,1,1.332-2.179c1.165-.443,2.455.465,2.9,2.053.317,1.184.254,1.649-.339,2.346a1.447,1.447,0,0,1-1.31.656A2.583,2.583,0,0,1,122.67,186.4Z"
      transform="translate(175.784 -120.549)" fill="#e4e47a" fill-rule="evenodd" />
    <path id="Path_304" data-name="Path 304"
      d="M113.279,183.223a4.053,4.053,0,0,0-1.375-2.559,2.486,2.486,0,0,0-2.54,0,4.24,4.24,0,0,0-1.373,2.729,2.64,2.64,0,0,0,2.136,2.518A2.9,2.9,0,0,0,113.279,183.223Zm-2.54.106a.212.212,0,0,1-.211-.211.229.229,0,0,1,.211-.213.213.213,0,0,1,.213.213A.2.2,0,0,1,110.739,183.329Z"
      transform="translate(140.331 -139.011)" fill="#e4e47a" fill-rule="evenodd" />
    <path id="Path_305" data-name="Path 305"
      d="M58.5,185.681c-3.131-1.564-3-6.218.169-6.218.847,0,1.036.1,1.925,1.015,1.249,1.291,1.968,3.363,1.46,4.23a3.74,3.74,0,0,1-2.094,1.523A5.968,5.968,0,0,1,58.5,185.681Z"
      transform="translate(35.749 -140.009)" fill="#e4e47a" fill-rule="evenodd" />
    <path id="Path_306" data-name="Path 306"
      d="M78.559,185.562a2.639,2.639,0,0,0,1.862-2.516c0-2.244-2.538-4.908-4.4-4.612-1.249.211-1.523.741-1.523,2.877.022,2.707.571,3.724,2.305,4.274A2.4,2.4,0,0,0,78.559,185.562ZM77.418,182.6c-.087.254-.593-.509-.593-.889,0-.148.148-.041.339.213A1.179,1.179,0,0,1,77.418,182.6Z"
      transform="translate(72.729 -141.243)" fill="#e4e47a" fill-rule="evenodd" />
    <path id="Path_307" data-name="Path 307"
      d="M100.537,184.4a2.946,2.946,0,0,1-1.036-1.375,1.763,1.763,0,0,1,0-1.819,3.209,3.209,0,0,1,4.4-1.671,2.731,2.731,0,0,1,1.31,3.85C104.536,184.694,101.892,185.266,100.537,184.4Z"
      transform="translate(122.934 -140.313)" fill="#e4e47a" fill-rule="evenodd" />
    <path id="Path_308" data-name="Path 308"
      d="M95.023,184.176a2.651,2.651,0,0,0,.634-3.913,4.12,4.12,0,0,0-2.6-1.482,3.981,3.981,0,0,0-2.264,1.545c-.782.973-.424,3.342.571,3.935A6.533,6.533,0,0,0,95.023,184.176Zm-1.692-2.22a.231.231,0,0,1-.211-.233c0-.107.1-.15.211-.085.128.063.211.169.211.233C93.541,181.912,93.458,181.955,93.33,181.955Z"
      transform="translate(104.837 -140.809)" fill="#e4e47a" fill-rule="evenodd" />
    <path id="Path_309" data-name="Path 309"
      d="M45.879,184.712c2.349-1.44,1.712-5.966-1-7.109a2.629,2.629,0,0,0-2.729.254,3.653,3.653,0,0,0-1.734,3.152,5.627,5.627,0,0,0,2.094,3.637A3.306,3.306,0,0,0,45.879,184.712Zm-2.116-2.433c-.232-.508-.211-.615.254-.952.656-.487.889-.276.8.656S44.123,183.061,43.763,182.279Z"
      transform="translate(-8.687 -142.508)" fill="#e4e47a" fill-rule="evenodd" />
    <path id="Path_310" data-name="Path 310"
      d="M83.292,183.753a3.99,3.99,0,0,1-1.249-3.341,3.207,3.207,0,0,1,.53-2.264c1.332-1.945,3.152-1.543,4.421.973a3.425,3.425,0,0,1,.591,2.37,2.5,2.5,0,0,1-2.01,2.305C84.35,184.22,83.842,184.22,83.292,183.753Z"
      transform="translate(87.929 -142.989)" fill="#e4e47a" fill-rule="evenodd" />
    <path id="Path_311" data-name="Path 311"
      d="M68.209,182.444c1.586-1.143.93-4.591-1.08-5.649-2.051-1.058-4.61,1.968-3.659,4.337.252.678.528.91,1.523,1.375A2.923,2.923,0,0,0,68.209,182.444Zm-1.545-2.433c-.043.339-.106.465-.128.3s-.085-.55-.148-.845c-.1-.4-.085-.465.106-.3A1.024,1.024,0,0,1,66.664,180.011Z"
      transform="translate(49.98 -143.392)" fill="#e4e47a" fill-rule="evenodd" />
    <path id="Path_312" data-name="Path 312"
      d="M48.936,182.1a2.835,2.835,0,0,1-.889-.845c-.678-1.271.317-4.4,1.5-4.7a3,3,0,0,1,2.685,1.4,2.325,2.325,0,0,1,.4,1.925,2.245,2.245,0,0,1-.719,1.777A2.5,2.5,0,0,1,48.936,182.1Z"
      transform="translate(18.653 -143.467)" fill="#e4e47a" fill-rule="evenodd" />
    <path id="Path_313" data-name="Path 313"
      d="M119.115,182.087a4.392,4.392,0,0,1-2.051-1.649,5.76,5.76,0,0,1,.845-3.554,2.06,2.06,0,0,1,2.581-.107c1.84,1.228,1.947,4.232.191,5.14A1.755,1.755,0,0,1,119.115,182.087Z"
      transform="translate(170.814 -143.628)" fill="#e4e47a" fill-rule="evenodd" />
    <path id="Path_314" data-name="Path 314"
      d="M112.882,180.761a2.774,2.774,0,0,1-.763-2.942c.91-2.158,3.809-.634,3.407,1.8a1.8,1.8,0,0,1-1.438,1.608C113.62,181.352,113.388,181.248,112.882,180.761Z"
      transform="translate(147.816 -143.148)" fill="#e4e47a" fill-rule="evenodd" />
    <path id="Path_315" data-name="Path 315"
      d="M74.294,179.059a2.571,2.571,0,0,0-.15-2.855c-.487-.508-.634-.552-2.073-.487-1.649.063-2.283.274-2.792,1.015a2.729,2.729,0,0,0,.76,3.426C71.141,180.941,73.553,180.306,74.294,179.059Zm-2.729-.7c-.169-.276.063-.508.717-.719.593-.169.656.422.065.739C71.817,178.657,71.754,178.657,71.565,178.362Z"
      transform="translate(61.471 -144.429)" fill="#e4e47a" fill-rule="evenodd" />
    <path id="Path_316" data-name="Path 316"
      d="M105.75,179.914a2.158,2.158,0,0,1-.719-1.247c0-.3-.1-.615-.232-.678a1.442,1.442,0,0,1,.465-2.327,3.514,3.514,0,0,1,3.47,1.375,2.307,2.307,0,0,1-.952,3.279C106.893,180.781,106.554,180.718,105.75,179.914Z"
      transform="translate(132.855 -144.564)" fill="#e4e47a" fill-rule="evenodd" />
    <path id="Path_317" data-name="Path 317"
      d="M99.46,179.764a.927.927,0,0,1-.38-.8c0-.571-.063-.613-1.1-.7a1.994,1.994,0,0,1-1.586-.678c-.7-.8-.615-1.438.252-2.22a4.658,4.658,0,0,1,3.617-1.015,2.481,2.481,0,0,1,2.286,1.225C103.756,177.628,101.366,180.885,99.46,179.764Z"
      transform="translate(116.373 -146.044)" fill="#e4e47a" fill-rule="evenodd" />
    <path id="Path_318" data-name="Path 318"
      d="M89.474,179.483a6.461,6.461,0,0,1-1.312-.424c-1.036-.55-1.48-2.857-.8-4.145.8-1.523,2.709-1.4,4.421.337.952.932,1.015,1.058,1.015,2.094a1.872,1.872,0,0,1-.613,1.736C91.525,179.735,91.1,179.8,89.474,179.483Z"
      transform="translate(98.07 -146.586)" fill="#e4e47a" fill-rule="evenodd" />
    <path id="Path_319" data-name="Path 319"
      d="M55.753,179c-1.5-.826-2.051-3.659-1.078-5.521,1.015-1.925,3.172-1.651,4.293.571a5.035,5.035,0,0,1-.55,4.864A2.669,2.669,0,0,1,55.753,179Z"
      transform="translate(31.538 -148.535)" fill="#e4e47a" fill-rule="evenodd" />
    <path id="Path_320" data-name="Path 320"
      d="M78.04,178.834c-2.073-1.1-2.579-5.586-.739-6.431.487-.232.719-.17,1.882.443,1.523.784,2.073,1.545,2.073,2.835C81.3,178.2,79.733,179.723,78.04,178.834Z"
      transform="translate(75.951 -148.434)" fill="#e4e47a" fill-rule="evenodd" />
    <path id="Path_321" data-name="Path 321"
      d="M110.424,177.584a5.784,5.784,0,0,1-.634-.867,2.467,2.467,0,0,0-.91-.741c-1.777-.889-.8-3.426,1.312-3.426a3.449,3.449,0,0,1,2.581,1.058,2.67,2.67,0,0,1,.782,2.961C113.131,177.986,111.334,178.579,110.424,177.584Z"
      transform="translate(140.399 -148.116)" fill="#e4e47a" fill-rule="evenodd" />
    <path id="Path_322" data-name="Path 322"
      d="M114.957,177.388a4.907,4.907,0,0,1-2.494-2.177,1.937,1.937,0,0,1,.317-2.433c1.692-1.671,5.1.276,5.1,2.92A2.02,2.02,0,0,1,114.957,177.388Z"
      transform="translate(148.943 -148.576)" fill="#e4e47a" fill-rule="evenodd" />
    <path id="Path_323" data-name="Path 323"
      d="M105.986,176.911a3.064,3.064,0,0,0,.8-.889c1.247-2.031-.571-4.865-3.089-4.865a2.651,2.651,0,0,0-2.622,2.453c0,1.84.91,3.47,2.114,3.724A4.943,4.943,0,0,0,105.986,176.911Zm-2.37-2.305c-.4,0-.55-.233-.3-.487.169-.169.719.063.719.3C104.039,174.521,103.848,174.606,103.616,174.606Z"
      transform="translate(126.585 -149.748)" fill="#e4e47a" fill-rule="evenodd" />
    <path id="Path_324" data-name="Path 324"
      d="M62.679,175.632c-1.121-1.1-1.228-1.905-.38-3.111,1.945-2.814,5.16-2.516,5.16.467a3.433,3.433,0,0,1-1.375,2.918,2.129,2.129,0,0,1-1.627.656C63.715,176.562,63.461,176.436,62.679,175.632Z"
      transform="translate(46.876 -150.435)" fill="#e4e47a" fill-rule="evenodd" />
    <path id="Path_325" data-name="Path 325"
      d="M93.348,176.62a2.444,2.444,0,0,1-1.121-3.278,4.2,4.2,0,0,0,.55-1.228c.826-2.983,4.421-2.01,4.421,1.228a3.224,3.224,0,0,1-1.608,3.024A2.177,2.177,0,0,1,93.348,176.62Z"
      transform="translate(107.872 -150.726)" fill="#e4e47a" fill-rule="evenodd" />
    <path id="Path_326" data-name="Path 326"
      d="M52.785,176.232a3.728,3.728,0,0,0,1.015-2.983c-.02-2.242-1.288-4-2.729-3.765-1.458.232-2.453,1.8-2.792,4.421-.3,2.157-.169,2.792.615,3.194A3.193,3.193,0,0,0,52.785,176.232Zm-2.349-2.475a2.013,2.013,0,0,1,.571-1.988c.276-.085.361,1.312.128,1.947C50.967,174.138,50.754,174.138,50.436,173.758Z"
      transform="translate(19.339 -151.735)" fill="#e4e47a" fill-rule="evenodd" />
    <path id="Path_327" data-name="Path 327"
      d="M75.413,175.576a6.21,6.21,0,0,0-.169-4.675c-1.228-2.516-3.363-2.516-4.632,0-.3.571-.7,1.291-.889,1.566-.952,1.31-.085,3.216,1.84,4.124A2.966,2.966,0,0,0,75.413,175.576Zm-2.518-2.051c-.063.676-.063.676-.421.274-.339-.359-.339-.465-.085-.826.169-.211.358-.337.443-.252A1.583,1.583,0,0,1,72.895,173.525Z"
      transform="translate(62.363 -152.263)" fill="#e4e47a" fill-rule="evenodd" />
    <path id="Path_328" data-name="Path 328"
      d="M84.22,174.92c-2.22-1.036-3.322-3.087-2.5-4.717a3.137,3.137,0,0,1,4.041-1.247c2.305,1.206,3.024,4.167,1.417,5.775C86.336,175.576,85.7,175.619,84.22,174.92Z"
      transform="translate(86.941 -152.686)" fill="#e4e47a" fill-rule="evenodd" />
    <path id="Path_329" data-name="Path 329"
      d="M106.743,173.427a5,5,0,0,1-2.031-1.947c-.7-1.332-.3-3.3.763-3.743.8-.339,1.862.169,2.961,1.417.889,1.017,1.291,2.412.889,3.152A2.108,2.108,0,0,1,106.743,173.427Z"
      transform="translate(132.948 -153.879)" fill="#e4e47a" fill-rule="evenodd" />
    <path id="Path_330" data-name="Path 330"
      d="M99.913,173.363a3.357,3.357,0,0,0,2.262-1.271,2.122,2.122,0,0,0-.1-1.988,2.048,2.048,0,0,1-.317-1.015,2.434,2.434,0,0,0-4.654-1.017,4.665,4.665,0,0,0,1.48,4.823A2.9,2.9,0,0,0,99.913,173.363Zm-.276-2.518c-.317-.634-.276-1.5.106-1.5a.551.551,0,0,1,.337.93.681.681,0,0,0-.1.634C100.165,171.373,99.913,171.331,99.637,170.845Z"
      transform="translate(117.947 -155.062)" fill="#e4e47a" fill-rule="evenodd" />
    <path id="Path_331" data-name="Path 331"
      d="M89.451,172.343c-1.162-.76-1.458-1.1-1.671-2.051a2.97,2.97,0,0,1,2.242-3.639c1.755-.211,3,.973,3.194,3.068.128,1.46-.252,2.412-1.206,2.9A2.176,2.176,0,0,1,89.451,172.343Z"
      transform="translate(99.371 -155.059)" fill="#e4e47a" fill-rule="evenodd" />
    <path id="Path_332" data-name="Path 332"
      d="M56.657,171.949c-1.058-1.036-1.206-2.223-.487-3.787.782-1.714,2.305-2.475,3.574-1.8a4,4,0,0,1,1.228,2.835c0,2.179-1,3.489-2.644,3.489A1.885,1.885,0,0,1,56.657,171.949Z"
      transform="translate(34.657 -155.658)" fill="#e4e47a" fill-rule="evenodd" />
    <path id="Path_333" data-name="Path 333"
      d="M77.054,172.015c-.826-.424-1.291-1.249-1.545-2.751a4.184,4.184,0,0,1,.678-3.574c1.458-1.884,4.632.465,4.654,3.426C80.841,171.359,78.81,172.926,77.054,172.015Z"
      transform="translate(74.471 -156.951)" fill="#e4e47a" fill-rule="evenodd" />
    <path id="Path_334" data-name="Path 334"
      d="M65.727,170.838c1.438-.676,1.734-2.327.8-4.61-.7-1.736-1.269-2.286-2.581-2.412a3.218,3.218,0,0,0-3.511,3.533,3.714,3.714,0,0,0,2.2,3.6A4.682,4.682,0,0,0,65.727,170.838Zm-1.651-2.431c-.443-.254-.528-1.46-.1-1.46.38.022,1.056,1.036.908,1.395C64.754,168.68,64.584,168.7,64.076,168.406Z"
      transform="translate(44.361 -158.377)" fill="#e4e47a" fill-rule="evenodd" />
    <path id="Path_335" data-name="Path 335"
      d="M67.251,169.408a2.65,2.65,0,0,1-1.269-1.819c-.191-.678-.126-1,.443-2.39.763-1.777,1.44-2.349,2.5-2.116,2.094.465,2.794,4.358,1.08,6.07A2.258,2.258,0,0,1,67.251,169.408Z"
      transform="translate(55.17 -159.274)" fill="#e4e47a" fill-rule="evenodd" />
    <path id="Path_336" data-name="Path 336"
      d="M94.488,169.428a4.885,4.885,0,0,1-2.327-1.966c-.782-1.545-.487-3.511.676-4.315a3.3,3.3,0,0,1,2.644-.106c2.116.782,3.639,4.441,2.349,5.627a6.123,6.123,0,0,1-.952.676A4.344,4.344,0,0,1,94.488,169.428Z"
      transform="translate(107.761 -159.526)" fill="#e4e47a" fill-rule="evenodd" />
    <path id="Path_337" data-name="Path 337"
      d="M82.476,169.191a4.3,4.3,0,0,1-1.649-3.215,9,9,0,0,1,1.162-3.872c.232-.191.424-.169.889.085a5.12,5.12,0,0,0,1.4.443,3.947,3.947,0,0,1,2.664,2.688C87.786,168.365,84.929,170.861,82.476,169.191Z"
      transform="translate(85.61 -160.514)" fill="#e4e47a" fill-rule="evenodd" />
    <path id="Path_338" data-name="Path 338"
      d="M71.925,167.271c-1.036-1.036-.93-2.685.191-2.685.613,0,.634-.191.254-1.5-.339-1.08-.276-1.375.3-1.693.656-.339,1.8.337,2.453,1.438a2.911,2.911,0,0,1,.445,2.2,2.319,2.319,0,0,1-.741,1.905A2.027,2.027,0,0,1,71.925,167.271Z"
      transform="translate(65.811 -161.304)" fill="#e4e47a" fill-rule="evenodd" />
    <path id="Path_339" data-name="Path 339"
      d="M86.935,165.384a4.5,4.5,0,0,1-1.143-1.629c0-.487,1.291-1.8,2.051-2.094,1.968-.739,3.237.361,3.237,2.772,0,1.46-.613,2.114-2.01,2.114C88.16,166.547,87.993,166.462,86.935,165.384Z"
      transform="translate(95.449 -161.151)" fill="#e4e47a" fill-rule="evenodd" />
  </g>
</svg>